<svg id="svg" version="1.1" xmlns="http://www.w3.org/2000/svg" xmlns:xlink="http://www.w3.org/1999/xlink" width="400" height="154.5253863134658" viewBox="0, 0, 400,154.5253863134658"><g id="svgg"><path id="path0" d="M2.180 1.119 C 1.481 1.397,0.705 3.333,1.293 3.333 C 1.362 3.333,1.517 3.555,1.636 3.825 C 1.756 4.096,2.001 4.364,2.179 4.421 C 2.358 4.477,3.122 5.162,3.877 5.942 C 6.516 8.668,11.254 13.333,11.384 13.333 C 11.436 13.333,13.199 15.040,15.303 17.125 C 18.713 20.507,21.909 23.635,32.221 33.687 C 33.855 35.280,35.993 37.360,36.971 38.310 C 37.949 39.259,40.115 41.378,41.782 43.018 C 45.012 46.194,45.061 46.225,45.903 45.582 C 47.033 44.721,49.438 44.691,51.538 45.512 C 59.121 48.477,67.904 58.498,74.706 71.947 L 75.732 73.977 76.529 73.882 C 77.685 73.745,78.771 74.102,79.507 74.860 L 80.122 75.495 82.103 74.468 C 85.265 72.829,85.538 72.682,86.417 72.162 C 86.875 71.890,87.362 71.617,87.500 71.555 C 87.638 71.492,87.787 71.394,87.833 71.337 C 87.879 71.281,88.292 71.022,88.750 70.762 C 89.587 70.289,93.844 67.507,94.000 67.333 C 94.046 67.281,94.496 66.943,95.000 66.581 C 95.504 66.219,96.008 65.847,96.120 65.753 C 96.231 65.660,96.562 65.396,96.854 65.167 C 100.119 62.605,104.453 58.191,105.955 55.897 C 106.068 55.724,106.339 55.314,106.557 54.985 C 107.975 52.847,108.993 50.085,108.997 48.369 C 109.000 47.358,108.402 45.689,107.979 45.528 C 107.899 45.497,107.828 45.310,107.822 45.111 C 107.815 44.872,106.967 43.933,105.315 42.333 C 103.942 41.004,101.100 38.229,99.001 36.167 C 96.901 34.104,94.306 31.592,93.234 30.583 C 92.162 29.575,89.928 27.381,88.270 25.708 C 86.612 24.035,85.204 22.667,85.141 22.667 C 85.077 22.667,83.943 21.598,82.620 20.292 C 81.297 18.985,79.885 17.636,79.482 17.292 C 77.652 15.732,76.922 15.167,76.736 15.167 C 76.626 15.167,76.492 15.054,76.440 14.917 C 76.387 14.779,76.238 14.667,76.109 14.667 C 75.980 14.667,75.787 14.561,75.679 14.432 C 75.572 14.303,75.226 14.074,74.909 13.924 C 74.592 13.774,74.333 13.588,74.333 13.510 C 74.333 13.433,74.148 13.323,73.921 13.266 C 73.694 13.209,73.234 12.976,72.898 12.748 C 72.562 12.520,72.185 12.333,72.060 12.333 C 71.935 12.333,71.833 12.270,71.833 12.193 C 71.833 12.116,71.533 11.954,71.167 11.833 C 70.800 11.712,70.500 11.562,70.500 11.500 C 70.500 11.438,70.200 11.288,69.833 11.167 C 69.467 11.046,69.167 10.900,69.167 10.843 C 69.167 10.786,68.829 10.640,68.417 10.518 C 68.004 10.396,67.667 10.244,67.667 10.180 C 67.667 10.116,67.275 9.963,66.797 9.840 C 66.318 9.717,65.825 9.516,65.701 9.392 C 65.578 9.268,65.365 9.167,65.229 9.167 C 65.093 9.167,64.667 9.023,64.283 8.848 C 63.898 8.673,63.302 8.478,62.958 8.413 C 62.615 8.349,62.333 8.240,62.333 8.171 C 62.333 8.102,61.883 7.950,61.333 7.833 C 60.783 7.717,60.333 7.568,60.333 7.504 C 60.333 7.440,59.808 7.288,59.167 7.167 C 58.525 7.046,58.000 6.889,58.000 6.819 C 58.000 6.748,57.438 6.600,56.750 6.489 C 56.063 6.378,55.500 6.231,55.500 6.161 C 55.500 6.091,54.862 5.940,54.083 5.824 C 53.304 5.708,52.667 5.561,52.667 5.497 C 52.667 5.434,51.973 5.284,51.125 5.164 C 50.277 5.044,49.546 4.891,49.500 4.824 C 49.454 4.758,48.367 4.569,47.083 4.405 C 45.800 4.241,44.712 4.055,44.667 3.991 C 44.621 3.928,43.552 3.777,42.292 3.657 C 41.031 3.537,40.000 3.387,40.000 3.325 C 40.000 3.262,38.781 3.114,37.292 2.995 C 35.802 2.876,34.546 2.725,34.500 2.658 C 34.454 2.592,32.804 2.448,30.833 2.337 C 28.863 2.226,27.100 2.073,26.917 1.996 C 26.560 1.846,19.181 1.497,16.408 1.499 C 15.487 1.500,14.662 1.435,14.575 1.355 C 14.400 1.194,2.558 0.969,2.180 1.119 " stroke="none" fill="#e8462d" fill-rule="evenodd"></path><path id="path1" d="M71.530 79.747 C 61.811 84.798,55.020 89.894,49.433 96.330 C 47.765 98.252,45.929 101.501,45.332 103.589 C 44.720 105.728,44.901 106.889,46.171 108.974 C 46.472 109.467,50.939 114.000,51.125 114.000 C 51.165 114.000,53.169 115.961,55.579 118.358 C 57.989 120.754,60.069 122.775,60.200 122.849 C 60.331 122.922,62.392 124.936,64.780 127.324 C 67.168 129.713,69.169 131.667,69.227 131.667 C 69.286 131.667,70.451 132.773,71.817 134.125 C 74.205 136.488,75.406 137.578,75.981 137.902 C 76.129 137.985,76.310 138.154,76.383 138.277 C 76.457 138.400,76.628 138.500,76.764 138.500 C 76.899 138.500,77.054 138.612,77.106 138.750 C 77.159 138.887,77.298 139.000,77.414 139.000 C 77.531 139.000,77.729 139.124,77.855 139.276 C 77.980 139.428,78.327 139.654,78.625 139.778 C 78.923 139.903,79.167 140.070,79.167 140.149 C 79.167 140.229,79.298 140.339,79.458 140.394 C 79.619 140.449,80.125 140.718,80.583 140.991 C 81.769 141.698,84.058 142.833,84.298 142.833 C 84.409 142.833,84.500 142.909,84.500 143.001 C 84.500 143.093,84.837 143.258,85.250 143.369 C 85.662 143.479,86.000 143.620,86.000 143.683 C 86.000 143.745,86.337 143.896,86.750 144.018 C 87.162 144.140,87.500 144.289,87.500 144.350 C 87.500 144.411,87.844 144.547,88.265 144.653 C 88.686 144.759,89.193 144.947,89.390 145.071 C 89.588 145.195,90.031 145.345,90.375 145.406 C 90.719 145.466,91.000 145.575,91.000 145.648 C 91.000 145.721,91.416 145.873,91.924 145.987 C 92.432 146.101,93.050 146.300,93.299 146.429 C 93.547 146.558,94.106 146.712,94.542 146.770 C 94.977 146.829,95.333 146.933,95.333 147.003 C 95.333 147.072,95.833 147.223,96.444 147.338 C 97.055 147.454,97.743 147.646,97.974 147.766 C 98.205 147.886,98.812 148.035,99.322 148.098 C 99.832 148.160,100.287 148.262,100.333 148.324 C 100.419 148.440,102.299 148.829,104.917 149.272 C 105.742 149.411,106.538 149.589,106.687 149.667 C 106.835 149.745,107.735 149.896,108.687 150.002 C 109.638 150.109,110.567 150.262,110.750 150.344 C 111.099 150.498,115.667 151.000,116.723 151.000 C 117.059 151.000,117.333 151.061,117.333 151.136 C 117.333 151.267,121.705 151.669,123.125 151.667 C 123.515 151.667,123.833 151.728,123.833 151.803 C 123.833 151.937,130.391 152.343,132.444 152.336 C 133.010 152.335,133.497 152.402,133.528 152.485 C 133.624 152.748,151.551 153.088,152.153 152.839 C 153.050 152.468,153.091 150.624,152.217 149.953 C 151.960 149.756,150.648 148.505,149.300 147.173 C 147.953 145.840,145.887 143.813,144.710 142.667 C 135.619 133.819,132.961 131.220,129.075 127.375 C 126.642 124.969,124.605 123.000,124.547 123.000 C 124.489 123.000,123.491 122.044,122.328 120.875 C 121.165 119.706,119.096 117.672,117.731 116.354 C 116.367 115.037,113.887 112.618,112.221 110.979 C 109.080 107.891,108.919 107.779,108.415 108.335 C 107.371 109.489,104.432 109.387,101.606 108.099 C 94.549 104.883,86.340 95.370,79.932 82.981 C 78.452 80.121,78.403 80.050,77.998 80.204 C 76.982 80.591,75.044 79.898,74.402 78.917 C 74.051 78.383,74.287 78.314,71.530 79.747 " stroke="none" fill="#04b348" fill-rule="evenodd"></path><path id="path2" d="M146.636 5.388 C 144.373 7.696,140.492 11.640,138.011 14.153 C 135.530 16.666,133.500 18.770,133.500 18.829 C 133.500 18.888,131.512 20.936,129.083 23.381 C 126.654 25.825,124.667 27.858,124.667 27.899 C 124.667 27.968,121.779 30.916,111.942 40.887 C 107.969 44.914,107.967 44.917,108.229 45.333 C 110.840 49.477,107.767 55.847,99.670 63.079 C 96.497 65.912,94.650 67.270,89.000 70.920 C 87.924 71.615,84.937 73.280,82.583 74.497 L 80.250 75.703 80.306 76.655 C 80.378 77.863,80.042 78.692,79.145 79.520 L 78.463 80.150 79.957 83.033 C 86.363 95.396,94.562 104.889,101.606 108.099 C 104.432 109.387,107.371 109.489,108.415 108.335 C 108.582 108.151,108.805 108.000,108.912 108.000 C 109.018 108.000,109.925 107.168,110.928 106.152 C 111.930 105.135,113.369 103.685,114.125 102.929 C 114.881 102.174,115.500 101.518,115.500 101.472 C 115.500 101.426,117.469 99.388,119.875 96.943 C 130.742 85.898,136.851 79.596,137.064 79.208 C 137.152 79.048,137.361 78.819,137.529 78.699 C 137.696 78.579,137.833 78.390,137.833 78.278 C 137.833 78.166,137.965 77.952,138.125 77.803 C 138.285 77.654,138.604 77.261,138.833 76.929 C 139.063 76.596,139.379 76.168,139.537 75.976 C 139.694 75.784,139.868 75.486,139.923 75.314 C 139.978 75.141,140.078 75.000,140.147 75.000 C 140.215 75.000,140.374 74.738,140.500 74.417 C 140.626 74.096,140.776 73.833,140.833 73.833 C 140.891 73.833,141.041 73.571,141.167 73.250 C 141.293 72.929,141.454 72.667,141.524 72.667 C 141.595 72.667,141.743 72.367,141.853 72.000 C 141.963 71.633,142.110 71.333,142.180 71.333 C 142.250 71.333,142.399 71.052,142.511 70.708 C 142.623 70.365,142.771 70.046,142.839 70.000 C 142.907 69.954,143.166 69.429,143.415 68.833 C 143.664 68.237,144.001 67.450,144.163 67.083 C 144.325 66.717,144.548 66.136,144.658 65.794 C 144.768 65.452,144.921 65.132,144.998 65.085 C 145.075 65.037,145.188 64.699,145.250 64.332 C 145.312 63.966,145.419 63.667,145.487 63.667 C 145.555 63.667,145.619 63.573,145.629 63.458 C 145.666 63.008,146.229 61.078,146.346 60.999 C 146.414 60.953,146.567 60.447,146.685 59.874 C 146.803 59.302,146.950 58.833,147.012 58.833 C 147.073 58.833,147.215 58.365,147.327 57.792 C 147.440 57.219,147.594 56.674,147.670 56.581 C 147.746 56.489,147.905 55.795,148.024 55.040 C 148.143 54.285,148.288 53.667,148.347 53.667 C 148.405 53.667,148.544 53.085,148.655 52.375 C 148.766 51.665,148.926 50.953,149.012 50.794 C 149.097 50.634,149.257 49.791,149.367 48.919 C 149.477 48.047,149.618 47.333,149.680 47.333 C 149.743 47.333,149.890 46.452,150.008 45.375 C 150.126 44.298,150.278 43.379,150.344 43.333 C 150.411 43.288,150.560 42.237,150.677 41.000 C 150.793 39.762,150.943 38.712,151.011 38.667 C 151.079 38.621,151.231 37.271,151.348 35.667 C 151.466 34.063,151.615 32.712,151.680 32.667 C 151.745 32.621,151.888 30.783,151.998 28.583 C 152.108 26.383,152.262 24.433,152.341 24.250 C 152.500 23.880,152.834 14.829,152.833 10.903 C 152.833 9.520,152.883 8.339,152.943 8.279 C 153.158 8.064,153.213 3.061,153.007 2.437 C 152.761 1.694,152.043 1.162,151.308 1.180 C 150.805 1.192,150.345 1.606,146.636 5.388 M47.057 45.239 C 46.675 45.358,46.139 45.616,45.864 45.811 C 45.590 46.007,45.274 46.167,45.163 46.167 C 44.980 46.167,41.667 49.372,41.667 49.550 C 41.667 49.591,39.684 51.640,37.261 54.104 C 30.906 60.565,28.824 62.717,28.654 63.000 C 28.572 63.137,28.504 63.186,28.503 63.107 C 28.501 63.028,28.256 63.253,27.958 63.607 C 27.660 63.961,26.844 64.775,26.143 65.417 C 25.443 66.058,24.862 66.677,24.852 66.792 C 24.842 66.906,24.723 67.000,24.589 67.000 C 24.455 67.000,24.257 67.169,24.149 67.375 C 24.041 67.581,23.382 68.323,22.685 69.024 C 20.868 70.848,19.878 71.921,20.167 71.752 C 20.304 71.671,21.003 71.197,21.719 70.698 C 32.479 63.202,48.882 64.424,71.443 74.404 L 73.970 75.521 74.746 74.745 L 75.522 73.969 74.502 71.943 C 72.772 68.506,71.839 66.878,69.258 62.793 C 64.549 55.340,58.117 48.904,52.750 46.274 C 50.434 45.139,48.501 44.787,47.057 45.239 M53.500 91.917 C 53.095 92.329,52.801 92.667,52.847 92.667 C 52.893 92.667,53.262 92.329,53.667 91.917 C 54.072 91.504,54.365 91.167,54.319 91.167 C 54.274 91.167,53.905 91.504,53.500 91.917 M51.075 94.375 L 50.417 95.083 51.125 94.425 C 51.784 93.812,51.910 93.667,51.784 93.667 C 51.757 93.667,51.438 93.985,51.075 94.375 " stroke="none" fill="#07c6de" fill-rule="evenodd"></path><path id="path3" d="M34.964 66.014 C 34.074 66.087,32.949 66.227,32.464 66.324 C 31.980 66.421,31.208 66.576,30.750 66.668 C 26.229 67.580,20.022 71.138,17.665 74.168 C 17.345 74.579,16.952 75.014,16.792 75.134 C 16.631 75.254,16.500 75.423,16.500 75.509 C 16.500 75.596,16.369 75.811,16.208 75.988 C 15.812 76.425,15.666 76.617,14.995 77.583 C 14.677 78.042,14.379 78.454,14.333 78.500 C 14.240 78.594,14.153 78.741,12.824 81.083 C 12.304 82.000,11.826 82.919,11.761 83.125 C 11.697 83.331,11.584 83.500,11.510 83.500 C 11.437 83.500,11.279 83.856,11.159 84.292 C 11.039 84.727,10.892 85.121,10.832 85.167 C 10.640 85.312,9.830 87.142,9.726 87.664 C 9.670 87.940,9.567 88.167,9.496 88.167 C 9.425 88.167,9.273 88.559,9.158 89.038 C 9.043 89.517,8.855 90.003,8.740 90.118 C 8.625 90.233,8.479 90.628,8.417 90.997 C 8.355 91.365,8.246 91.667,8.175 91.667 C 8.104 91.667,7.949 92.135,7.831 92.708 C 7.713 93.281,7.560 93.825,7.490 93.917 C 7.420 94.008,7.266 94.552,7.148 95.125 C 7.030 95.698,6.882 96.167,6.819 96.167 C 6.756 96.167,6.611 96.673,6.497 97.292 C 6.383 97.910,6.233 98.492,6.164 98.583 C 6.095 98.675,5.949 99.313,5.839 100.000 C 5.729 100.688,5.572 101.378,5.489 101.535 C 5.406 101.692,5.257 102.367,5.157 103.035 C 5.058 103.703,4.918 104.362,4.847 104.500 C 4.777 104.638,4.728 104.956,4.740 105.208 C 4.752 105.460,4.715 105.667,4.660 105.667 C 4.604 105.667,4.457 106.492,4.333 107.500 C 4.210 108.508,4.057 109.333,3.994 109.333 C 3.931 109.333,3.784 110.383,3.667 111.667 C 3.549 112.950,3.401 114.000,3.337 114.000 C 3.273 114.000,3.122 115.219,3.000 116.708 C 2.878 118.198,2.724 119.454,2.657 119.500 C 2.591 119.546,2.439 121.233,2.321 123.250 C 2.203 125.267,2.056 126.954,1.995 127.000 C 1.874 127.090,1.497 135.279,1.499 137.758 C 1.499 138.588,1.433 139.338,1.350 139.425 C 1.099 139.691,1.042 152.041,1.292 152.124 C 1.406 152.163,1.500 152.292,1.500 152.411 C 1.500 152.670,2.019 152.828,2.882 152.831 C 3.427 152.833,3.627 152.715,4.349 151.958 C 4.809 151.477,7.338 148.879,9.968 146.184 C 12.598 143.489,16.137 139.862,17.833 138.124 C 19.529 136.387,21.535 134.355,22.292 133.611 C 23.048 132.866,23.667 132.208,23.667 132.148 C 23.667 132.088,25.654 130.050,28.083 127.619 C 30.512 125.188,32.500 123.155,32.500 123.101 C 32.500 123.047,34.469 121.010,36.875 118.575 C 46.903 108.427,46.273 109.179,45.593 108.151 C 42.514 103.498,50.253 92.868,62.500 84.926 C 63.462 84.302,64.512 83.620,64.833 83.410 C 65.923 82.697,69.742 80.570,71.849 79.502 L 73.949 78.437 73.933 77.344 C 73.924 76.742,73.971 76.100,74.037 75.917 C 74.145 75.618,73.899 75.470,71.704 74.509 C 56.589 67.890,44.918 65.191,34.964 66.014 " stroke="none" fill="#047cec" fill-rule="evenodd"></path><path id="path4" d="M242.012 30.272 C 241.672 30.705,241.446 49.244,241.766 50.438 C 242.034 51.435,244.966 51.435,245.234 50.438 C 245.286 50.243,245.330 48.039,245.331 45.539 C 245.332 43.040,245.403 40.865,245.489 40.706 C 245.575 40.547,245.743 40.168,245.864 39.865 C 246.566 38.099,250.105 37.729,251.406 39.286 C 252.105 40.124,252.167 40.619,252.167 45.438 C 252.167 51.045,252.194 51.127,254.031 51.155 C 254.979 51.169,255.667 50.931,255.667 50.587 C 255.667 50.448,255.744 50.333,255.838 50.333 C 256.043 50.333,256.053 41.219,255.848 41.092 C 255.775 41.047,255.668 40.559,255.610 40.008 C 255.459 38.564,253.985 36.167,253.248 36.167 C 253.131 36.167,252.992 36.054,252.940 35.917 C 252.887 35.779,252.748 35.666,252.630 35.666 C 252.513 35.665,252.192 35.541,251.917 35.391 C 251.198 34.997,248.119 34.993,247.417 35.386 C 247.142 35.539,246.840 35.665,246.747 35.666 C 246.654 35.666,246.302 35.854,245.966 36.082 L 245.354 36.498 245.302 33.423 C 245.241 29.790,245.270 29.847,243.470 29.839 C 242.464 29.834,242.325 29.875,242.012 30.272 M179.591 30.591 C 179.358 30.824,179.167 31.128,179.167 31.267 C 179.167 31.405,179.030 31.833,178.863 32.217 C 178.695 32.602,178.348 33.479,178.090 34.167 C 177.832 34.854,177.525 35.642,177.407 35.917 C 177.289 36.192,177.141 36.623,177.078 36.875 C 177.015 37.128,176.822 37.612,176.649 37.952 C 176.475 38.292,176.333 38.705,176.333 38.869 C 176.333 39.033,176.267 39.167,176.186 39.167 C 176.106 39.167,175.950 39.522,175.841 39.956 C 175.731 40.390,175.582 40.822,175.510 40.914 C 175.437 41.007,175.246 41.496,175.085 42.000 C 174.924 42.504,174.727 42.988,174.646 43.075 C 174.566 43.162,174.500 43.336,174.500 43.461 C 174.500 43.586,174.313 44.098,174.083 44.599 C 173.854 45.100,173.667 45.616,173.667 45.745 C 173.667 45.874,173.599 46.022,173.515 46.074 C 173.432 46.125,173.268 46.542,173.150 47.000 C 173.033 47.459,172.868 47.833,172.784 47.833 C 172.700 47.833,172.674 47.946,172.727 48.083 C 172.780 48.221,172.750 48.333,172.661 48.333 C 172.573 48.333,172.500 48.441,172.500 48.572 C 172.500 48.704,172.412 49.023,172.304 49.281 C 171.761 50.582,172.252 51.167,173.888 51.167 C 174.954 51.167,175.833 50.642,175.833 50.006 C 175.833 49.860,175.935 49.593,176.058 49.412 C 176.182 49.231,176.335 48.871,176.398 48.612 C 176.461 48.352,176.674 47.771,176.871 47.320 L 177.229 46.500 181.582 46.500 L 185.936 46.500 186.201 47.125 C 186.347 47.469,186.554 48.030,186.662 48.373 C 186.770 48.715,186.917 49.032,186.989 49.077 C 187.062 49.121,187.217 49.501,187.334 49.919 C 187.659 51.079,188.975 51.548,190.392 51.010 C 191.008 50.775,191.097 48.500,190.489 48.500 C 190.426 48.500,190.330 48.275,190.275 48.000 C 190.220 47.725,190.021 47.163,189.833 46.750 C 189.645 46.337,189.447 45.775,189.392 45.500 C 189.337 45.225,189.240 45.000,189.177 45.000 C 189.114 45.000,188.967 44.625,188.850 44.167 C 188.732 43.709,188.568 43.292,188.485 43.241 C 188.401 43.189,188.333 43.017,188.333 42.859 C 188.333 42.700,188.185 42.280,188.004 41.924 C 187.822 41.568,187.561 40.888,187.422 40.412 C 187.284 39.935,187.058 39.329,186.920 39.065 C 186.782 38.800,186.668 38.482,186.668 38.359 C 186.667 38.236,186.562 37.936,186.433 37.692 C 186.304 37.449,185.964 36.612,185.675 35.833 C 185.387 35.054,185.085 34.267,185.004 34.083 C 184.923 33.900,184.767 33.450,184.657 33.083 C 184.547 32.717,184.401 32.342,184.333 32.250 C 184.266 32.158,184.120 31.803,184.010 31.461 C 183.573 30.105,180.652 29.530,179.591 30.591 M182.296 36.594 C 182.450 36.887,182.754 37.691,183.710 40.333 C 183.892 40.837,184.182 41.558,184.354 41.935 C 184.939 43.217,185.056 43.167,181.504 43.167 L 178.340 43.167 178.527 42.708 C 178.630 42.456,178.809 42.025,178.925 41.750 C 179.041 41.475,179.226 40.915,179.335 40.505 C 179.444 40.095,179.638 39.610,179.766 39.426 C 179.895 39.243,180.003 38.978,180.006 38.838 C 180.009 38.698,180.156 38.283,180.333 37.917 C 180.510 37.550,180.658 37.135,180.661 36.995 C 180.664 36.855,180.772 36.591,180.900 36.407 C 181.029 36.224,181.226 35.738,181.339 35.328 L 181.543 34.583 181.834 35.428 C 181.994 35.892,182.202 36.417,182.296 36.594 M199.292 35.111 C 198.948 35.153,198.667 35.248,198.667 35.323 C 198.667 35.397,198.429 35.506,198.139 35.564 C 197.849 35.622,197.366 35.856,197.067 36.085 C 196.418 36.580,196.333 36.593,196.333 36.200 C 196.333 35.651,195.975 35.500,194.675 35.503 C 192.726 35.507,192.917 34.376,192.917 45.920 L 192.917 56.019 193.333 56.339 C 193.891 56.768,195.516 56.793,195.998 56.380 C 196.311 56.111,196.333 55.892,196.333 53.046 C 196.333 50.238,196.423 49.637,196.759 50.181 C 197.432 51.270,201.380 51.723,203.321 50.935 C 204.834 50.320,206.274 48.772,206.595 47.417 C 206.659 47.142,206.784 46.826,206.871 46.716 C 207.141 46.372,207.318 43.332,207.165 41.667 C 206.880 38.562,205.303 36.024,203.371 35.562 C 203.121 35.503,202.838 35.392,202.741 35.317 C 202.526 35.149,200.150 35.008,199.292 35.111 M214.917 35.097 C 213.750 35.379,212.333 35.880,212.333 36.012 C 212.333 36.097,212.227 36.167,212.096 36.167 C 211.400 36.167,210.000 38.162,210.000 39.155 C 210.000 40.622,212.293 40.866,213.249 39.500 C 213.538 39.087,213.994 38.645,214.262 38.516 C 214.530 38.387,214.775 38.218,214.806 38.141 C 214.836 38.063,215.378 38.000,216.009 38.000 C 217.614 38.000,218.815 38.688,218.828 39.615 C 218.831 39.816,218.908 40.027,219.000 40.083 C 219.210 40.213,219.220 41.000,219.012 41.000 C 218.927 41.000,218.308 41.073,217.637 41.161 C 216.966 41.250,216.192 41.350,215.917 41.385 C 215.642 41.419,215.304 41.489,215.167 41.540 C 215.029 41.591,214.373 41.722,213.708 41.831 C 213.044 41.941,212.500 42.098,212.500 42.182 C 212.500 42.265,212.386 42.333,212.248 42.333 C 211.997 42.333,211.453 42.599,211.053 42.917 C 210.938 43.008,210.611 43.271,210.326 43.500 C 208.583 44.902,208.560 48.045,210.281 49.766 C 210.501 49.986,210.753 50.167,210.841 50.167 C 210.928 50.167,211.000 50.230,211.000 50.308 C 211.000 50.386,211.319 50.581,211.708 50.742 C 212.098 50.903,212.547 51.102,212.706 51.184 C 213.829 51.764,217.355 51.195,218.625 50.228 L 219.167 49.816 219.167 50.216 C 219.167 50.845,219.661 51.167,220.627 51.167 C 221.649 51.167,222.333 50.934,222.333 50.587 C 222.333 50.448,222.408 50.333,222.500 50.333 C 222.710 50.333,222.730 40.514,222.521 39.966 C 222.440 39.756,222.287 39.216,222.181 38.766 C 221.958 37.822,220.788 36.167,220.345 36.167 C 220.247 36.167,220.167 36.104,220.167 36.027 C 220.167 35.950,219.848 35.786,219.458 35.663 C 219.069 35.540,218.670 35.381,218.573 35.309 C 218.363 35.153,215.396 34.981,214.917 35.097 M230.917 35.103 C 230.642 35.145,230.267 35.246,230.083 35.328 C 229.900 35.410,229.454 35.568,229.093 35.679 C 228.332 35.912,228.237 35.979,227.141 37.048 C 225.597 38.553,225.417 39.195,225.417 43.167 C 225.417 46.750,225.387 46.563,226.225 48.317 C 226.763 49.443,228.057 50.463,229.636 51.005 C 230.798 51.404,234.394 51.438,235.083 51.057 C 235.267 50.955,235.642 50.770,235.917 50.644 C 236.909 50.193,238.446 48.695,238.611 48.020 C 238.670 47.780,238.774 47.546,238.843 47.500 C 239.191 47.267,239.188 45.915,238.838 45.542 C 238.088 44.740,235.817 45.093,235.577 46.048 C 235.005 48.328,231.533 49.052,229.787 47.254 C 228.568 45.999,228.407 41.014,229.537 39.486 C 230.788 37.793,234.672 37.886,235.107 39.619 C 235.160 39.829,235.264 40.000,235.338 40.000 C 235.413 40.000,235.523 40.226,235.584 40.501 C 235.824 41.595,238.755 41.700,239.096 40.627 C 239.595 39.055,236.761 35.500,235.009 35.500 C 234.857 35.500,234.659 35.425,234.567 35.334 C 234.385 35.152,231.715 34.983,230.917 35.103 M264.250 35.104 C 262.237 35.404,260.233 36.969,259.301 38.968 C 258.019 41.717,258.338 46.804,259.917 48.790 C 261.643 50.962,265.732 52.124,268.058 51.103 C 268.347 50.976,268.846 50.774,269.167 50.654 C 269.487 50.534,269.787 50.393,269.833 50.341 C 269.879 50.289,270.198 50.060,270.542 49.832 C 270.886 49.603,271.210 49.285,271.261 49.125 C 271.313 48.965,271.424 48.833,271.508 48.833 C 271.788 48.833,272.364 47.480,272.261 47.067 C 271.946 45.812,269.526 45.879,268.437 47.173 C 268.196 47.459,267.999 47.630,267.997 47.554 C 267.996 47.479,267.928 47.522,267.846 47.652 C 267.623 48.004,266.175 48.502,265.417 48.487 C 263.971 48.459,262.454 46.930,262.227 45.273 L 262.121 44.500 267.135 44.500 C 272.858 44.500,272.670 44.551,272.663 43.005 C 272.659 42.003,272.363 39.989,272.186 39.763 C 272.109 39.664,271.997 39.379,271.938 39.129 C 271.732 38.270,270.302 36.452,269.675 36.253 C 269.487 36.193,269.333 36.081,269.333 36.003 C 269.333 35.534,265.688 34.889,264.250 35.104 M266.667 38.167 C 266.667 38.258,266.779 38.333,266.916 38.333 C 267.688 38.333,269.000 40.159,269.000 41.234 L 269.000 41.833 265.583 41.833 L 262.167 41.833 262.167 41.374 C 262.167 40.188,262.849 39.062,263.976 38.387 C 264.622 38.000,266.667 37.833,266.667 38.167 M201.691 38.570 C 202.399 38.865,202.697 39.198,203.191 40.250 C 203.706 41.344,203.769 45.234,203.286 46.083 C 203.130 46.358,203.002 46.647,203.001 46.725 C 202.999 46.981,202.010 47.797,201.475 47.984 C 199.552 48.654,197.658 47.865,196.787 46.029 C 196.380 45.172,196.232 41.114,196.598 40.865 C 196.692 40.802,196.874 40.487,197.003 40.167 C 197.281 39.477,198.209 38.549,198.721 38.449 C 199.562 38.285,201.167 38.350,201.691 38.570 M219.167 44.240 C 219.167 44.464,219.092 44.693,219.000 44.750 C 218.908 44.807,218.832 45.055,218.830 45.302 C 218.817 46.838,216.936 48.500,215.209 48.500 C 214.447 48.500,212.871 47.798,212.677 47.372 C 211.945 45.765,213.037 44.731,216.000 44.228 C 218.847 43.745,219.167 43.746,219.167 44.240 M278.621 64.015 C 278.417 64.070,277.651 64.168,276.920 64.234 C 276.188 64.300,275.363 64.456,275.087 64.579 C 274.810 64.703,274.300 64.893,273.953 65.000 C 272.528 65.443,270.214 67.207,269.665 68.269 C 269.529 68.534,269.371 68.787,269.314 68.833 C 269.098 69.007,268.369 70.608,268.251 71.167 C 268.184 71.487,268.069 71.825,267.997 71.917 C 267.752 72.228,267.501 75.075,267.500 77.542 L 267.500 80.000 264.228 80.000 C 259.671 80.000,259.401 80.201,259.525 83.511 C 259.624 86.159,259.628 86.161,264.206 86.164 L 267.495 86.167 267.539 101.829 L 267.583 117.491 267.963 117.870 C 268.326 118.234,268.457 118.250,271.001 118.250 L 273.659 118.250 274.121 117.788 L 274.583 117.326 274.628 101.746 L 274.673 86.167 282.337 86.167 L 290.000 86.167 290.000 101.827 L 290.000 117.487 290.358 117.820 C 291.195 118.600,295.719 118.551,296.457 117.754 L 296.917 117.258 296.917 91.171 L 296.917 65.083 296.500 64.648 C 295.590 63.697,291.398 63.633,290.375 64.554 L 290.000 64.891 290.000 72.446 L 290.000 80.000 282.333 80.000 L 274.667 80.000 274.667 77.490 C 274.667 74.226,275.196 72.370,276.403 71.406 C 276.685 71.180,277.002 70.926,277.105 70.843 C 277.556 70.479,278.960 70.288,281.972 70.182 L 285.194 70.069 285.693 69.497 L 286.193 68.925 286.138 67.004 C 286.079 64.924,285.909 64.496,285.000 64.139 C 284.543 63.960,279.216 63.857,278.621 64.015 M219.165 65.636 C 217.943 65.968,217.922 66.027,217.865 69.381 L 217.814 72.423 218.253 72.837 C 219.152 73.682,224.821 73.531,225.694 72.639 L 226.189 72.133 226.136 69.402 L 226.083 66.672 225.539 66.128 L 224.994 65.583 222.289 65.553 C 220.801 65.537,219.395 65.574,219.165 65.636 M185.413 66.988 C 184.260 67.265,184.054 67.538,183.084 70.083 C 182.660 71.196,182.103 72.634,181.536 74.083 C 181.392 74.450,181.143 75.053,180.983 75.422 C 180.822 75.792,180.638 76.317,180.573 76.589 C 180.507 76.861,180.399 77.158,180.332 77.250 C 180.265 77.342,180.116 77.717,180.001 78.083 C 179.886 78.450,179.649 79.069,179.475 79.458 C 179.301 79.848,179.113 80.392,179.058 80.667 C 179.003 80.942,178.902 81.167,178.833 81.167 C 178.765 81.167,178.663 81.392,178.608 81.667 C 178.553 81.942,178.355 82.504,178.167 82.917 C 177.979 83.329,177.780 83.892,177.725 84.167 C 177.670 84.442,177.565 84.667,177.492 84.667 C 177.419 84.667,177.306 84.910,177.241 85.208 C 177.176 85.506,176.982 86.011,176.811 86.331 C 176.640 86.650,176.500 87.011,176.500 87.132 C 176.500 87.253,176.355 87.669,176.179 88.057 C 176.002 88.444,175.804 88.984,175.739 89.256 C 175.674 89.528,175.556 89.833,175.476 89.935 C 175.345 90.103,174.953 91.150,174.455 92.667 C 174.350 92.987,174.219 93.287,174.164 93.333 C 174.110 93.379,173.815 94.129,173.510 95.000 C 173.204 95.871,172.899 96.658,172.831 96.750 C 172.763 96.842,172.655 97.104,172.592 97.333 C 172.528 97.563,172.298 98.200,172.082 98.750 C 171.865 99.300,171.490 100.275,171.249 100.917 C 171.008 101.558,170.711 102.308,170.589 102.583 C 170.468 102.858,170.317 103.327,170.254 103.625 C 170.192 103.923,170.081 104.167,170.008 104.167 C 169.935 104.167,169.830 104.392,169.775 104.667 C 169.720 104.942,169.521 105.504,169.333 105.917 C 169.145 106.329,168.947 106.892,168.892 107.167 C 168.837 107.442,168.735 107.667,168.667 107.667 C 168.598 107.667,168.497 107.892,168.442 108.167 C 168.387 108.442,168.195 108.988,168.016 109.381 C 167.837 109.774,167.637 110.317,167.571 110.589 C 167.504 110.861,167.349 111.231,167.225 111.412 C 167.101 111.593,167.000 111.837,167.000 111.956 C 167.000 112.074,166.861 112.488,166.691 112.877 C 165.379 115.877,165.204 116.970,165.902 117.782 L 166.305 118.250 169.056 118.250 C 171.942 118.250,172.667 118.044,172.667 117.221 C 172.667 117.099,172.735 117.000,172.818 117.000 C 172.901 117.000,173.065 116.625,173.183 116.167 C 173.300 115.708,173.448 115.333,173.511 115.333 C 173.574 115.333,173.670 115.108,173.725 114.833 C 173.780 114.558,173.977 114.000,174.162 113.592 C 174.348 113.185,174.500 112.806,174.500 112.750 C 174.500 112.694,174.645 112.331,174.821 111.943 C 174.998 111.556,175.197 111.016,175.264 110.744 C 175.331 110.472,175.479 110.100,175.593 109.917 C 175.707 109.733,175.851 109.340,175.914 109.042 C 175.976 108.744,176.090 108.500,176.167 108.500 C 176.244 108.500,176.358 108.256,176.420 107.958 C 176.482 107.660,176.640 107.248,176.770 107.042 L 177.008 106.667 188.713 106.667 L 200.419 106.667 200.621 107.125 C 200.732 107.377,200.914 107.844,201.024 108.163 C 201.135 108.481,201.324 108.931,201.445 109.163 C 201.566 109.394,201.665 109.652,201.666 109.737 C 201.667 109.902,202.372 111.749,202.762 112.609 C 202.893 112.897,203.003 113.197,203.006 113.275 C 203.009 113.353,203.156 113.717,203.333 114.083 C 203.510 114.450,203.658 114.865,203.661 115.005 C 203.664 115.145,203.772 115.409,203.900 115.593 C 204.029 115.776,204.215 116.224,204.313 116.588 C 204.734 118.138,205.425 118.397,208.902 118.306 L 211.032 118.250 211.432 117.750 C 211.927 117.130,211.953 116.188,211.500 115.250 C 211.323 114.883,211.175 114.457,211.172 114.302 C 211.169 114.146,211.102 113.980,211.024 113.931 C 210.945 113.883,210.596 113.035,210.248 112.047 C 209.900 111.058,209.558 110.174,209.487 110.081 C 209.416 109.988,209.269 109.557,209.159 109.123 C 209.050 108.689,208.904 108.333,208.834 108.333 C 208.765 108.333,208.663 108.108,208.608 107.833 C 208.553 107.558,208.356 107.000,208.171 106.592 C 207.985 106.185,207.833 105.803,207.833 105.743 C 207.833 105.683,207.731 105.397,207.606 105.109 C 207.481 104.820,207.173 104.021,206.921 103.333 C 206.669 102.646,206.322 101.775,206.148 101.398 C 205.975 101.022,205.833 100.653,205.833 100.578 C 205.833 100.428,205.111 98.546,204.738 97.725 C 204.607 97.436,204.500 97.115,204.500 97.011 C 204.500 96.831,203.912 95.334,203.406 94.225 C 203.274 93.936,203.167 93.652,203.167 93.595 C 203.167 93.459,201.556 89.248,201.240 88.558 C 201.108 88.269,201.000 87.975,201.000 87.905 C 201.000 87.783,200.319 85.971,200.003 85.250 C 199.922 85.067,199.766 84.617,199.655 84.250 C 199.543 83.883,199.351 83.435,199.226 83.255 C 199.102 83.074,199.000 82.811,198.999 82.671 C 198.998 82.531,198.901 82.229,198.783 82.000 C 198.664 81.771,198.313 80.871,198.003 80.000 C 197.692 79.129,197.388 78.379,197.326 78.333 C 197.265 78.287,197.114 77.856,196.992 77.375 C 196.870 76.894,196.719 76.500,196.656 76.500 C 196.593 76.500,196.497 76.275,196.442 76.000 C 196.387 75.725,196.188 75.163,196.000 74.750 C 195.812 74.337,195.613 73.775,195.558 73.500 C 195.503 73.225,195.405 73.000,195.340 73.000 C 195.275 73.000,195.220 72.906,195.218 72.792 C 195.213 72.579,194.177 69.845,193.741 68.891 C 193.608 68.603,193.500 68.298,193.500 68.214 C 193.500 67.890,192.506 67.133,191.894 66.991 C 191.136 66.815,186.144 66.813,185.413 66.988 M76.042 73.944 C 72.981 75.179,73.590 79.788,76.839 79.972 C 79.283 80.110,80.146 78.994,79.975 75.917 C 79.904 74.640,77.413 73.390,76.042 73.944 M188.936 75.792 C 188.997 76.044,189.101 76.325,189.168 76.417 C 189.235 76.508,189.384 76.883,189.498 77.250 C 189.613 77.617,189.773 77.988,189.853 78.075 C 189.934 78.162,190.000 78.352,190.000 78.498 C 190.000 78.644,190.142 79.041,190.315 79.381 C 190.489 79.721,190.681 80.203,190.744 80.452 C 190.807 80.701,190.994 81.208,191.160 81.578 C 191.326 81.947,191.514 82.494,191.578 82.792 C 191.641 83.090,191.746 83.333,191.810 83.333 C 191.875 83.333,192.032 83.688,192.160 84.121 C 192.288 84.555,192.491 85.099,192.612 85.330 C 192.733 85.561,192.878 85.994,192.934 86.292 C 192.991 86.590,193.094 86.833,193.164 86.833 C 193.234 86.833,193.337 87.058,193.392 87.333 C 193.447 87.608,193.635 88.152,193.809 88.542 C 193.984 88.931,194.183 89.438,194.251 89.667 C 194.319 89.896,194.430 90.158,194.497 90.250 C 194.565 90.342,194.674 90.639,194.739 90.911 C 194.804 91.183,194.997 91.710,195.167 92.083 C 195.337 92.456,195.530 92.984,195.597 93.256 C 195.663 93.528,195.763 93.787,195.817 93.833 C 195.872 93.879,196.081 94.404,196.282 95.000 C 196.483 95.596,196.765 96.364,196.909 96.708 C 197.053 97.051,197.151 97.358,197.127 97.390 C 197.103 97.422,197.165 97.554,197.266 97.683 C 197.366 97.811,197.545 98.275,197.664 98.713 C 197.782 99.150,197.944 99.549,198.023 99.597 C 198.884 100.129,198.270 100.167,188.647 100.167 L 179.128 100.167 179.235 99.792 C 179.293 99.585,179.386 99.210,179.442 98.958 C 179.497 98.706,179.598 98.500,179.668 98.500 C 179.737 98.500,179.880 98.156,179.987 97.735 C 180.093 97.314,180.283 96.807,180.411 96.610 C 180.538 96.412,180.693 95.969,180.756 95.625 C 180.819 95.281,180.930 95.000,181.002 95.000 C 181.074 95.000,181.223 94.625,181.333 94.167 C 181.443 93.708,181.591 93.333,181.662 93.333 C 181.734 93.333,181.837 93.108,181.892 92.833 C 181.947 92.558,182.144 92.000,182.329 91.592 C 182.515 91.185,182.669 90.754,182.672 90.634 C 182.675 90.515,182.823 90.117,183.000 89.750 C 183.177 89.383,183.325 89.023,183.328 88.949 C 183.331 88.875,183.478 88.498,183.654 88.110 C 183.831 87.722,184.029 87.183,184.094 86.911 C 184.159 86.639,184.268 86.342,184.335 86.250 C 184.402 86.158,184.551 85.783,184.667 85.417 C 184.782 85.050,184.934 84.675,185.005 84.583 C 185.075 84.492,185.252 84.013,185.397 83.520 C 185.542 83.027,185.727 82.540,185.808 82.437 C 185.888 82.334,186.007 82.028,186.073 81.756 C 186.138 81.484,186.336 80.944,186.512 80.557 C 186.689 80.169,186.833 79.739,186.833 79.602 C 186.833 79.465,186.906 79.308,186.995 79.253 C 187.085 79.198,187.242 78.837,187.345 78.451 C 187.448 78.066,187.677 77.431,187.854 77.042 C 188.030 76.652,188.220 76.108,188.275 75.833 C 188.400 75.207,188.791 75.183,188.936 75.792 M318.391 79.744 C 315.840 80.313,313.248 81.501,311.988 82.678 C 311.700 82.947,311.425 83.167,311.377 83.167 C 311.087 83.167,308.333 86.557,308.333 86.914 C 308.333 86.974,308.221 87.136,308.084 87.274 C 307.946 87.411,307.786 87.724,307.728 87.970 C 307.670 88.216,307.525 88.529,307.407 88.667 C 307.289 88.804,307.139 89.142,307.073 89.417 C 307.008 89.692,306.898 89.992,306.829 90.083 C 306.760 90.175,306.613 90.700,306.501 91.250 C 306.390 91.800,306.235 92.400,306.157 92.583 C 306.079 92.767,306.009 93.142,306.002 93.417 C 305.995 93.692,305.932 95.113,305.862 96.576 C 305.750 98.892,305.857 103.398,306.066 105.167 C 306.521 109.022,308.961 113.448,311.877 115.706 C 312.859 116.466,313.182 116.661,314.524 117.300 C 315.317 117.677,316.329 118.071,316.774 118.174 C 317.219 118.277,317.733 118.430,317.917 118.515 C 319.203 119.108,327.909 119.101,328.333 118.506 C 328.379 118.442,328.898 118.289,329.485 118.166 C 333.426 117.343,338.310 112.635,339.265 108.738 C 339.331 108.470,339.445 108.210,339.519 108.161 C 339.660 108.067,340.075 106.051,340.358 104.083 C 340.586 102.496,340.468 93.360,340.214 92.917 C 340.108 92.733,339.935 92.096,339.829 91.500 C 339.722 90.904,339.579 90.342,339.510 90.250 C 339.441 90.158,339.289 89.727,339.171 89.292 C 339.053 88.856,338.900 88.500,338.830 88.500 C 338.760 88.500,338.654 88.305,338.594 88.067 C 338.534 87.828,338.350 87.435,338.185 87.192 C 338.020 86.949,337.667 86.412,337.401 86.000 C 336.814 85.092,336.859 85.145,335.428 83.681 C 334.792 83.032,334.180 82.500,334.067 82.500 C 333.954 82.500,333.836 82.444,333.806 82.375 C 333.704 82.146,332.430 81.372,331.417 80.923 C 330.867 80.679,330.294 80.414,330.145 80.334 C 329.905 80.206,329.057 80.004,326.583 79.487 C 325.139 79.185,320.199 79.340,318.391 79.744 M219.056 80.295 C 218.137 81.028,218.166 80.406,218.169 99.145 C 218.172 118.205,218.134 117.491,219.187 118.048 C 220.232 118.600,224.325 118.398,224.990 117.760 L 225.500 117.271 225.500 99.153 L 225.500 81.035 224.911 80.517 L 224.322 80.000 221.869 80.004 C 219.800 80.007,219.360 80.052,219.056 80.295 M236.797 80.290 C 236.548 80.444,236.299 80.779,236.243 81.033 C 236.187 81.288,236.072 81.539,235.987 81.591 C 235.638 81.807,235.798 116.389,236.151 117.215 C 236.571 118.194,237.009 118.333,239.667 118.333 C 243.695 118.333,243.333 119.636,243.333 105.133 C 243.333 98.680,243.398 93.329,243.476 93.242 C 243.555 93.155,243.715 92.615,243.832 92.043 C 243.949 91.472,244.147 90.919,244.272 90.815 C 244.398 90.711,244.500 90.533,244.500 90.419 C 244.500 89.903,247.024 87.502,247.571 87.499 C 247.669 87.498,247.969 87.384,248.236 87.244 C 248.989 86.852,250.656 86.675,253.750 86.658 C 257.699 86.636,257.992 86.400,257.997 83.234 C 258.002 80.357,257.544 79.997,253.882 80.007 C 252.434 80.011,250.912 80.090,250.500 80.182 C 250.088 80.274,249.387 80.425,248.943 80.518 C 247.428 80.836,245.697 81.801,244.430 83.035 L 243.250 84.184 243.167 82.717 C 243.025 80.230,242.709 79.998,239.467 80.004 C 237.684 80.008,237.161 80.064,236.797 80.290 M346.292 80.293 C 345.384 80.856,345.560 82.912,346.793 86.167 C 346.914 86.487,346.904 86.452,347.145 87.333 C 347.258 87.746,347.395 88.196,347.450 88.333 C 347.506 88.471,347.563 88.658,347.577 88.750 C 347.591 88.842,347.654 89.029,347.718 89.167 C 347.836 89.422,348.094 90.303,348.571 92.083 C 348.719 92.633,348.901 93.196,348.977 93.333 C 349.053 93.471,349.212 93.996,349.329 94.500 C 349.447 95.004,349.599 95.492,349.667 95.583 C 349.734 95.675,349.884 96.162,350.000 96.667 C 350.116 97.171,350.266 97.658,350.333 97.750 C 350.401 97.842,350.551 98.329,350.667 98.833 C 350.782 99.337,350.932 99.825,351.000 99.917 C 351.068 100.008,351.218 100.496,351.333 101.000 C 351.449 101.504,351.599 101.992,351.667 102.083 C 351.734 102.175,351.884 102.662,352.000 103.167 C 352.116 103.671,352.266 104.158,352.333 104.250 C 352.401 104.342,352.552 104.829,352.669 105.333 C 352.786 105.837,352.932 106.287,352.993 106.333 C 353.054 106.379,353.201 106.867,353.321 107.417 C 353.440 107.967,353.594 108.492,353.663 108.583 C 353.733 108.675,353.884 109.162,354.000 109.667 C 354.116 110.171,354.266 110.658,354.333 110.750 C 354.401 110.842,354.551 111.329,354.667 111.833 C 354.782 112.337,354.961 112.855,355.063 112.984 C 355.166 113.113,355.226 113.225,355.198 113.234 C 355.169 113.243,355.182 113.362,355.226 113.500 C 355.271 113.638,355.398 114.162,355.509 114.667 C 355.620 115.171,355.765 115.658,355.832 115.750 C 355.899 115.842,356.008 116.142,356.073 116.417 C 356.444 117.970,357.420 118.395,360.411 118.306 C 363.124 118.225,363.946 117.617,364.422 115.339 C 364.488 115.021,364.602 114.646,364.676 114.505 C 364.749 114.365,365.043 113.500,365.329 112.583 C 365.614 111.667,365.908 110.804,365.982 110.667 C 366.055 110.529,366.212 110.004,366.329 109.500 C 366.447 108.996,366.601 108.508,366.672 108.417 C 366.743 108.325,366.886 107.912,366.991 107.500 C 367.095 107.087,367.245 106.600,367.324 106.417 C 367.402 106.233,367.857 104.846,368.333 103.333 C 368.810 101.821,369.295 100.358,369.411 100.083 C 369.527 99.807,369.678 99.320,369.747 98.999 C 369.816 98.679,369.941 98.331,370.025 98.226 C 370.109 98.121,370.164 97.971,370.146 97.893 C 370.128 97.814,370.161 97.638,370.218 97.500 C 370.427 97.001,371.127 94.736,371.248 94.167 C 371.316 93.846,371.433 93.507,371.507 93.414 C 371.581 93.322,371.734 92.872,371.847 92.414 C 372.097 91.399,372.500 90.703,372.500 91.286 C 372.500 91.485,372.576 91.694,372.669 91.752 C 372.763 91.809,372.794 91.929,372.738 92.019 C 372.683 92.108,372.708 92.272,372.793 92.382 C 372.878 92.493,373.047 92.958,373.167 93.417 C 373.287 93.875,373.435 94.325,373.497 94.417 C 373.558 94.508,373.700 94.921,373.812 95.333 C 373.924 95.746,374.080 96.233,374.159 96.417 C 374.415 97.011,374.845 98.392,375.106 99.458 C 375.246 100.031,375.417 100.500,375.487 100.500 C 375.557 100.500,375.709 100.931,375.825 101.458 C 375.942 101.985,376.093 102.492,376.161 102.583 C 376.229 102.675,376.377 103.124,376.488 103.581 C 376.600 104.038,376.752 104.488,376.826 104.581 C 376.901 104.674,377.016 105.013,377.082 105.333 C 377.148 105.654,377.298 106.142,377.416 106.417 C 377.534 106.692,377.725 107.292,377.841 107.750 C 377.957 108.208,378.103 108.658,378.167 108.750 C 378.230 108.842,378.380 109.292,378.500 109.750 C 378.620 110.208,378.773 110.658,378.841 110.750 C 378.908 110.842,379.058 111.348,379.175 111.875 C 379.291 112.402,379.438 112.833,379.500 112.833 C 379.562 112.833,379.709 113.265,379.825 113.792 C 379.942 114.319,380.123 114.855,380.227 114.984 C 380.331 115.113,380.400 115.263,380.380 115.317 C 380.305 115.518,380.690 116.687,381.007 117.224 C 381.549 118.143,381.932 118.250,384.680 118.250 C 387.782 118.250,388.284 117.954,388.831 115.802 C 388.932 115.407,389.083 114.933,389.167 114.750 C 389.252 114.567,389.433 114.004,389.569 113.500 C 389.706 112.996,389.980 112.058,390.178 111.417 C 390.377 110.775,390.662 109.800,390.811 109.250 C 390.961 108.700,391.128 108.212,391.184 108.167 C 391.239 108.121,391.377 107.671,391.490 107.167 C 391.603 106.662,391.794 106.025,391.914 105.750 C 392.034 105.475,392.181 104.987,392.242 104.667 C 392.303 104.346,392.417 103.933,392.495 103.750 C 392.671 103.339,393.124 101.861,394.588 96.917 C 394.832 96.092,395.074 95.304,395.125 95.167 C 395.177 95.029,395.204 94.823,395.186 94.708 C 395.167 94.594,395.215 94.500,395.293 94.500 C 395.370 94.500,395.530 94.031,395.648 93.458 C 395.766 92.885,395.921 92.342,395.993 92.250 C 396.064 92.158,396.218 91.671,396.333 91.167 C 396.449 90.662,396.602 90.175,396.673 90.083 C 396.744 89.992,396.894 89.448,397.006 88.875 C 397.118 88.302,397.267 87.833,397.336 87.833 C 397.406 87.833,397.554 87.346,397.667 86.750 C 397.779 86.154,397.927 85.667,397.996 85.667 C 398.065 85.667,398.219 85.198,398.339 84.625 C 398.458 84.052,398.612 83.546,398.680 83.499 C 398.919 83.337,399.131 81.635,398.978 81.105 C 398.687 80.096,398.284 79.969,395.565 80.029 L 393.142 80.083 392.664 80.667 C 392.400 80.987,392.136 81.537,392.076 81.889 C 392.015 82.240,391.862 82.727,391.734 82.972 C 391.606 83.217,391.502 83.583,391.501 83.785 C 391.500 83.988,391.356 84.551,391.180 85.035 C 391.004 85.520,390.807 86.177,390.742 86.495 C 390.677 86.812,390.560 87.187,390.482 87.328 C 390.403 87.468,390.225 88.015,390.086 88.542 C 389.947 89.069,389.719 89.931,389.580 90.458 C 389.441 90.985,389.251 91.551,389.158 91.715 C 389.065 91.879,389.030 92.080,389.080 92.162 C 389.131 92.244,389.100 92.355,389.012 92.409 C 388.924 92.463,388.802 92.844,388.740 93.256 C 388.679 93.667,388.561 94.046,388.478 94.097 C 388.395 94.148,388.373 94.263,388.428 94.352 C 388.484 94.441,388.456 94.605,388.366 94.716 C 388.277 94.826,388.108 95.348,387.992 95.875 C 387.876 96.402,387.731 96.833,387.671 96.833 C 387.610 96.833,387.463 97.340,387.342 97.958 C 387.222 98.577,387.071 99.158,387.007 99.250 C 386.832 99.503,386.500 100.742,386.500 101.144 C 386.500 101.340,386.435 101.500,386.356 101.500 C 386.277 101.500,386.114 101.969,385.995 102.542 C 385.875 103.115,385.726 103.621,385.663 103.667 C 385.600 103.712,385.430 104.237,385.285 104.833 C 384.377 108.562,384.329 108.654,384.015 107.253 C 383.903 106.750,383.752 106.302,383.679 106.258 C 383.607 106.213,383.452 105.724,383.334 105.172 C 383.217 104.619,383.065 104.167,382.996 104.167 C 382.927 104.167,382.823 103.846,382.764 103.454 C 382.706 103.062,382.557 102.548,382.434 102.311 C 382.312 102.075,382.117 101.477,382.001 100.982 C 381.885 100.488,381.727 100.003,381.650 99.905 C 381.573 99.807,381.423 99.320,381.317 98.822 C 381.211 98.324,381.074 97.879,381.013 97.833 C 380.908 97.755,380.669 97.003,380.060 94.833 C 379.918 94.329,379.745 93.842,379.674 93.750 C 379.604 93.658,379.495 93.358,379.433 93.083 C 379.244 92.240,378.478 89.780,378.232 89.225 C 378.105 88.936,378.000 88.595,378.000 88.467 C 378.000 88.339,377.776 87.600,377.503 86.825 C 377.230 86.051,377.005 85.248,377.003 85.042 C 377.001 84.835,376.925 84.667,376.833 84.667 C 376.742 84.667,376.667 84.564,376.667 84.439 C 376.667 83.625,375.594 81.043,375.048 80.542 L 374.458 80.000 372.433 80.000 C 369.957 80.000,369.159 80.400,368.902 81.771 C 368.844 82.080,368.739 82.333,368.670 82.333 C 368.600 82.333,368.452 82.802,368.339 83.375 C 368.227 83.948,368.075 84.492,368.001 84.583 C 367.927 84.675,367.781 85.087,367.677 85.500 C 367.573 85.912,367.383 86.513,367.255 86.833 C 367.128 87.154,366.825 88.092,366.583 88.917 C 366.341 89.742,366.045 90.642,365.927 90.917 C 365.808 91.193,365.655 91.680,365.586 92.001 C 365.518 92.321,365.405 92.658,365.336 92.750 C 365.267 92.842,365.116 93.329,365.000 93.833 C 364.884 94.337,364.725 94.832,364.646 94.932 C 364.567 95.032,364.541 95.152,364.588 95.199 C 364.634 95.246,364.559 95.501,364.421 95.767 C 364.282 96.033,364.168 96.345,364.168 96.461 C 364.167 96.576,364.093 96.801,364.003 96.961 C 363.772 97.369,363.261 99.208,363.308 99.458 C 363.330 99.573,363.280 99.667,363.197 99.667 C 363.114 99.667,362.950 100.117,362.833 100.667 C 362.717 101.217,362.568 101.667,362.504 101.667 C 362.439 101.667,362.291 102.098,362.175 102.625 C 362.058 103.152,361.905 103.658,361.833 103.750 C 361.762 103.842,361.608 104.348,361.492 104.875 C 361.376 105.402,361.227 105.833,361.163 105.833 C 361.098 105.833,360.950 106.286,360.832 106.838 C 360.566 108.093,360.399 108.208,360.167 107.297 C 360.068 106.904,359.916 106.433,359.829 106.250 C 359.743 106.067,359.592 105.545,359.494 105.090 C 359.396 104.636,359.258 104.186,359.186 104.090 C 359.114 103.995,358.959 103.467,358.842 102.917 C 358.725 102.367,358.571 101.842,358.500 101.750 C 358.429 101.658,358.273 101.133,358.154 100.583 C 358.035 100.033,357.891 99.546,357.833 99.500 C 357.776 99.454,357.632 98.967,357.513 98.417 C 357.394 97.867,357.238 97.342,357.166 97.250 C 357.095 97.158,356.945 96.633,356.833 96.083 C 356.722 95.533,356.573 95.008,356.504 94.917 C 356.434 94.825,356.282 94.337,356.167 93.833 C 356.051 93.329,355.899 92.842,355.830 92.750 C 355.760 92.658,355.615 92.154,355.507 91.628 C 355.399 91.103,355.211 90.466,355.088 90.212 C 354.965 89.958,354.811 89.412,354.745 89.000 C 354.680 88.587,354.576 88.212,354.514 88.167 C 354.453 88.121,354.264 87.484,354.094 86.751 C 353.925 86.019,353.727 85.306,353.655 85.168 C 353.502 84.874,353.061 83.458,352.732 82.204 C 352.222 80.256,351.771 79.998,348.883 80.004 C 347.169 80.008,346.660 80.065,346.292 80.293 M325.496 85.511 C 326.090 85.607,326.615 85.742,326.663 85.810 C 326.711 85.877,327.069 86.026,327.458 86.140 C 327.848 86.254,328.167 86.419,328.167 86.507 C 328.167 86.595,328.266 86.667,328.388 86.667 C 328.717 86.667,330.431 88.264,330.859 88.969 C 331.065 89.307,331.274 89.621,331.325 89.667 C 331.741 90.044,332.490 92.105,332.869 93.917 C 333.094 94.992,333.092 103.325,332.867 104.417 C 331.850 109.344,329.433 111.983,325.144 112.848 C 323.255 113.229,322.896 113.215,320.250 112.652 C 318.578 112.296,315.500 110.271,315.500 109.527 C 315.500 109.449,315.351 109.250,315.169 109.085 C 314.987 108.920,314.747 108.534,314.635 108.226 C 314.524 107.918,314.378 107.667,314.312 107.667 C 314.245 107.667,314.096 107.235,313.981 106.708 C 313.865 106.181,313.713 105.710,313.642 105.661 C 313.233 105.378,313.023 97.985,313.333 94.796 C 313.543 92.637,314.363 90.145,315.120 89.363 C 315.237 89.242,315.333 89.091,315.333 89.028 C 315.333 88.896,316.504 87.706,317.250 87.081 C 317.525 86.850,318.087 86.505,318.500 86.315 C 318.912 86.125,319.400 85.900,319.583 85.815 C 320.566 85.358,323.592 85.202,325.496 85.511 " stroke="none" fill="#53534c" fill-rule="evenodd"></path><path id="path5" d="M46.542 45.248 C 46.244 45.378,46.000 45.521,46.000 45.567 C 46.000 45.612,46.244 45.551,46.542 45.430 C 46.840 45.309,47.196 45.169,47.333 45.118 C 47.556 45.037,47.556 45.026,47.333 45.020 C 47.196 45.016,46.840 45.119,46.542 45.248 M50.078 45.257 C 50.533 45.382,50.933 45.455,50.968 45.421 C 51.052 45.337,49.821 44.998,49.500 45.016 C 49.362 45.024,49.622 45.132,50.078 45.257 M108.006 45.259 C 108.012 45.427,108.831 46.481,108.833 46.324 C 108.833 46.273,108.646 45.977,108.417 45.667 C 108.188 45.356,108.003 45.173,108.006 45.259 M55.917 48.078 C 56.420 48.519,57.000 48.897,57.000 48.784 C 57.000 48.751,56.644 48.479,56.208 48.182 C 55.609 47.772,55.538 47.747,55.917 48.078 M109.212 48.333 C 109.212 48.746,109.245 48.915,109.284 48.708 C 109.324 48.502,109.324 48.165,109.284 47.958 C 109.245 47.752,109.212 47.921,109.212 48.333 M58.583 50.110 C 59.823 51.359,62.486 53.804,61.667 52.940 C 61.163 52.408,60.150 51.441,59.417 50.790 C 58.683 50.138,58.308 49.832,58.583 50.110 M63.083 54.667 C 63.441 55.033,63.772 55.333,63.818 55.333 C 63.863 55.333,63.608 55.033,63.250 54.667 C 62.892 54.300,62.562 54.000,62.516 54.000 C 62.470 54.000,62.725 54.300,63.083 54.667 M105.667 56.500 C 105.471 56.775,105.348 57.000,105.394 57.000 C 105.440 57.000,105.638 56.775,105.833 56.500 C 106.029 56.225,106.152 56.000,106.106 56.000 C 106.060 56.000,105.862 56.225,105.667 56.500 M66.833 59.333 C 67.029 59.608,67.227 59.833,67.273 59.833 C 67.319 59.833,67.196 59.608,67.000 59.333 C 66.804 59.058,66.606 58.833,66.561 58.833 C 66.515 58.833,66.638 59.058,66.833 59.333 M101.747 61.042 L 100.250 62.583 101.792 61.087 C 103.224 59.697,103.409 59.500,103.288 59.500 C 103.263 59.500,102.570 60.194,101.747 61.042 M97.583 64.776 C 96.870 65.430,96.848 65.466,97.433 65.026 C 98.050 64.562,98.636 63.990,98.479 64.006 C 98.445 64.010,98.042 64.356,97.583 64.776 M70.812 65.250 C 70.902 65.433,71.098 65.733,71.247 65.917 L 71.518 66.250 71.355 65.917 C 71.265 65.733,71.069 65.433,70.920 65.250 L 70.648 64.917 70.812 65.250 M71.750 66.833 C 71.892 67.108,72.046 67.333,72.092 67.333 C 72.138 67.333,72.059 67.108,71.917 66.833 C 71.774 66.558,71.621 66.333,71.575 66.333 C 71.529 66.333,71.608 66.558,71.750 66.833 M72.417 68.000 C 72.559 68.275,72.713 68.500,72.759 68.500 C 72.804 68.500,72.726 68.275,72.583 68.000 C 72.441 67.725,72.287 67.500,72.241 67.500 C 72.196 67.500,72.274 67.725,72.417 68.000 M73.250 69.500 C 73.392 69.775,73.546 70.000,73.592 70.000 C 73.638 70.000,73.559 69.775,73.417 69.500 C 73.274 69.225,73.121 69.000,73.075 69.000 C 73.029 69.000,73.108 69.225,73.250 69.500 M84.958 73.095 C 84.335 73.433,84.373 73.574,85.000 73.250 C 85.275 73.108,85.500 72.956,85.500 72.912 C 85.500 72.805,85.482 72.811,84.958 73.095 M81.000 75.167 C 80.679 75.342,80.477 75.489,80.550 75.493 C 80.727 75.502,81.667 75.013,81.667 74.912 C 81.667 74.803,81.657 74.807,81.000 75.167 " stroke="none" fill="#728494" fill-rule="evenodd"></path><path id="path6" d="M48.127 44.951 C 48.334 44.991,48.634 44.990,48.794 44.948 C 48.953 44.906,48.783 44.874,48.417 44.875 C 48.050 44.877,47.920 44.911,48.127 44.951 M108.528 46.401 C 108.730 46.818,108.926 47.130,108.962 47.093 C 109.052 47.004,108.498 45.852,108.309 45.735 C 108.227 45.684,108.325 45.984,108.528 46.401 M109.050 48.333 C 109.050 48.837,109.081 49.044,109.119 48.792 C 109.158 48.540,109.158 48.127,109.119 47.875 C 109.081 47.623,109.050 47.829,109.050 48.333 M108.611 50.611 C 108.462 51.134,108.372 51.594,108.410 51.633 C 108.449 51.671,108.604 51.276,108.756 50.756 C 108.907 50.235,108.997 49.775,108.956 49.734 C 108.915 49.693,108.760 50.088,108.611 50.611 M107.500 53.333 C 107.222 53.883,107.033 54.333,107.079 54.333 C 107.124 54.333,107.389 53.883,107.667 53.333 C 107.944 52.783,108.134 52.333,108.088 52.333 C 108.042 52.333,107.778 52.783,107.500 53.333 M106.709 54.708 C 106.618 54.823,106.455 55.104,106.346 55.333 C 106.116 55.818,106.533 55.371,106.851 54.792 C 107.037 54.454,106.951 54.403,106.709 54.708 M104.562 57.708 C 102.856 59.822,97.482 65.000,96.993 65.000 C 96.925 65.000,96.824 65.117,96.769 65.261 C 96.465 66.053,102.476 60.473,104.232 58.333 C 105.571 56.702,105.724 56.500,105.623 56.500 C 105.576 56.500,105.099 57.044,104.562 57.708 M94.882 66.633 C 94.404 66.972,94.010 67.311,94.007 67.385 C 93.999 67.536,95.411 66.558,95.695 66.216 C 95.965 65.890,95.831 65.959,94.882 66.633 M93.310 67.843 C 92.937 68.167,92.936 68.176,93.282 68.009 C 93.484 67.911,93.694 67.757,93.751 67.666 C 93.914 67.401,93.735 67.473,93.310 67.843 M91.875 68.764 C 90.930 69.402,90.683 69.706,91.503 69.222 C 92.056 68.895,92.965 68.180,92.833 68.176 C 92.787 68.174,92.356 68.439,91.875 68.764 M90.310 69.843 C 89.937 70.167,89.936 70.176,90.282 70.009 C 90.484 69.911,90.694 69.757,90.751 69.666 C 90.914 69.401,90.735 69.473,90.310 69.843 M88.794 70.715 C 88.268 71.009,87.837 71.311,87.836 71.384 C 87.833 71.515,88.690 71.046,89.514 70.467 C 90.143 70.025,89.840 70.129,88.794 70.715 M87.000 71.848 C 86.723 72.075,86.695 72.131,86.917 72.017 C 87.460 71.736,87.762 71.505,87.583 71.506 C 87.492 71.507,87.229 71.661,87.000 71.848 M83.791 73.567 C 82.485 74.309,82.358 74.489,83.583 73.860 C 84.730 73.272,85.156 73.001,84.917 73.013 C 84.825 73.018,84.319 73.267,83.791 73.567 M82.042 74.505 C 81.835 74.588,81.667 74.696,81.667 74.745 C 81.667 74.906,81.932 74.837,82.260 74.589 C 82.629 74.310,82.577 74.290,82.042 74.505 M79.812 75.366 C 79.986 75.596,80.100 75.614,80.430 75.464 C 80.653 75.362,80.803 75.248,80.765 75.209 C 80.727 75.171,80.550 75.217,80.373 75.312 C 80.143 75.435,79.987 75.427,79.825 75.284 C 79.637 75.117,79.635 75.130,79.812 75.366 " stroke="none" fill="#ac8c7c" fill-rule="evenodd"></path><path id="path7" d="M74.808 74.792 C 74.481 75.135,74.168 75.567,74.112 75.750 L 74.009 76.083 74.213 75.750 C 74.325 75.567,74.701 75.135,75.049 74.792 C 75.396 74.448,75.618 74.167,75.541 74.167 C 75.464 74.167,75.134 74.448,74.808 74.792 M80.014 76.000 C 80.019 76.137,80.088 76.400,80.167 76.583 L 80.310 76.917 80.319 76.583 C 80.324 76.400,80.256 76.137,80.167 76.000 C 80.023 75.778,80.006 75.778,80.014 76.000 M73.881 77.083 C 73.882 77.542,73.915 77.709,73.953 77.456 C 73.991 77.203,73.990 76.828,73.951 76.623 C 73.911 76.418,73.880 76.625,73.881 77.083 M80.167 77.311 C 80.167 77.512,80.055 77.956,79.917 78.297 C 79.699 78.840,79.699 78.877,79.915 78.596 C 80.193 78.236,80.429 77.206,80.270 77.048 C 80.213 76.991,80.167 77.109,80.167 77.311 M79.240 79.236 C 79.063 79.366,78.961 79.517,79.015 79.571 C 79.069 79.625,79.249 79.518,79.416 79.334 C 79.770 78.943,79.697 78.902,79.240 79.236 " stroke="none" fill="#3c6464" fill-rule="evenodd"></path><path id="path8" d="M218.933 40.444 C 219.087 41.083,219.167 41.143,219.167 40.621 C 219.167 40.382,219.089 40.138,218.993 40.079 C 218.880 40.009,218.859 40.135,218.933 40.444 M225.232 43.250 C 225.233 44.533,225.259 45.036,225.291 44.368 C 225.322 43.699,225.322 42.649,225.290 42.034 C 225.258 41.420,225.232 41.967,225.232 43.250 M258.524 41.333 C 258.508 41.563,258.454 41.938,258.403 42.167 C 258.323 42.526,258.336 42.542,258.499 42.288 C 258.602 42.126,258.657 41.751,258.620 41.455 C 258.568 41.036,258.547 41.009,258.524 41.333 M258.362 43.750 C 258.357 44.025,258.415 44.550,258.490 44.917 C 258.610 45.497,258.630 45.518,258.638 45.083 C 258.643 44.808,258.585 44.283,258.510 43.917 C 258.390 43.337,258.370 43.315,258.362 43.750 M219.023 44.028 C 219.010 44.181,218.951 44.443,218.892 44.611 C 218.809 44.847,218.831 44.874,218.990 44.728 C 219.103 44.624,219.161 44.361,219.120 44.144 C 219.079 43.927,219.035 43.875,219.023 44.028 M280.701 63.957 C 281.316 63.989,282.366 63.989,283.034 63.957 C 283.703 63.926,283.200 63.899,281.917 63.899 C 280.633 63.899,280.086 63.925,280.701 63.957 M292.375 63.956 C 292.902 63.990,293.765 63.990,294.292 63.956 C 294.819 63.923,294.387 63.896,293.333 63.896 C 292.279 63.896,291.848 63.923,292.375 63.956 M289.910 72.583 C 289.910 76.708,289.932 78.372,289.958 76.280 C 289.985 74.189,289.985 70.814,289.958 68.780 C 289.932 66.747,289.910 68.458,289.910 72.583 M217.734 69.417 C 217.734 70.883,217.760 71.461,217.791 70.700 C 217.822 69.940,217.822 68.740,217.790 68.034 C 217.759 67.328,217.734 67.950,217.734 69.417 M281.049 70.291 C 281.764 70.322,282.889 70.322,283.549 70.290 C 284.210 70.259,283.625 70.233,282.250 70.233 C 280.875 70.234,280.335 70.259,281.049 70.291 M267.539 74.000 C 267.539 74.321,267.573 74.452,267.615 74.292 C 267.657 74.131,267.657 73.869,267.615 73.708 C 267.573 73.548,267.539 73.679,267.539 74.000 M75.767 80.027 C 75.970 80.355,78.334 80.351,78.333 80.023 C 78.333 79.965,77.740 79.917,77.015 79.917 C 76.291 79.917,75.729 79.966,75.767 80.027 M345.539 81.667 C 345.539 81.987,345.573 82.119,345.615 81.958 C 345.657 81.798,345.657 81.535,345.615 81.375 C 345.573 81.215,345.539 81.346,345.539 81.667 M353.028 83.342 C 353.125 83.622,353.236 83.819,353.274 83.782 C 353.356 83.699,353.042 82.833,352.929 82.833 C 352.886 82.833,352.930 83.062,353.028 83.342 M289.913 101.667 C 289.913 110.237,289.934 113.744,289.958 109.458 C 289.983 105.173,289.983 98.160,289.958 93.875 C 289.934 89.590,289.913 93.096,289.913 101.667 M332.872 94.833 C 332.872 95.154,332.906 95.285,332.948 95.125 C 332.990 94.965,332.990 94.702,332.948 94.542 C 332.906 94.381,332.872 94.513,332.872 94.833 M305.728 96.833 C 305.728 97.796,305.756 98.190,305.790 97.708 C 305.823 97.227,305.823 96.440,305.790 95.958 C 305.756 95.477,305.728 95.871,305.728 96.833 M305.728 101.500 C 305.728 102.462,305.756 102.856,305.790 102.375 C 305.823 101.894,305.823 101.106,305.790 100.625 C 305.756 100.144,305.728 100.537,305.728 101.500 " stroke="none" fill="#445c4c" fill-rule="evenodd"></path></g></svg>