<svg id="svg" version="1.1" xmlns="http://www.w3.org/2000/svg" xmlns:xlink="http://www.w3.org/1999/xlink" width="400" height="270.3333333333333" viewBox="0, 0, 400,270.3333333333333"><g id="svgg"><path id="path0" d="M61.799 52.110 C 59.661 52.303,56.955 52.764,56.675 52.984 C 56.518 53.107,55.751 53.416,54.970 53.671 C 54.189 53.926,53.550 54.246,53.550 54.383 C 53.550 54.520,53.357 54.632,53.122 54.632 C 52.641 54.632,50.005 56.286,48.909 57.276 C 46.085 59.825,45.038 61.077,43.678 63.528 C 43.381 64.064,43.053 64.541,42.950 64.588 C 42.848 64.634,42.558 65.304,42.306 66.075 C 42.055 66.847,41.748 67.606,41.625 67.763 C 39.556 70.398,40.605 81.829,43.326 86.304 C 43.743 86.990,44.084 87.690,44.084 87.860 C 44.084 88.029,44.202 88.168,44.347 88.168 C 44.492 88.168,44.790 88.502,45.009 88.911 C 45.228 89.320,46.072 90.325,46.884 91.143 C 49.158 93.434,49.624 93.847,49.934 93.847 C 50.091 93.847,50.452 94.104,50.736 94.417 C 51.285 95.025,55.375 97.093,56.027 97.093 C 56.241 97.093,56.532 97.204,56.673 97.341 C 57.896 98.524,68.225 98.449,70.994 97.237 C 71.440 97.042,72.110 96.790,72.481 96.678 C 73.436 96.390,76.490 94.746,76.979 94.256 C 77.204 94.031,77.499 93.847,77.636 93.847 C 78.027 93.847,82.434 89.306,82.624 88.707 C 82.718 88.410,82.888 88.168,83.001 88.168 C 83.114 88.168,83.500 87.529,83.859 86.748 C 84.218 85.967,84.589 85.267,84.685 85.193 C 84.909 85.018,85.734 82.584,85.734 82.096 C 85.734 81.890,85.852 81.681,85.996 81.632 C 86.989 81.291,87.022 69.837,86.034 68.581 C 85.908 68.421,85.589 67.620,85.324 66.802 C 85.059 65.984,84.754 65.254,84.646 65.179 C 84.538 65.105,84.176 64.405,83.841 63.624 C 83.507 62.843,83.129 62.204,83.003 62.204 C 82.876 62.204,82.594 61.859,82.376 61.437 C 81.941 60.595,79.255 57.787,78.066 56.930 C 77.653 56.633,77.104 56.207,76.846 55.984 C 76.300 55.512,72.662 53.705,71.670 53.412 C 71.298 53.303,70.870 53.115,70.718 52.995 C 70.083 52.490,64.131 51.901,61.799 52.110 " stroke="none" fill="#6772d2" fill-rule="evenodd"></path><path id="path1" d="M271.712 56.677 C 257.277 59.915,251.592 76.840,261.286 87.716 C 272.772 100.601,294.228 92.417,294.251 75.142 C 294.266 63.537,282.845 54.180,271.712 56.677 " stroke="none" fill="#d1574f" fill-rule="evenodd"></path><path id="path2" d="M297.904 5.538 C 296.312 6.085,293.883 6.764,293.607 6.738 C 293.475 6.725,293.292 6.825,293.201 6.960 C 293.110 7.094,292.437 7.491,291.704 7.841 C 290.972 8.191,290.158 8.670,289.896 8.904 C 289.634 9.139,289.087 9.574,288.681 9.872 C 287.506 10.732,284.246 13.972,284.246 14.280 C 284.246 14.434,284.148 14.600,284.029 14.650 C 283.677 14.796,281.909 17.894,281.508 19.067 C 281.305 19.662,281.035 20.224,280.908 20.316 C 280.605 20.537,279.940 23.666,279.928 24.933 C 279.923 25.482,279.815 25.996,279.689 26.074 C 279.563 26.152,279.459 27.137,279.459 28.262 C 279.459 29.388,279.563 30.373,279.689 30.451 C 279.815 30.529,279.919 30.948,279.919 31.381 C 279.919 32.482,280.779 36.342,281.068 36.538 C 281.200 36.627,281.338 36.871,281.377 37.079 C 281.415 37.287,281.655 37.884,281.910 38.404 C 282.984 40.595,283.453 41.379,283.689 41.379 C 283.827 41.379,284.020 41.634,284.119 41.945 C 284.409 42.859,288.406 46.648,290.253 47.760 C 291.189 48.323,292.043 48.913,292.153 49.071 C 292.262 49.229,292.353 49.273,292.356 49.170 C 292.358 49.066,293.011 49.270,293.807 49.622 C 298.449 51.675,306.765 51.950,310.217 50.165 C 310.644 49.944,311.107 49.763,311.245 49.763 C 311.834 49.763,314.869 48.132,316.529 46.924 C 318.133 45.756,321.534 42.193,322.137 41.048 C 322.315 40.710,322.542 40.372,322.642 40.297 C 323.029 40.008,324.534 36.431,324.862 35.022 C 325.052 34.205,325.271 33.536,325.349 33.536 C 325.614 33.536,325.720 32.054,325.726 28.262 C 325.733 24.704,325.650 23.698,325.269 22.718 C 325.182 22.495,324.981 21.804,324.822 21.182 C 324.357 19.363,322.036 15.018,320.868 13.778 C 320.509 13.398,320.216 12.942,320.216 12.764 C 320.216 12.586,320.054 12.441,319.856 12.441 C 319.658 12.441,319.334 12.137,319.135 11.765 C 318.936 11.393,318.655 11.089,318.511 11.089 C 318.368 11.089,317.985 10.815,317.661 10.480 C 316.969 9.766,316.213 9.243,315.551 9.021 C 315.291 8.933,315.078 8.775,315.078 8.669 C 315.078 8.563,314.439 8.183,313.658 7.825 C 312.877 7.466,312.175 7.089,312.098 6.986 C 312.022 6.883,311.170 6.596,310.205 6.349 C 309.241 6.101,308.208 5.759,307.911 5.588 C 307.082 5.111,299.257 5.072,297.904 5.538 " stroke="none" fill="#56a644" fill-rule="evenodd"></path><path id="path3" d="M328.600 52.114 C 326.517 52.272,323.640 52.749,323.341 52.986 C 323.185 53.111,322.752 53.304,322.380 53.415 C 319.827 54.176,316.422 56.287,314.166 58.507 C 312.826 59.826,310.480 62.588,310.480 62.847 C 310.480 62.946,310.188 63.489,309.831 64.054 C 309.474 64.620,308.997 65.621,308.770 66.280 C 308.543 66.939,308.176 67.905,307.955 68.426 C 306.731 71.312,306.857 79.856,308.160 82.353 C 308.393 82.799,308.584 83.359,308.585 83.597 C 308.587 84.149,310.383 87.546,311.053 88.265 C 311.333 88.565,311.562 88.907,311.562 89.024 C 311.562 89.632,317.326 94.929,317.988 94.929 C 318.132 94.929,318.571 95.181,318.963 95.490 C 319.355 95.798,319.677 95.950,319.680 95.828 C 319.682 95.705,319.773 95.739,319.882 95.903 C 319.992 96.067,320.751 96.418,321.569 96.683 C 322.387 96.948,323.178 97.259,323.327 97.374 C 324.676 98.420,336.319 98.413,336.668 97.366 C 336.718 97.216,336.982 97.093,337.253 97.093 C 337.958 97.093,340.771 95.981,340.771 95.703 C 340.771 95.575,340.940 95.470,341.146 95.470 C 341.500 95.470,343.942 93.922,344.828 93.137 C 345.821 92.256,347.719 90.310,348.268 89.610 C 349.742 87.728,349.992 87.356,349.783 87.352 C 349.661 87.350,349.699 87.259,349.868 87.149 C 350.649 86.646,352.351 82.258,352.988 79.108 C 353.453 76.807,353.140 71.020,352.433 68.830 C 351.830 66.966,350.332 63.550,350.001 63.286 C 349.907 63.212,349.344 62.425,348.749 61.538 C 346.947 58.853,345.058 57.207,340.718 54.545 C 339.612 53.866,335.349 52.516,333.779 52.347 C 331.359 52.087,329.855 52.019,328.600 52.114 " stroke="none" fill="#ab7bc3" fill-rule="evenodd"></path><path id="path4" d="M274.848 52.113 C 275.108 52.181,275.534 52.181,275.794 52.113 C 276.055 52.045,275.842 51.990,275.321 51.990 C 274.801 51.990,274.588 52.045,274.848 52.113 M279.919 52.572 C 279.919 52.629,280.223 52.733,280.595 52.805 C 280.967 52.876,281.271 52.829,281.271 52.701 C 281.271 52.573,280.967 52.468,280.595 52.468 C 280.223 52.468,279.919 52.515,279.919 52.572 M240.703 53.876 C 240.034 54.024,239.364 54.241,239.216 54.358 C 239.067 54.476,237.972 54.786,236.782 55.046 C 235.592 55.307,234.557 55.601,234.483 55.701 C 234.408 55.801,233.070 56.167,231.508 56.514 C 229.946 56.862,228.607 57.226,228.533 57.324 C 228.458 57.421,227.363 57.719,226.099 57.985 C 224.834 58.252,223.678 58.566,223.529 58.685 C 223.381 58.803,222.285 59.113,221.095 59.373 C 219.905 59.634,218.871 59.928,218.796 60.027 C 218.722 60.126,217.627 60.433,216.362 60.710 C 215.098 60.987,213.934 61.311,213.776 61.429 C 213.618 61.548,212.462 61.870,211.207 62.145 L 208.925 62.645 208.857 140.721 L 208.789 218.796 225.963 218.796 L 243.137 218.796 243.137 136.173 L 243.137 53.550 242.529 53.579 C 242.194 53.595,241.373 53.728,240.703 53.876 M284.101 53.804 C 284.180 53.932,284.615 54.166,285.066 54.324 C 285.518 54.481,285.823 54.505,285.743 54.377 C 285.664 54.249,285.230 54.015,284.778 53.858 C 284.327 53.700,284.022 53.676,284.101 53.804 M265.382 54.099 C 265.047 54.234,264.773 54.408,264.773 54.488 C 264.773 54.750,265.204 54.637,265.736 54.234 C 266.334 53.782,266.251 53.750,265.382 54.099 M286.813 55.169 C 287.059 55.566,288.032 56.043,288.032 55.766 C 288.032 55.636,287.720 55.388,287.339 55.214 C 286.943 55.033,286.718 55.014,286.813 55.169 M289.655 57.018 C 289.655 57.193,289.758 57.336,289.884 57.336 C 290.010 57.336,290.862 58.096,291.778 59.026 C 292.693 59.955,293.442 60.638,293.442 60.542 C 293.442 60.351,291.573 58.396,290.397 57.357 C 289.989 56.996,289.655 56.844,289.655 57.018 M258.706 58.877 C 258.037 59.576,257.546 60.205,257.615 60.275 C 257.685 60.344,257.772 60.348,257.809 60.283 C 257.847 60.219,258.420 59.590,259.083 58.886 C 259.746 58.182,260.206 57.606,260.106 57.606 C 260.006 57.606,259.376 58.178,258.706 58.877 M256.351 61.731 C 255.913 62.355,255.873 62.498,256.212 62.226 C 256.694 61.839,257.327 60.852,257.094 60.852 C 257.024 60.852,256.690 61.247,256.351 61.731 M255.171 63.558 C 254.901 63.857,254.744 64.165,254.822 64.243 C 254.900 64.321,255.166 64.077,255.412 63.700 C 255.951 62.877,255.844 62.814,255.171 63.558 M296.803 66.667 C 296.909 67.113,297.112 67.597,297.254 67.742 C 297.397 67.888,297.370 67.583,297.195 67.066 C 296.786 65.855,296.555 65.620,296.803 66.667 M253.350 67.470 C 253.280 67.837,253.312 68.083,253.421 68.015 C 253.712 67.835,253.942 66.802,253.691 66.802 C 253.574 66.802,253.420 67.102,253.350 67.470 M298.243 72.617 C 298.315 72.989,298.419 73.293,298.476 73.293 C 298.533 73.293,298.580 72.989,298.580 72.617 C 298.580 72.245,298.475 71.941,298.347 71.941 C 298.219 71.941,298.172 72.245,298.243 72.617 M252.062 75.186 C 252.062 76.822,252.153 78.161,252.265 78.161 C 252.377 78.161,252.468 76.823,252.468 75.187 C 252.468 73.550,252.377 72.212,252.265 72.211 C 252.153 72.211,252.062 73.550,252.062 75.186 M298.247 77.608 C 298.060 78.274,298.172 78.659,298.467 78.364 C 298.553 78.278,298.581 77.923,298.529 77.576 L 298.434 76.944 298.247 77.608 M296.717 83.908 C 296.449 84.712,296.458 84.742,296.826 84.262 C 297.047 83.973,297.228 83.578,297.228 83.383 C 297.228 82.780,297.023 82.990,296.717 83.908 M295.495 86.410 C 295.251 86.782,295.157 87.086,295.285 87.086 C 295.413 87.086,295.657 86.782,295.826 86.410 C 295.996 86.038,296.090 85.734,296.036 85.734 C 295.982 85.734,295.738 86.038,295.495 86.410 M256.351 88.641 C 256.690 89.124,257.024 89.520,257.094 89.520 C 257.327 89.520,256.694 88.532,256.212 88.145 C 255.873 87.873,255.913 88.017,256.351 88.641 M292.478 90.636 C 291.922 91.227,291.854 91.378,292.252 91.136 C 292.743 90.839,293.606 89.790,293.359 89.790 C 293.311 89.790,292.915 90.171,292.478 90.636 M258.648 91.438 C 258.866 91.749,259.329 92.194,259.678 92.427 C 260.096 92.707,259.995 92.515,259.379 91.862 C 258.335 90.753,258.055 90.591,258.648 91.438 M290.425 92.655 C 288.902 93.914,288.494 94.356,289.520 93.634 C 290.712 92.795,291.981 91.704,291.777 91.693 C 291.679 91.688,291.071 92.121,290.425 92.655 M260.446 93.026 C 260.446 93.170,260.720 93.431,261.055 93.607 C 261.660 93.924,261.661 93.923,261.148 93.346 C 260.576 92.701,260.446 92.642,260.446 93.026 M262.422 94.499 C 262.839 94.884,263.316 95.199,263.481 95.199 C 263.831 95.199,263.842 95.210,262.610 94.411 L 261.663 93.798 262.422 94.499 M264.358 95.725 C 264.437 95.853,264.872 96.086,265.323 96.244 C 265.775 96.401,266.079 96.425,266.000 96.297 C 265.921 96.169,265.487 95.935,265.035 95.778 C 264.584 95.620,264.279 95.596,264.358 95.725 M79.784 104.316 C 79.784 104.441,78.719 104.773,77.417 105.053 C 76.116 105.333,74.746 105.687,74.375 105.839 C 74.003 105.991,72.847 106.318,71.805 106.566 C 69.266 107.169,69.122 107.210,68.966 107.390 C 68.891 107.475,67.796 107.764,66.531 108.030 C 65.267 108.297,64.111 108.606,63.962 108.716 C 63.813 108.826,62.718 109.138,61.528 109.410 C 60.338 109.681,59.304 109.979,59.229 110.072 C 59.155 110.165,57.816 110.522,56.254 110.865 C 54.692 111.209,53.354 111.574,53.279 111.676 C 53.205 111.778,52.123 112.078,50.875 112.342 C 49.627 112.606,48.410 112.925,48.170 113.051 C 47.931 113.177,47.522 113.346,47.262 113.427 C 46.813 113.566,46.788 116.808,46.787 176.530 C 46.787 239.895,46.722 244.600,45.828 246.314 C 45.614 246.724,45.439 247.207,45.438 247.388 C 45.434 248.114,44.523 249.535,43.611 250.237 C 41.182 252.106,38.673 250.872,34.672 245.842 C 32.482 243.088,29.138 239.721,28.343 239.469 C 28.075 239.384,27.857 239.212,27.857 239.087 C 27.857 238.732,24.622 237.728,23.477 237.728 C 22.911 237.728,22.448 237.606,22.448 237.458 C 22.448 237.305,21.681 237.187,20.690 237.187 C 19.698 237.187,18.932 237.305,18.932 237.458 C 18.932 237.606,18.414 237.730,17.782 237.733 C 16.173 237.739,12.927 238.463,12.666 238.874 C 12.547 239.062,12.447 239.127,12.445 239.018 C 12.427 238.149,7.302 242.178,7.302 243.062 C 7.302 243.252,7.179 243.408,7.027 243.408 C 6.876 243.408,6.542 243.864,6.284 244.422 C 6.026 244.980,5.727 245.502,5.621 245.582 C 4.776 246.216,4.777 253.392,5.622 253.923 C 5.769 254.015,6.085 254.560,6.323 255.134 C 6.820 256.327,9.869 259.409,11.085 259.947 C 11.533 260.145,11.900 260.388,11.900 260.486 C 11.900 260.798,15.499 262.502,16.900 262.853 C 17.641 263.039,18.378 263.299,18.537 263.431 C 18.865 263.703,23.207 264.503,24.354 264.503 C 24.768 264.503,25.158 264.655,25.220 264.841 C 25.373 265.301,45.027 265.333,46.004 264.875 C 46.361 264.707,48.400 264.366,50.535 264.116 C 52.670 263.866,54.618 263.554,54.862 263.423 C 55.107 263.293,56.339 262.928,57.599 262.613 C 58.860 262.299,59.956 261.935,60.036 261.806 C 60.116 261.677,60.545 261.484,60.990 261.378 C 62.017 261.132,65.245 259.376,65.531 258.908 C 65.650 258.713,65.881 258.553,66.045 258.553 C 67.203 258.553,74.104 251.663,74.104 250.506 C 74.104 250.367,74.329 250.050,74.603 249.801 C 74.877 249.553,75.262 248.865,75.458 248.272 C 75.653 247.679,75.907 247.194,76.022 247.194 C 76.137 247.194,76.317 246.920,76.421 246.586 C 76.525 246.251,76.947 245.247,77.357 244.354 C 77.768 243.462,78.265 242.062,78.462 241.244 C 78.658 240.426,78.898 239.696,78.994 239.621 C 79.209 239.455,80.055 234.887,80.055 233.897 C 80.054 233.500,80.167 233.135,80.305 233.085 C 81.169 232.775,81.271 225.562,81.271 164.706 L 81.271 104.260 80.527 104.174 C 80.118 104.127,79.784 104.191,79.784 104.316 M288.735 104.323 C 288.540 104.519,284.806 105.542,280.606 106.551 C 279.423 106.835,278.206 107.187,277.902 107.333 C 277.598 107.479,276.437 107.807,275.321 108.062 C 274.206 108.317,273.171 108.615,273.022 108.724 C 272.874 108.833,271.778 109.135,270.588 109.395 C 269.398 109.655,268.364 109.953,268.289 110.057 C 268.215 110.161,267.059 110.468,265.720 110.740 C 264.381 111.012,263.134 111.353,262.948 111.499 C 262.762 111.644,262.610 111.673,262.610 111.562 C 262.610 111.451,262.458 111.479,262.272 111.623 C 262.086 111.767,260.869 112.114,259.567 112.393 C 258.266 112.672,257.201 112.995,257.201 113.110 C 257.201 113.226,256.897 113.320,256.525 113.320 L 255.849 113.320 255.849 166.058 L 255.849 218.796 273.022 218.796 L 290.196 218.796 290.196 161.460 L 290.196 104.124 289.565 104.124 C 289.218 104.124,288.845 104.214,288.735 104.323 M339.013 105.239 C 337.674 105.365,335.970 105.606,335.227 105.773 C 334.483 105.940,332.718 106.307,331.305 106.587 C 328.414 107.161,328.300 107.188,327.924 107.408 C 327.776 107.495,326.741 107.784,325.625 108.050 C 324.510 108.316,323.536 108.613,323.462 108.709 C 323.387 108.805,322.566 109.110,321.636 109.386 C 320.707 109.663,319.946 109.979,319.946 110.088 C 319.946 110.197,319.611 110.367,319.202 110.465 C 318.274 110.688,313.982 112.754,313.550 113.186 C 313.374 113.362,312.855 113.661,312.396 113.851 C 311.937 114.041,311.562 114.284,311.562 114.391 C 311.562 114.498,311.288 114.710,310.953 114.863 C 308.814 115.838,303.351 121.457,302.790 123.259 C 302.686 123.594,302.507 123.867,302.392 123.867 C 302.278 123.867,301.952 124.567,301.668 125.423 C 301.384 126.278,301.030 127.065,300.880 127.171 C 300.507 127.436,300.516 136.265,300.890 136.521 C 301.045 136.627,301.338 137.230,301.541 137.861 C 302.043 139.421,305.815 143.881,306.632 143.881 C 306.769 143.881,307.163 144.126,307.508 144.425 C 308.130 144.964,310.417 145.774,311.318 145.774 C 311.576 145.774,311.838 145.926,311.900 146.112 C 312.052 146.568,321.304 146.597,321.865 146.143 C 322.074 145.975,322.671 145.750,323.191 145.644 C 325.195 145.238,327.633 143.506,329.586 141.101 C 330.157 140.397,330.716 139.137,330.906 138.125 C 331.010 137.572,331.187 137.120,331.299 137.120 C 331.604 137.120,331.829 135.299,332.101 130.636 C 332.249 128.095,332.459 126.413,332.636 126.354 C 332.797 126.300,332.928 126.088,332.928 125.883 C 332.928 125.255,333.748 123.052,334.161 122.567 C 334.376 122.315,334.987 121.597,335.519 120.971 C 337.139 119.065,340.407 117.662,343.257 117.651 C 343.806 117.649,344.330 117.525,344.422 117.377 C 344.514 117.228,345.062 117.106,345.639 117.106 C 346.216 117.106,346.764 117.228,346.856 117.377 C 346.948 117.525,347.436 117.647,347.940 117.647 C 351.138 117.647,357.539 121.216,357.539 122.999 C 357.539 123.123,357.757 123.461,358.024 123.749 C 358.290 124.037,358.725 125.003,358.989 125.896 C 359.253 126.788,359.671 128.127,359.918 128.871 C 360.286 129.984,360.382 131.706,360.457 138.607 L 360.549 146.991 359.788 147.303 C 359.369 147.475,358.053 147.824,356.863 148.079 C 355.673 148.334,354.638 148.627,354.564 148.730 C 354.490 148.833,353.577 149.132,352.535 149.395 C 351.494 149.657,350.216 150.041,349.696 150.248 C 349.175 150.455,348.019 150.825,347.126 151.071 C 346.234 151.318,345.382 151.615,345.233 151.733 C 345.085 151.850,344.172 152.151,343.205 152.400 C 342.238 152.650,341.325 152.953,341.176 153.074 C 341.028 153.195,340.358 153.439,339.689 153.617 C 339.020 153.795,337.968 154.169,337.353 154.448 C 336.737 154.727,335.673 155.106,334.986 155.289 C 334.300 155.473,333.739 155.726,333.739 155.853 C 333.739 155.980,333.617 156.008,333.469 155.916 C 333.320 155.824,333.198 155.851,333.198 155.975 C 333.198 156.100,332.468 156.419,331.575 156.684 C 330.683 156.949,329.953 157.267,329.953 157.390 C 329.953 157.514,329.618 157.697,329.209 157.797 C 328.163 158.052,321.035 161.404,320.756 161.773 C 320.682 161.871,320.104 162.159,319.472 162.412 C 318.840 162.665,318.323 162.957,318.323 163.062 C 318.323 163.167,317.891 163.460,317.363 163.711 C 316.835 163.963,316.257 164.292,316.078 164.442 C 315.900 164.593,314.958 165.231,313.984 165.860 C 312.090 167.085,312.051 167.116,309.745 169.168 C 307.329 171.319,305.389 173.414,304.640 174.683 C 304.367 175.146,304.051 175.524,303.938 175.524 C 303.825 175.524,303.492 176.052,303.198 176.697 C 302.904 177.342,302.495 178.009,302.289 178.180 C 302.083 178.351,301.746 179.010,301.540 179.645 C 301.334 180.279,301.032 180.936,300.869 181.105 C 300.706 181.274,300.415 182.126,300.223 182.999 C 300.030 183.871,299.769 184.712,299.644 184.868 C 298.869 185.830,298.670 195.298,299.369 197.972 C 300.990 204.175,302.648 207.309,306.423 211.298 C 308.335 213.319,308.938 213.814,311.666 215.606 C 313.263 216.656,316.363 218.152,317.782 218.558 C 318.452 218.749,319.060 218.991,319.135 219.097 C 319.287 219.310,323.140 220.149,323.969 220.149 C 324.260 220.149,324.549 220.301,324.611 220.487 C 324.763 220.941,339.823 220.975,340.797 220.524 C 341.155 220.358,342.521 220.019,343.835 219.769 C 345.148 219.520,346.426 219.205,346.674 219.071 C 346.923 218.936,347.948 218.566,348.952 218.248 C 349.956 217.930,350.778 217.589,350.779 217.490 C 350.779 217.390,351.327 217.084,351.996 216.809 C 352.664 216.534,353.212 216.207,353.212 216.083 C 353.212 215.959,353.478 215.773,353.803 215.670 C 354.390 215.484,357.792 212.963,359.240 211.642 C 360.453 210.535,360.514 210.690,360.514 214.875 L 360.514 218.796 377.823 218.796 L 395.132 218.796 395.132 176.189 C 395.132 135.647,395.020 128.681,394.359 128.197 C 394.256 128.121,393.937 127.101,393.651 125.929 C 393.365 124.757,392.994 123.662,392.827 123.495 C 392.660 123.328,392.303 122.613,392.033 121.907 C 391.763 121.200,391.437 120.622,391.309 120.622 C 391.180 120.622,391.075 120.483,391.075 120.314 C 391.075 119.948,388.488 116.700,387.385 115.681 C 385.615 114.046,384.700 113.328,384.381 113.324 C 384.195 113.322,384.043 113.201,384.043 113.056 C 384.043 112.911,383.648 112.590,383.164 112.342 C 382.681 112.095,382.224 111.800,382.150 111.688 C 382.017 111.487,377.410 109.263,377.127 109.263 C 377.047 109.263,376.464 109.027,375.832 108.739 C 375.199 108.451,374.080 108.068,373.345 107.889 C 372.610 107.709,371.886 107.468,371.737 107.354 C 371.504 107.173,368.615 106.542,364.300 105.728 C 360.281 104.970,344.991 104.674,339.013 105.239 M94.172 107.424 C 93.378 108.218,93.825 191.271,94.631 192.751 C 94.777 193.019,95.100 194.121,95.348 195.199 C 95.596 196.278,95.881 197.160,95.981 197.160 C 96.081 197.160,96.327 197.715,96.527 198.392 C 96.727 199.070,97.033 199.770,97.206 199.947 C 97.379 200.125,97.686 200.696,97.888 201.217 C 98.245 202.139,99.793 204.627,100.609 205.590 C 100.832 205.854,101.318 206.443,101.690 206.900 C 102.570 207.980,105.494 210.917,106.471 211.702 C 108.833 213.599,111.102 215.141,111.910 215.398 C 112.204 215.491,112.721 215.807,113.060 216.101 C 113.398 216.395,114.143 216.761,114.715 216.915 C 115.286 217.069,115.754 217.296,115.754 217.421 C 115.754 217.545,116.728 217.928,117.918 218.272 C 119.108 218.616,120.081 218.983,120.081 219.089 C 120.081 219.194,121.268 219.489,122.718 219.745 C 124.168 220.000,125.647 220.348,126.004 220.517 C 126.917 220.950,138.697 220.940,139.580 220.506 C 139.938 220.330,141.204 219.981,142.394 219.730 C 143.584 219.479,144.618 219.190,144.692 219.087 C 144.767 218.984,145.680 218.617,146.721 218.271 C 147.762 217.925,148.675 217.559,148.749 217.457 C 148.824 217.355,149.432 217.056,150.101 216.793 C 150.770 216.529,151.378 216.233,151.453 216.135 C 151.528 216.037,152.076 215.714,152.671 215.418 C 153.266 215.122,153.813 214.805,153.888 214.712 C 153.962 214.620,154.437 214.332,154.944 214.073 C 155.450 213.813,156.318 213.279,156.873 212.886 C 157.427 212.492,158.162 211.988,158.505 211.765 C 158.849 211.542,159.417 211.085,159.767 210.751 C 160.117 210.416,160.479 210.142,160.572 210.142 C 160.666 210.142,160.964 209.941,161.236 209.694 C 161.714 209.262,161.731 209.413,161.731 214.022 L 161.731 218.796 178.905 218.796 L 196.078 218.796 196.078 162.948 L 196.078 107.099 179.229 107.099 C 166.485 107.099,162.301 107.178,162.055 107.424 C 161.806 107.673,161.731 116.983,161.731 147.680 C 161.731 189.296,161.730 189.317,160.693 189.317 C 160.590 189.317,160.210 189.797,159.847 190.384 C 158.864 191.975,153.264 197.311,151.763 198.087 C 151.322 198.315,150.920 198.595,150.870 198.710 C 150.792 198.885,148.354 200.196,147.938 200.287 C 147.863 200.303,147.487 200.447,147.102 200.608 C 145.156 201.420,141.013 201.192,138.828 200.154 C 138.260 199.884,137.339 199.502,136.782 199.304 C 136.224 199.106,135.767 198.851,135.767 198.736 C 135.767 198.621,135.422 198.348,134.999 198.129 C 133.957 197.590,131.570 195.220,131.043 194.202 C 130.808 193.746,130.516 193.374,130.395 193.374 C 130.274 193.374,130.014 192.857,129.818 192.224 C 129.622 191.592,129.268 190.771,129.031 190.399 C 128.644 189.791,128.587 185.611,128.465 148.749 C 128.391 126.214,128.231 107.623,128.111 107.437 C 127.799 106.956,94.653 106.943,94.172 107.424 M360.514 177.648 L 360.514 193.294 358.485 194.600 C 357.370 195.318,356.457 195.983,356.457 196.077 C 356.457 196.171,356.031 196.452,355.510 196.700 C 354.990 196.948,354.564 197.275,354.564 197.426 C 354.564 197.577,354.429 197.701,354.265 197.701 C 354.101 197.701,353.425 198.066,352.764 198.513 C 352.103 198.959,351.463 199.324,351.341 199.324 C 351.220 199.324,350.800 199.576,350.408 199.884 C 350.016 200.193,349.694 200.345,349.692 200.222 C 349.689 200.100,349.592 200.151,349.474 200.336 C 349.357 200.520,348.416 200.865,347.382 201.101 C 346.349 201.337,345.292 201.643,345.034 201.780 C 344.402 202.114,342.123 202.097,342.123 201.758 C 342.123 201.609,341.936 201.487,341.707 201.487 C 340.337 201.487,337.100 198.759,336.040 196.712 C 335.744 196.141,335.422 195.612,335.324 195.538 C 335.225 195.463,334.936 194.672,334.680 193.780 C 334.424 192.887,334.077 191.986,333.909 191.777 C 333.359 191.093,333.503 183.294,334.077 182.720 C 334.337 182.460,334.550 182.092,334.550 181.902 C 334.550 181.402,335.307 179.963,335.773 179.576 C 335.993 179.394,336.173 179.075,336.173 178.868 C 336.173 178.235,342.244 172.325,344.174 171.080 C 344.608 170.800,345.060 170.407,345.179 170.208 C 345.298 170.008,345.514 169.844,345.659 169.844 C 345.804 169.844,346.531 169.426,347.275 168.914 C 348.019 168.402,348.868 167.907,349.162 167.814 C 349.456 167.721,349.696 167.541,349.696 167.415 C 349.696 167.288,350.243 166.976,350.913 166.720 C 351.582 166.464,352.130 166.170,352.130 166.065 C 352.130 165.961,352.799 165.593,353.617 165.247 C 354.435 164.901,355.105 164.516,355.105 164.391 C 355.105 164.267,355.232 164.165,355.388 164.165 C 355.543 164.165,356.547 163.757,357.619 163.258 C 359.259 162.495,360.064 162.143,360.446 162.023 C 360.483 162.011,360.514 169.042,360.514 177.648 " stroke="none" fill="#242424" fill-rule="evenodd"></path><path id="path5" d="M288.709 61.934 C 289.592 62.826,290.375 63.556,290.450 63.556 C 290.524 63.556,289.862 62.826,288.979 61.934 C 288.096 61.041,287.312 60.311,287.238 60.311 C 287.164 60.311,287.825 61.041,288.709 61.934 M294.339 75.186 C 294.339 76.153,294.389 76.548,294.449 76.065 C 294.509 75.581,294.509 74.790,294.449 74.307 C 294.389 73.824,294.339 74.219,294.339 75.186 M261.934 88.709 C 262.515 89.304,263.051 89.790,263.125 89.790 C 263.200 89.790,262.785 89.304,262.204 88.709 C 261.623 88.114,261.087 87.627,261.013 87.627 C 260.938 87.627,261.353 88.114,261.934 88.709 M287.880 89.317 L 287.086 90.196 287.965 89.402 C 288.784 88.661,288.968 88.438,288.759 88.438 C 288.713 88.438,288.317 88.834,287.880 89.317 " stroke="none" fill="#544450" fill-rule="evenodd"></path><path id="path6" d="" stroke="none" fill="#244454" fill-rule="evenodd"></path><path id="path7" d="M271.400 52.378 C 266.263 53.498,261.874 55.876,258.803 59.207 C 257.043 61.115,255.719 62.738,255.706 63.005 C 255.702 63.085,255.381 63.698,254.993 64.368 C 254.604 65.037,254.135 66.072,253.950 66.667 C 253.765 67.262,253.512 67.878,253.388 68.036 C 253.263 68.194,252.961 69.472,252.715 70.876 C 250.638 82.750,256.990 93.208,268.830 97.408 C 272.759 98.802,283.747 97.887,285.328 96.034 C 285.402 95.947,285.950 95.632,286.545 95.335 C 287.778 94.718,287.631 94.818,289.815 93.108 C 293.825 89.968,297.072 84.766,297.793 80.325 C 297.950 79.358,298.186 78.141,298.317 77.620 C 298.593 76.528,298.478 73.559,298.077 71.400 C 297.561 68.621,297.422 68.019,297.236 67.748 C 297.134 67.600,296.835 66.895,296.571 66.181 C 293.561 58.037,284.560 52.141,275.268 52.229 C 273.438 52.246,271.697 52.313,271.400 52.378 M281.001 57.038 C 302.190 64.454,296.670 95.008,274.315 94.048 C 256.191 93.270,249.729 69.514,264.889 59.400 C 269.488 56.332,276.180 55.351,281.001 57.038 " stroke="none" fill="#244824" fill-rule="evenodd"></path><path id="path8" d="" stroke="none" fill="#282424" fill-rule="evenodd"></path></g></svg>