<?xml version="1.0" standalone="no"?>
<!DOCTYPE svg PUBLIC "-//W3C//DTD SVG 20010904//EN"
 "http://www.w3.org/TR/2001/REC-SVG-20010904/DTD/svg10.dtd">
<svg version="1.0" xmlns="http://www.w3.org/2000/svg"
 width="571.000000pt" height="295.000000pt" viewBox="0 0 571.000000 295.000000"
 preserveAspectRatio="xMidYMid meet">

<g transform="translate(0.000000,295.000000) scale(0.100000,-0.100000)"
fill="#000000" stroke="none">
<path d="M210 2771 c0 -10 7 -21 15 -25 23 -8 18 -29 -5 -23 -11 3 -18 1 -14
-4 9 -15 34 -10 41 7 4 10 0 20 -10 26 -21 11 -22 32 -1 24 8 -3 12 -2 9 4
-11 17 -35 11 -35 -9z"/>
<path d="M283 2770 c-11 -16 -10 -18 2 -14 8 4 15 12 15 20 0 19 -3 18 -17 -6z"/>
<path d="M360 2750 c0 -37 2 -40 28 -39 23 2 24 2 5 6 -27 5 -31 30 -5 36 16
4 16 5 0 6 -26 2 -22 19 5 24 19 4 18 4 -5 6 -26 1 -28 -2 -28 -39z"/>
<path d="M894 2778 c-4 -6 2 -19 15 -29 21 -17 13 -37 -11 -23 -7 4 -8 3 -4
-4 10 -17 33 -15 40 3 3 9 -3 20 -14 27 -23 15 -27 33 -5 24 8 -3 15 -1 15 4
0 14 -27 12 -36 -2z"/>
<path d="M958 2766 c-4 -19 -1 -22 14 -18 12 3 18 -1 18 -13 0 -12 -6 -16 -20
-12 -11 3 -18 1 -14 -4 9 -15 34 -10 41 7 4 11 -1 22 -13 31 -16 12 -17 15 -4
23 13 8 13 10 -1 10 -10 0 -19 -10 -21 -24z"/>
<path d="M1068 2783 c12 -2 22 -8 22 -13 0 -5 -10 -11 -22 -13 l-23 -4 23 -2
c27 -1 29 -28 2 -34 -17 -4 -16 -4 2 -3 19 1 23 7 23 36 0 30 -3 35 -25 37
-22 1 -22 1 -2 -4z"/>
<path d="M1580 2786 c0 -2 9 -6 20 -9 11 -3 18 -1 14 4 -5 9 -34 13 -34 5z"/>
<path d="M1644 2776 c-8 -22 -1 -59 13 -64 21 -6 28 29 10 43 -21 15 -22 29
-1 21 8 -3 12 -2 9 4 -9 14 -25 12 -31 -4z m26 -41 c0 -8 -4 -15 -10 -15 -5 0
-10 7 -10 15 0 8 5 15 10 15 6 0 10 -7 10 -15z"/>
<path d="M1734 2778 c-7 -11 22 -39 40 -37 6 0 1 5 -11 11 -28 14 -30 32 -3
25 11 -3 18 -1 14 4 -7 13 -31 11 -40 -3z"/>
<path d="M2190 2786 c0 -2 9 -6 20 -9 11 -3 18 -1 14 4 -5 9 -34 13 -34 5z"/>
<path d="M2262 2782 c13 -5 15 -11 8 -22 -5 -8 -10 -24 -9 -35 0 -11 6 -2 14
20 8 22 15 41 15 43 0 1 -10 2 -22 1 -19 0 -20 -2 -6 -7z"/>
<path d="M2360 2786 c0 -2 9 -6 20 -9 11 -3 18 -1 14 4 -5 9 -34 13 -34 5z"/>
<path d="M2754 2778 c-4 -6 2 -19 15 -29 21 -17 13 -37 -11 -23 -7 4 -8 3 -4
-4 10 -17 33 -15 40 3 3 9 -3 20 -14 27 -23 15 -27 33 -5 24 8 -3 15 -1 15 4
0 14 -27 12 -36 -2z"/>
<path d="M2820 2775 c0 -8 7 -18 15 -21 18 -7 20 -31 3 -37 -8 -2 -7 -3 2 -3
23 2 20 70 -2 74 -11 2 -18 -3 -18 -13z m30 -5 c0 -5 -4 -10 -10 -10 -5 0 -10
5 -10 10 0 6 5 10 10 10 6 0 10 -4 10 -10z"/>
<path d="M2911 2748 c1 -24 3 -35 6 -26 2 9 14 19 26 21 l22 4 -22 2 c-13 0
-23 7 -23 15 0 8 10 17 23 19 19 4 18 4 -5 6 -27 1 -28 -1 -27 -41z"/>
<path d="M2983 2750 c0 -25 2 -35 4 -22 2 12 2 32 0 45 -2 12 -4 2 -4 -23z"/>
<path d="M3520 2771 c0 -10 7 -21 15 -25 23 -8 18 -29 -5 -23 -11 3 -18 1 -14
-4 9 -15 34 -10 41 7 4 10 0 20 -10 26 -21 11 -22 32 -1 24 8 -3 12 -2 9 4
-11 17 -35 11 -35 -9z"/>
<path d="M3583 2774 c-4 -10 0 -22 10 -29 22 -16 22 -29 0 -20 -15 5 -16 4 -5
-6 17 -18 34 2 30 37 -4 32 -25 44 -35 18z m27 -9 c0 -8 -4 -15 -10 -15 -5 0
-10 7 -10 15 0 8 5 15 10 15 6 0 10 -7 10 -15z"/>
<path d="M3671 2748 c1 -24 3 -35 6 -26 2 9 14 19 26 21 l22 4 -22 2 c-13 0
-23 7 -23 15 0 8 10 17 23 19 19 4 18 4 -5 6 -27 1 -28 -1 -27 -41z"/>
<path d="M3743 2750 c0 -25 2 -35 4 -22 2 12 2 32 0 45 -2 12 -4 2 -4 -23z"/>
<path d="M3828 2778 c-2 -7 -1 -26 3 -43 6 -28 7 -26 8 13 1 42 -3 53 -11 30z"/>
<path d="M4283 2774 c-4 -10 0 -20 10 -26 21 -11 22 -32 2 -24 -8 3 -15 1 -15
-4 0 -6 9 -10 20 -10 24 0 28 35 5 44 -8 3 -15 10 -15 17 0 6 7 8 16 5 8 -3
12 -2 9 4 -9 15 -25 12 -32 -6z"/>
<path d="M4345 2780 c-3 -6 1 -7 9 -4 21 8 21 -19 1 -36 -22 -18 -18 -30 8
-29 12 0 17 3 10 6 -9 3 -10 9 -1 22 12 20 5 51 -11 51 -5 0 -13 -4 -16 -10z"/>
<path d="M4423 2779 c9 -5 17 -19 17 -29 0 -10 -8 -24 -17 -29 -16 -9 -17 -10
-1 -11 9 0 20 9 23 20 9 28 -3 60 -23 60 -16 -1 -15 -2 1 -11z"/>
<path d="M4466 2781 c-4 -5 3 -7 14 -4 20 5 28 -11 10 -22 -5 -3 -15 -15 -20
-26 -9 -17 -7 -19 17 -18 17 1 21 3 11 6 -16 4 -16 6 -2 28 9 13 13 29 9 35
-8 12 -32 13 -39 1z"/>
<path d="M4525 2770 c-9 -28 3 -60 23 -60 16 1 15 2 0 11 -10 5 -18 19 -18 29
0 10 8 24 18 29 15 9 16 10 0 11 -9 0 -20 -9 -23 -20z"/>
<path d="M4640 2786 c0 -2 9 -6 20 -9 11 -3 18 -1 14 4 -5 9 -34 13 -34 5z"/>
<path d="M4763 2750 c0 -25 2 -35 4 -22 2 12 2 32 0 45 -2 12 -4 2 -4 -23z"/>
<path d="M4823 2750 c0 -25 2 -35 4 -22 2 12 2 32 0 45 -2 12 -4 2 -4 -23z"/>
<path d="M5034 2778 c-4 -6 2 -19 15 -29 21 -17 13 -37 -11 -23 -7 4 -8 3 -4
-4 10 -17 33 -15 40 3 3 9 -3 20 -14 27 -23 15 -27 33 -5 24 8 -3 15 -1 15 4
0 14 -27 12 -36 -2z"/>
<path d="M5096 2781 c-4 -5 3 -7 14 -4 20 5 28 -11 10 -22 -5 -3 -15 -15 -20
-26 -9 -17 -7 -19 17 -18 17 1 21 3 11 6 -16 4 -16 6 -2 28 9 13 13 29 9 35
-8 12 -32 13 -39 1z"/>
<path d="M5173 2779 c9 -5 17 -19 17 -29 0 -10 -8 -24 -17 -29 -16 -9 -17 -10
-1 -11 9 0 20 9 23 20 9 28 -3 60 -23 60 -16 -1 -15 -2 1 -11z"/>
<path d="M5220 2780 c0 -5 7 -7 15 -4 17 7 21 -11 5 -21 -5 -3 -15 -15 -20
-26 -9 -17 -7 -19 17 -18 18 1 22 3 10 6 -17 4 -18 6 -2 24 10 10 15 25 12 34
-7 16 -37 21 -37 5z"/>
<path d="M5290 2775 c-8 -9 -8 -15 -2 -15 6 0 13 -12 15 -27 3 -20 4 -15 6 15
1 46 -1 49 -19 27z"/>
<path d="M5390 2786 c0 -2 9 -6 20 -9 11 -3 18 -1 14 4 -5 9 -34 13 -34 5z"/>
<path d="M432 2740 c0 -19 2 -27 5 -17 2 9 2 25 0 35 -3 9 -5 1 -5 -18z"/>
<path d="M474 2755 c-8 -20 2 -45 18 -44 10 0 10 2 1 6 -7 2 -13 13 -13 23 0
10 6 21 13 23 9 4 9 6 -1 6 -7 1 -15 -6 -18 -14z"/>
<path d="M532 2740 c0 -19 2 -27 5 -17 2 9 2 25 0 35 -3 9 -5 1 -5 -18z"/>
<path d="M598 2763 c6 -2 18 -2 25 0 6 3 1 5 -13 5 -14 0 -19 -2 -12 -5z"/>
<path d="M669 2762 c11 -8 10 -11 -5 -15 -16 -4 -15 -5 4 -6 25 -1 26 20 1 27
-12 3 -12 2 0 -6z"/>
<path d="M1124 2756 c-3 -8 -4 -23 -2 -33 3 -11 6 -6 9 15 6 34 2 42 -7 18z"/>
<path d="M1180 2763 c13 -6 13 -40 0 -46 -6 -3 -5 -4 2 -3 7 2 13 13 13 26 0
13 -6 24 -13 26 -7 1 -8 0 -2 -3z"/>
<path d="M1236 2763 c7 -4 14 -19 17 -33 4 -22 5 -21 4 4 -1 17 -9 31 -17 33
-10 3 -11 2 -4 -4z"/>
<path d="M1288 2763 c6 -2 18 -2 25 0 6 3 1 5 -13 5 -14 0 -19 -2 -12 -5z"/>
<path d="M1334 2755 c-13 -32 23 -63 40 -36 4 5 -3 7 -14 4 -11 -3 -20 -1 -20
5 0 6 10 13 23 15 21 4 21 4 -3 6 -23 2 -24 3 -5 11 18 8 18 9 2 9 -10 1 -20
-6 -23 -14z"/>
<path d="M1588 2751 c28 -24 28 -35 1 -28 -16 4 -19 3 -11 -5 13 -13 42 -3 42
15 0 8 -12 19 -27 26 l-28 11 23 -19z"/>
<path d="M1802 2740 c0 -19 2 -27 5 -17 2 9 2 25 0 35 -3 9 -5 1 -5 -18z"/>
<path d="M1925 2761 c19 -9 19 -10 -2 -10 -13 -1 -23 -5 -23 -10 0 -4 11 -6
25 -3 29 5 28 26 -1 29 -18 3 -18 2 1 -6z"/>
<path d="M1974 2756 c-3 -8 -4 -23 -2 -33 3 -11 6 -6 9 15 6 34 2 42 -7 18z"/>
<path d="M2198 2751 c28 -24 28 -35 1 -28 -16 4 -19 3 -11 -5 13 -13 42 -3 42
15 0 8 -12 19 -27 26 l-28 11 23 -19z"/>
<path d="M2450 2763 c5 -2 10 -13 10 -23 0 -10 -5 -21 -10 -23 -6 -3 -5 -4 2
-3 7 2 13 13 13 26 0 13 -6 24 -13 26 -7 1 -8 0 -2 -3z"/>
<path d="M2516 2762 c-2 -4 4 -8 14 -8 10 0 16 4 14 8 -3 4 -9 8 -14 8 -5 0
-11 -4 -14 -8z"/>
<path d="M3023 2764 c18 -6 18 -6 0 -20 -15 -12 -15 -13 -1 -8 10 3 18 -1 21
-13 3 -10 5 -5 4 12 -2 22 -7 30 -22 32 -17 2 -17 1 -2 -3z"/>
<path d="M3122 2740 c0 -19 2 -27 5 -17 2 9 2 25 0 35 -3 9 -5 1 -5 -18z"/>
<path d="M3145 2760 c3 -5 8 -10 11 -10 2 0 4 5 4 10 0 6 -5 10 -11 10 -5 0
-7 -4 -4 -10z"/>
<path d="M3182 2750 c0 -14 2 -19 5 -12 2 6 2 18 0 25 -3 6 -5 1 -5 -13z"/>
<path d="M3242 2740 c0 -19 2 -27 5 -17 2 9 2 25 0 35 -3 9 -5 1 -5 -18z"/>
<path d="M3269 2761 c8 -5 20 -7 27 -4 8 3 14 -6 17 -21 4 -26 4 -26 3 1 -1
23 -6 28 -31 30 -20 1 -25 -1 -16 -6z"/>
<path d="M3788 2763 c6 -2 10 -8 8 -12 -3 -4 -1 -13 5 -21 6 -11 9 -8 9 13 0
19 -5 27 -17 26 -11 0 -13 -3 -5 -6z"/>
<path d="M3862 2740 c0 -19 2 -27 5 -17 2 9 2 25 0 35 -3 9 -5 1 -5 -18z"/>
<path d="M3882 2740 c0 -19 2 -27 5 -17 2 9 2 25 0 35 -3 9 -5 1 -5 -18z"/>
<path d="M3982 2740 c0 -19 2 -27 5 -17 2 9 2 25 0 35 -3 9 -5 1 -5 -18z"/>
<path d="M4015 2761 c-3 -7 0 -8 9 -5 10 4 16 -3 19 -23 l5 -28 -2 29 c-1 30
-19 45 -31 27z"/>
<path d="M4069 2738 c4 -28 6 -29 9 -9 2 13 0 27 -5 32 -6 6 -7 -3 -4 -23z"/>
<path d="M4402 2750 c0 -14 2 -19 5 -12 2 6 2 18 0 25 -3 6 -5 1 -5 -13z"/>
<path d="M4562 2750 c0 -14 2 -19 5 -12 2 6 2 18 0 25 -3 6 -5 1 -5 -13z"/>
<path d="M4723 2764 c9 -3 17 -14 17 -24 0 -10 -8 -21 -17 -24 -14 -4 -14 -4
2 -3 14 2 20 10 20 27 0 17 -6 25 -20 27 -16 1 -16 1 -2 -3z"/>
<path d="M5152 2750 c0 -14 2 -19 5 -12 2 6 2 18 0 25 -3 6 -5 1 -5 -13z"/>
<path d="M5473 2764 c9 -3 17 -14 17 -24 0 -10 -8 -21 -17 -24 -14 -4 -14 -4
2 -3 14 2 20 10 20 27 0 17 -6 25 -20 27 -16 1 -16 1 -2 -3z"/>
<path d="M5546 2762 c-2 -4 4 -8 14 -8 10 0 16 4 14 8 -3 4 -9 8 -14 8 -5 0
-11 -4 -14 -8z"/>
<path d="M273 2733 c9 -2 23 -2 30 0 6 3 -1 5 -18 5 -16 0 -22 -2 -12 -5z"/>
<path d="M597 2733 c-14 -13 -7 -23 16 -22 17 1 18 2 4 6 -9 2 -15 9 -12 14 7
10 1 12 -8 2z"/>
<path d="M3770 2725 c0 -8 4 -15 10 -15 5 0 7 7 4 15 -4 8 -8 15 -10 15 -2 0
-4 -7 -4 -15z"/>
<path d="M660 2716 c7 -7 13 -7 20 0 6 6 3 10 -10 10 -13 0 -16 -4 -10 -10z"/>
<path d="M1738 2718 c5 -5 16 -8 23 -6 8 3 3 7 -10 11 -17 4 -21 3 -13 -5z"/>
<path d="M1925 2720 c-16 -7 -17 -9 -3 -9 9 -1 20 4 23 9 7 11 7 11 -20 0z"/>
<path d="M2520 2716 c7 -7 13 -7 20 0 6 6 3 10 -10 10 -13 0 -16 -4 -10 -10z"/>
<path d="M5550 2716 c7 -7 13 -7 20 0 6 6 3 10 -10 10 -13 0 -16 -4 -10 -10z"/>
<path d="M1283 2713 c9 -2 23 -2 30 0 6 3 -1 5 -18 5 -16 0 -22 -2 -12 -5z"/>
<path d="M2368 2713 c7 -3 16 -2 19 1 4 3 -2 6 -13 5 -11 0 -14 -3 -6 -6z"/>
<path d="M4648 2713 c7 -3 16 -2 19 1 4 3 -2 6 -13 5 -11 0 -14 -3 -6 -6z"/>
<path d="M5398 2713 c7 -3 16 -2 19 1 4 3 -2 6 -13 5 -11 0 -14 -3 -6 -6z"/>
<path d="M90 2010 l0 -500 144 0 c109 0 143 3 142 13 0 6 15 38 34 69 33 54
37 57 75 58 32 0 42 5 50 23 15 34 77 36 110 3 17 -17 37 -26 58 -26 28 -1 36
-8 67 -58 19 -31 34 -63 34 -69 -1 -10 33 -13 142 -13 l144 0 0 500 0 500
-500 0 -500 0 0 -500z m687 373 c-8 -7 -37 9 -31 19 3 5 12 4 20 -3 8 -6 13
-14 11 -16z m-3 -35 c7 -12 6 -24 -3 -42 -18 -34 -17 -142 2 -164 8 -9 19 -32
25 -49 l11 -33 -25 17 c-32 21 -58 78 -59 128 0 27 -4 40 -14 40 -23 0 -24 22
-1 28 20 5 29 37 10 37 -6 0 -4 13 5 31 17 32 32 34 49 7z m-513 -75 c13 -17
13 -17 -6 -3 -11 8 -22 16 -24 17 -2 2 0 3 6 3 6 0 17 -8 24 -17z m621 -20
c42 -44 82 -119 74 -139 -3 -7 1 -20 9 -28 17 -17 20 -46 5 -46 -5 0 -10 7
-10 15 0 8 -9 35 -21 60 -11 24 -18 49 -14 55 3 5 1 10 -6 10 -7 0 -29 15 -48
33 l-34 32 20 -30 c24 -36 60 -105 74 -143 l9 -27 -20 25 c-11 14 -20 29 -20
33 0 5 -14 26 -31 47 -17 21 -29 43 -25 48 3 5 -3 17 -14 27 -29 26 -26 65 5
65 6 0 27 -17 47 -37z m-552 -21 c26 -10 69 -40 101 -73 31 -30 60 -54 65 -52
12 4 34 -55 34 -91 0 -28 0 -28 -26 -11 -36 23 -45 8 -11 -19 28 -22 37 -66
14 -66 -8 0 -24 11 -36 24 -20 22 -22 31 -16 78 3 29 8 62 11 73 2 11 1 14 -2
7 -5 -10 -9 -10 -20 -1 -10 8 -11 15 -4 24 7 8 4 11 -11 11 -12 -1 -26 8 -33
18 -19 34 -45 56 -58 51 -7 -3 -26 6 -43 20 -36 29 -26 31 35 7z m370 -15 c0
-12 -4 -36 -9 -54 -7 -23 -5 -37 5 -50 8 -11 13 -13 14 -5 0 22 34 -3 55 -41
18 -34 16 -67 -5 -67 -5 0 -10 9 -10 19 0 21 -97 121 -117 121 -18 0 -17 4 19
55 35 50 48 56 48 22z m130 -52 c0 -7 7 -18 15 -25 19 -16 19 -37 1 -37 -8 0
-15 3 -14 6 3 30 -4 42 -21 36 -23 -7 -37 21 -20 41 13 16 39 2 39 -21z m-473
-30 c21 -15 38 -55 22 -55 -5 0 -9 5 -9 10 0 6 -12 22 -26 35 -29 27 -21 34
13 10z m290 -11 c-3 -4 11 -27 33 -51 l39 -44 -21 -35 c-23 -40 -15 -45 14 -9
18 23 46 27 33 4 -7 -11 44 8 62 23 10 8 13 6 13 -7 0 -13 6 -16 23 -12 21 6
22 6 2 -8 -11 -8 -26 -19 -32 -25 -7 -6 -13 -7 -13 -3 0 4 -11 -4 -25 -19 -26
-28 -79 -48 -127 -48 -30 0 -35 9 -15 29 7 9 8 12 0 7 -6 -3 -22 -2 -35 3
l-23 10 23 0 c13 1 30 7 38 15 18 19 18 27 0 20 -11 -4 -16 6 -21 40 -6 39
-11 46 -29 46 -12 0 -27 5 -34 12 -21 21 -14 38 16 38 15 0 34 5 42 10 17 11
47 14 37 4z m299 -109 c-2 -12 -145 -115 -160 -115 -3 0 -3 7 0 15 4 8 11 15
16 15 6 0 30 14 55 30 24 17 48 30 54 30 5 0 9 8 9 18 0 10 3 22 6 25 10 10
22 -1 20 -18z m-510 -42 c-8 -8 -12 -3 -21 27 l-7 25 17 -23 c9 -13 14 -26 11
-29z m134 -64 c0 -5 -4 -9 -10 -9 -5 0 -10 7 -10 16 0 8 5 12 10 9 6 -3 10
-10 10 -16z m46 -74 c-11 -8 -25 -15 -30 -15 -6 0 -2 7 8 15 11 8 25 15 30 15
6 0 2 -7 -8 -15z m-125 -125 c-4 -3 -10 -13 -14 -22 -8 -22 -27 -24 -27 -3 0
8 5 15 12 15 6 0 -1 14 -18 31 l-29 32 42 -24 c23 -13 38 -26 34 -29z m-110
23 c13 -16 12 -17 -3 -4 -10 7 -18 15 -18 17 0 8 8 3 21 -13z m209 12 c0 -2
-21 -18 -47 -36 -25 -18 -43 -27 -39 -20 4 6 24 23 44 36 41 26 42 27 42 20z
m230 2 c0 -2 -10 -12 -22 -23 l-23 -19 19 23 c18 21 26 27 26 19z m-104 -22
c-11 -8 -27 -15 -35 -15 -9 1 -2 7 14 15 39 18 44 18 21 0z m-337 -71 c-7 -13
-18 -24 -26 -24 -19 0 -16 13 9 45 25 32 38 17 17 -21z m442 24 c20 -25 25
-48 10 -48 -12 0 -41 40 -41 57 0 19 9 16 31 -9z"/>
<path d="M1390 2405 c0 -60 3 -75 15 -75 10 0 15 10 15 30 0 26 4 30 28 30 33
0 52 16 52 45 0 32 -20 45 -67 45 l-43 0 0 -75z m80 30 c0 -9 -9 -15 -25 -15
-16 0 -25 6 -25 15 0 9 9 15 25 15 16 0 25 -6 25 -15z"/>
<path d="M1758 2405 c-19 -55 -23 -75 -13 -75 7 0 15 7 19 15 3 9 18 15 36 15
18 0 33 -6 36 -15 4 -8 12 -15 20 -15 10 0 7 18 -13 75 -35 98 -50 98 -85 0z
m52 26 c0 -5 3 -16 6 -25 4 -12 0 -16 -16 -16 -16 0 -20 4 -16 16 3 9 6 20 6
25 0 5 5 9 10 9 6 0 10 -4 10 -9z"/>
<path d="M2400 2470 c0 -5 13 -10 30 -10 l29 0 -19 -42 c-21 -46 -26 -88 -11
-88 5 0 12 15 16 33 4 17 16 47 26 65 27 47 25 52 -26 52 -25 0 -45 -4 -45
-10z"/>
<path d="M2541 2432 c-39 -61 -39 -72 -1 -72 20 0 30 -5 30 -15 0 -8 5 -15 10
-15 6 0 10 6 10 14 0 8 6 17 13 20 10 5 10 7 0 12 -8 3 -13 25 -13 55 0 27 -4
49 -9 49 -5 0 -23 -22 -40 -48z m26 -49 c-3 -3 -13 -3 -21 -1 -15 3 -15 6 1
28 l18 25 3 -23 c2 -13 1 -26 -1 -29z"/>
<path d="M1529 2424 c-12 -15 -10 -16 19 -10 41 10 43 -8 1 -23 -24 -8 -30
-15 -27 -33 3 -20 9 -23 44 -24 l42 -1 -5 41 c-3 23 -6 47 -9 54 -5 17 -49 15
-65 -4z m51 -54 c0 -13 -28 -25 -38 -16 -3 4 0 11 8 16 20 13 30 12 30 0z"/>
<path d="M1647 2422 c-42 -46 11 -115 62 -83 7 5 10 14 6 20 -5 9 -10 9 -20 1
-19 -16 -35 -4 -35 25 0 29 16 41 35 25 10 -8 15 -8 20 1 8 13 -12 29 -36 29
-9 0 -23 -8 -32 -18z"/>
<path d="M1891 2383 c18 -54 19 -59 3 -70 -20 -15 -12 -28 11 -19 15 5 49 73
61 122 10 38 -13 28 -26 -11 -13 -40 -25 -38 -35 5 -4 17 -13 30 -20 30 -11 0
-10 -12 6 -57z"/>
<path d="M1990 2384 c0 -40 4 -54 14 -54 10 0 16 14 18 43 2 29 8 42 18 42 10
0 16 -13 18 -42 4 -55 20 -55 24 -1 2 31 8 44 21 46 14 3 17 -4 17 -42 0 -26
5 -46 11 -46 6 0 9 21 7 53 l-3 52 -72 1 -73 2 0 -54z"/>
<path d="M2182 2428 c-17 -17 -15 -73 2 -88 18 -14 58 -10 63 7 3 8 -6 11 -23
10 -15 -1 -29 4 -31 11 -3 8 7 12 31 12 40 0 47 17 20 44 -18 19 -45 21 -62 4z
m48 -18 c0 -5 -9 -10 -21 -10 -11 0 -17 5 -14 10 3 6 13 10 21 10 8 0 14 -4
14 -10z"/>
<path d="M2290 2384 c0 -64 17 -73 22 -12 2 31 8 44 21 46 14 3 17 -4 17 -42
0 -34 4 -46 15 -46 11 0 15 11 15 38 0 51 -13 67 -55 68 l-35 1 0 -53z"/>
<path d="M2928 2433 c6 -2 18 -2 25 0 6 3 1 5 -13 5 -14 0 -19 -2 -12 -5z"/>
<path d="M2988 2413 c7 -3 16 -2 19 1 4 3 -2 6 -13 5 -11 0 -14 -3 -6 -6z"/>
<path d="M3085 2410 c-3 -6 1 -7 9 -4 18 7 21 14 7 14 -6 0 -13 -4 -16 -10z"/>
<path d="M3288 2413 c7 -3 16 -2 19 1 4 3 -2 6 -13 5 -11 0 -14 -3 -6 -6z"/>
<path d="M2928 2403 c7 -3 16 -2 19 1 4 3 -2 6 -13 5 -11 0 -14 -3 -6 -6z"/>
<path d="M3228 2393 c6 -2 18 -2 25 0 6 3 1 5 -13 5 -14 0 -19 -2 -12 -5z"/>
<path d="M3288 2393 c7 -3 16 -2 19 1 4 3 -2 6 -13 5 -11 0 -14 -3 -6 -6z"/>
<path d="M3087 2379 c7 -7 15 -10 18 -7 3 3 -2 9 -12 12 -14 6 -15 5 -6 -5z"/>
<path d="M3238 2373 c7 -3 16 -2 19 1 4 3 -2 6 -13 5 -11 0 -14 -3 -6 -6z"/>
<path d="M3288 2373 c7 -3 16 -2 19 1 4 3 -2 6 -13 5 -11 0 -14 -3 -6 -6z"/>
<path d="M1384 1887 c-2 -7 -3 -94 -2 -192 l3 -180 370 0 370 0 0 190 0 190
-368 3 c-294 2 -369 0 -373 -11z m176 -183 c0 -38 3 -45 18 -42 12 2 18 15 20
46 2 23 8 42 13 42 6 0 9 -21 7 -47 -3 -44 -5 -48 -31 -51 -39 -5 -57 14 -57
59 0 28 4 39 15 39 11 0 15 -12 15 -46z m220 -4 c0 -49 -1 -50 -30 -50 -19 0
-33 6 -37 16 -5 15 -7 15 -15 0 -5 -9 -16 -16 -23 -16 -8 0 -15 -7 -15 -15 0
-8 -7 -15 -15 -15 -12 0 -15 13 -15 55 0 55 0 55 30 55 19 0 33 -6 37 -16 5
-15 7 -15 15 0 5 9 18 16 28 16 11 0 20 5 20 10 0 6 5 10 10 10 6 0 10 -22 10
-50z m111 43 c5 -58 2 -93 -7 -93 -11 0 -23 68 -16 89 4 12 22 15 23 4z m-33
-55 c3 -37 3 -38 -32 -38 -29 0 -36 4 -36 19 0 11 9 23 20 26 11 3 20 11 20
16 0 6 -9 7 -21 4 -15 -5 -19 -4 -14 5 4 6 19 10 33 8 23 -3 27 -8 30 -40z
m110 30 c19 -19 14 -28 -18 -28 -22 0 -28 -4 -24 -15 4 -10 14 -13 32 -8 17 4
23 2 18 -6 -4 -6 -20 -11 -36 -11 -23 0 -31 5 -36 25 -11 43 34 73 64 43z"/>
<path d="M1656 1705 c-7 -19 3 -47 15 -39 5 3 9 14 9 24 0 24 -16 34 -24 15z"/>
<path d="M1734 1706 c-8 -21 3 -49 16 -41 5 3 10 15 10 25 0 25 -18 36 -26 16z"/>
<path d="M1810 1670 c0 -5 5 -10 10 -10 6 0 10 5 10 10 0 6 -4 10 -10 10 -5 0
-10 -4 -10 -10z"/>
<path d="M1925 1710 c-3 -5 1 -10 9 -10 9 0 16 5 16 10 0 6 -4 10 -9 10 -6 0
-13 -4 -16 -10z"/>
<path d="M572 1678 c-19 -19 -14 -28 18 -28 17 0 30 4 30 8 0 9 -21 32 -30 32
-3 0 -11 -5 -18 -12z"/>
<path d="M418 1584 l-38 -55 37 -54 36 -55 137 0 137 0 36 55 37 54 -38 55
-37 55 -135 0 -135 0 -37 -55z m117 -4 c4 -6 -3 -9 -16 -7 -29 3 -36 -21 -7
-25 29 -4 33 -51 5 -56 -39 -8 -59 36 -37 79 11 20 45 26 55 9z m62 -41 c-13
-29 -23 -45 -25 -35 -2 9 3 29 11 45 15 29 14 30 -12 34 -20 3 -18 4 11 6 l36
1 -21 -51z m92 37 c17 -20 10 -67 -11 -79 -23 -15 -48 8 -48 42 0 45 35 66 59
37z"/>
<path d="M494 1529 c-10 -17 13 -36 27 -22 12 12 4 33 -11 33 -5 0 -12 -5 -16
-11z"/>
<path d="M650 1540 c0 -29 4 -40 15 -40 11 0 15 11 15 40 0 29 -4 40 -15 40
-11 0 -15 -11 -15 -40z"/>
<path d="M1782 946 c-23 -21 -42 -34 -42 -28 0 5 -11 13 -25 16 -21 5 -36 -2
-74 -34 -33 -28 -69 -47 -116 -60 -37 -11 -70 -22 -73 -24 -3 -3 7 -32 21 -63
14 -32 29 -76 33 -98 6 -31 9 -35 14 -20 7 19 7 19 18 -1 6 -11 12 -39 15 -62
2 -23 6 -45 10 -49 17 -17 5 -24 -13 -8 -11 10 -20 26 -19 34 4 40 -4 54 -11
21 -5 -19 -11 -45 -15 -57 -6 -17 -1 -25 23 -37 16 -8 48 -44 70 -79 27 -41
54 -69 76 -80 19 -9 43 -28 52 -42 11 -18 24 -25 36 -22 11 3 27 -6 44 -26 27
-32 28 -32 55 16 7 12 17 16 29 12 14 -4 28 3 50 28 16 19 42 40 57 46 16 7
45 38 68 74 22 34 50 66 63 72 21 9 22 14 16 70 -4 33 -7 61 -8 62 -1 1 -7
-11 -13 -27 -6 -17 -7 -28 -2 -24 18 11 8 -12 -18 -41 -18 -21 -24 -24 -18
-10 4 11 12 40 17 65 13 62 29 94 40 78 5 -9 8 -7 8 7 0 16 20 70 56 152 4 7
-11 16 -38 23 -84 22 -104 30 -156 70 -37 28 -60 39 -73 35 -10 -4 -19 -11
-19 -17 0 -7 -10 -2 -23 10 -24 23 -43 30 -32 12 3 -5 2 -10 -3 -10 -5 0 -12
-14 -16 -32 -6 -32 -6 -32 -22 -10 -11 17 -12 26 -4 42 6 12 10 29 8 38 -2 13
-12 8 -46 -22z m94 -135 c-1 -46 0 -48 16 -34 15 13 18 13 34 -6 10 -11 22
-17 27 -14 5 3 3 -5 -3 -18 -7 -13 -9 -21 -5 -17 8 8 35 -15 35 -31 0 -5 -8
-16 -18 -23 -11 -7 -24 -23 -30 -35 -7 -12 -32 -35 -56 -51 l-44 -30 -4 46
c-2 26 0 50 6 54 6 4 -3 30 -22 66 -39 73 -43 122 -9 122 12 0 29 5 37 10 30
19 38 11 36 -39z m-107 -79 c27 -71 15 -90 -22 -36 -22 32 -30 53 -25 61 13
17 35 6 47 -25z m15 12 c3 -8 2 -12 -4 -9 -6 3 -10 10 -10 16 0 14 7 11 14 -7z
m-254 -52 c0 -15 -2 -15 -10 -2 -13 20 -13 33 0 25 6 -3 10 -14 10 -23z m213
-17 c20 -43 9 -51 -26 -19 -30 27 -29 26 -21 48 8 22 28 10 47 -29z m-62 -102
c7 -13 10 -25 8 -27 -8 -8 -70 54 -64 64 8 13 41 -8 56 -37z m349 34 c0 -7
-13 -26 -30 -42 -36 -34 -41 -14 -7 27 24 30 37 35 37 15z m-160 -167 c5 -10
0 -24 -16 -43 l-24 -28 0 63 c1 59 2 62 16 43 9 -11 19 -27 24 -35z m-255 0
c10 -11 16 -20 13 -20 -3 0 -13 9 -23 20 -10 11 -16 20 -13 20 3 0 13 -9 23
-20z m371 -59 c-39 -40 -66 -44 -66 -10 0 13 7 19 23 19 12 0 33 7 47 14 38
21 37 19 -4 -23z m-278 12 c34 -6 39 -18 19 -44 -11 -14 -17 -11 -52 24 -25
26 -33 37 -20 33 11 -4 35 -10 53 -13z"/>
<path d="M2440 881 c0 -4 11 -6 25 -3 14 2 25 6 25 8 0 2 -11 4 -25 4 -14 0
-25 -4 -25 -9z"/>
<path d="M3151 874 c0 -11 3 -14 6 -6 3 7 2 16 -1 19 -3 4 -6 -2 -5 -13z"/>
<path d="M2598 853 c7 -3 16 -2 19 1 4 3 -2 6 -13 5 -11 0 -14 -3 -6 -6z"/>
<path d="M2668 853 c7 -3 16 -2 19 1 4 3 -2 6 -13 5 -11 0 -14 -3 -6 -6z"/>
<path d="M2941 844 c0 -11 3 -14 6 -6 3 7 2 16 -1 19 -3 4 -6 -2 -5 -13z"/>
<path d="M2440 835 c0 -8 9 -10 25 -7 14 2 25 6 25 7 0 1 -11 5 -25 7 -16 3
-25 1 -25 -7z"/>
<path d="M3125 813 c11 -3 23 -10 26 -15 3 -5 9 -3 12 6 5 13 0 16 -26 15 -21
-1 -25 -3 -12 -6z"/>
<path d="M2587 799 c7 -7 15 -10 18 -7 3 3 -2 9 -12 12 -14 6 -15 5 -6 -5z"/>
<path d="M2857 799 c7 -7 15 -10 18 -7 3 3 -2 9 -12 12 -14 6 -15 5 -6 -5z"/>
<path d="M2456 662 c-2 -4 -1 -23 4 -42 l8 -35 1 43 c1 41 -3 50 -13 34z"/>
<path d="M2613 630 c0 -25 2 -35 4 -22 2 12 2 32 0 45 -2 12 -4 2 -4 -23z"/>
<path d="M2657 649 c4 -13 8 -18 11 -10 2 7 -1 18 -6 23 -8 8 -9 4 -5 -13z"/>
<path d="M2542 615 c0 -16 2 -22 5 -12 2 9 2 23 0 30 -3 6 -5 -1 -5 -18z"/>
</g>
</svg>
