<svg id="svg" version="1.1" xmlns="http://www.w3.org/2000/svg" xmlns:xlink="http://www.w3.org/1999/xlink" width="400" height="318.5840707964602" viewBox="0, 0, 400,318.5840707964602"><g id="svgg"><path id="path0" d="M200.614 21.788 C 200.274 23.348,198.988 24.818,193.527 29.891 C 189.121 33.984,186.135 36.966,186.135 37.274 C 186.135 37.435,185.849 37.658,185.498 37.769 C 185.147 37.880,184.861 38.172,184.861 38.417 C 184.861 38.663,184.394 39.357,183.825 39.961 C 181.984 41.912,180.962 43.171,180.626 43.904 C 180.444 44.299,180.182 44.622,180.043 44.622 C 179.905 44.622,179.553 45.124,179.262 45.737 C 178.970 46.351,178.607 46.853,178.455 46.853 C 178.303 46.853,177.810 47.534,177.361 48.367 C 176.329 50.276,173.979 53.787,173.065 54.783 C 172.681 55.201,172.215 55.990,172.029 56.536 C 171.843 57.083,171.355 57.935,170.945 58.431 C 170.535 58.926,170.199 59.528,170.199 59.767 C 170.199 60.007,169.925 60.395,169.589 60.630 C 169.254 60.865,168.879 61.592,168.756 62.245 C 168.634 62.898,168.280 63.754,167.971 64.148 C 167.661 64.541,167.171 65.789,166.881 66.920 C 166.591 68.051,166.169 69.198,165.943 69.468 C 165.717 69.739,165.352 70.606,165.133 71.394 C 164.913 72.183,164.477 73.331,164.164 73.944 C 163.851 74.558,163.413 75.849,163.191 76.813 C 162.969 77.777,162.574 78.810,162.314 79.108 C 162.054 79.407,161.643 80.593,161.402 81.743 C 161.161 82.894,160.767 84.156,160.526 84.547 C 160.286 84.939,159.909 86.318,159.689 87.612 C 159.470 88.905,159.036 90.555,158.725 91.277 C 158.415 91.999,158.067 93.880,157.951 95.458 C 157.802 97.507,157.570 98.564,157.141 99.158 C 156.454 100.111,155.283 119.504,155.692 123.175 C 155.808 124.220,156.019 127.680,156.160 130.864 C 156.387 135.994,156.492 136.758,157.083 137.570 C 157.530 138.184,157.819 139.221,157.963 140.717 C 158.080 141.944,158.425 143.450,158.730 144.064 C 159.035 144.677,159.451 145.966,159.655 146.928 C 159.859 147.890,160.236 148.998,160.493 149.390 C 160.749 149.782,161.165 150.981,161.415 152.055 C 161.666 153.129,162.077 154.244,162.329 154.533 C 162.582 154.823,162.967 155.633,163.186 156.335 C 163.404 157.036,163.839 158.040,164.151 158.566 C 164.464 159.092,164.899 160.131,165.119 160.876 C 165.339 161.622,165.628 162.231,165.761 162.231 C 165.894 162.231,166.254 162.912,166.561 163.745 C 166.867 164.578,167.371 165.546,167.680 165.896 C 167.989 166.247,168.410 167.205,168.615 168.026 C 168.821 168.847,169.185 169.594,169.425 169.686 C 169.664 169.778,170.081 170.382,170.351 171.028 C 170.621 171.674,171.200 172.534,171.636 172.939 C 172.073 173.344,172.430 173.897,172.430 174.168 C 172.430 174.439,172.576 174.661,172.754 174.661 C 172.932 174.661,173.359 175.127,173.704 175.697 C 174.048 176.267,174.656 177.143,175.054 177.644 C 178.698 182.237,178.607 182.115,179.804 183.981 C 180.337 184.812,181.688 186.461,182.807 187.646 C 183.926 188.831,185.039 190.016,185.282 190.279 C 185.524 190.542,186.210 191.166,186.805 191.667 C 187.401 192.167,189.466 194.115,191.394 195.996 C 193.323 197.877,195.259 199.606,195.697 199.838 C 196.135 200.070,196.672 200.511,196.890 200.818 C 197.907 202.251,199.595 199.551,199.993 195.857 C 200.106 194.805,200.324 192.797,200.478 191.394 C 200.631 189.992,200.766 187.948,200.777 186.853 C 200.794 185.109,200.873 184.861,201.408 184.861 C 201.784 184.861,202.142 184.524,202.339 183.984 L 202.659 183.108 202.684 184.107 C 202.698 184.657,202.923 185.517,203.185 186.019 C 203.447 186.521,203.669 187.649,203.677 188.526 C 203.686 189.402,203.911 190.693,204.176 191.394 C 204.442 192.096,204.888 193.458,205.169 194.422 C 205.449 195.386,205.866 196.396,206.094 196.665 C 206.323 196.934,206.736 197.697,207.013 198.360 C 208.318 201.482,209.806 200.975,215.763 195.378 C 217.163 194.064,218.491 192.820,218.716 192.615 C 218.940 192.410,220.343 190.922,221.833 189.308 C 223.323 187.695,224.865 186.053,225.259 185.661 C 225.653 185.268,225.976 184.820,225.976 184.665 C 225.977 184.509,226.299 184.006,226.694 183.545 C 227.088 183.084,227.984 181.958,228.685 181.042 C 229.386 180.127,230.283 179.053,230.677 178.656 C 231.072 178.259,231.394 177.792,231.394 177.618 C 231.394 177.444,231.895 176.671,232.507 175.901 C 233.119 175.132,233.621 174.345,233.622 174.153 C 233.624 173.961,233.912 173.544,234.263 173.227 C 234.614 172.910,234.900 172.493,234.900 172.300 C 234.900 172.108,235.402 170.915,236.016 169.650 C 236.629 168.386,237.131 167.225,237.131 167.071 C 237.131 166.918,237.410 166.540,237.751 166.231 C 238.092 165.923,238.460 165.262,238.570 164.763 C 238.679 164.263,239.051 163.496,239.396 163.058 C 239.983 162.311,240.285 161.574,242.025 156.620 C 242.401 155.550,242.899 154.446,243.132 154.168 C 243.364 153.889,243.758 152.789,244.006 151.723 C 244.255 150.656,244.658 149.465,244.902 149.075 C 245.146 148.685,245.524 147.147,245.742 145.657 C 245.959 144.167,246.343 142.446,246.593 141.833 C 247.742 139.019,248.918 120.168,248.303 114.422 C 248.124 112.757,247.830 109.315,247.648 106.773 C 247.454 104.067,246.995 100.830,246.541 98.964 C 246.114 97.211,245.668 95.060,245.550 94.183 C 245.431 93.307,245.084 92.088,244.778 91.474 C 244.472 90.861,244.059 89.588,243.859 88.646 C 243.659 87.705,243.286 86.557,243.030 86.097 C 242.547 85.229,241.716 82.936,240.588 79.363 C 240.228 78.223,239.752 77.076,239.529 76.813 C 239.307 76.550,238.947 75.761,238.730 75.060 C 238.514 74.359,238.071 73.321,237.747 72.754 C 237.424 72.187,237.004 71.147,236.814 70.443 C 236.625 69.739,236.342 69.163,236.186 69.163 C 236.030 69.163,235.615 68.410,235.263 67.490 C 234.911 66.570,234.327 65.249,233.965 64.554 C 233.603 63.860,233.307 63.114,233.307 62.897 C 233.307 62.680,232.938 62.105,232.488 61.619 C 232.038 61.133,231.588 60.332,231.490 59.839 C 231.391 59.345,231.052 58.803,230.736 58.634 C 230.421 58.466,230.067 58.005,229.949 57.610 C 229.832 57.215,229.320 56.363,228.812 55.716 C 228.304 55.069,227.888 54.442,227.888 54.324 C 227.888 54.205,227.494 53.628,227.012 53.042 C 225.410 51.093,224.734 50.142,224.346 49.290 C 224.134 48.826,223.844 48.446,223.700 48.446 C 223.557 48.446,223.150 47.880,222.798 47.188 C 222.445 46.497,221.975 45.815,221.753 45.674 C 221.532 45.534,220.946 44.875,220.451 44.211 C 219.956 43.548,218.674 42.113,217.602 41.024 C 216.530 39.935,214.734 37.968,213.612 36.653 C 212.489 35.339,211.298 34.133,210.965 33.975 C 210.631 33.817,210.359 33.502,210.359 33.276 C 210.359 33.050,210.073 32.665,209.724 32.421 C 208.890 31.836,207.651 30.130,206.839 28.446 C 206.479 27.701,206.066 27.092,205.920 27.092 C 205.774 27.092,205.481 26.671,205.268 26.157 C 205.055 25.643,204.543 24.765,204.130 24.205 C 203.718 23.646,203.294 22.798,203.189 22.320 C 202.868 20.855,200.906 20.450,200.614 21.788 " stroke="none" fill="#4f9c49" fill-rule="evenodd"></path><path id="path1" d="M0.000 159.363 L 0.000 318.725 0.797 318.725 L 1.594 318.725 1.594 159.363 L 1.594 0.000 0.797 0.000 L 0.000 0.000 0.000 159.363 M168.847 260.235 C 167.840 260.451,166.472 261.005,165.806 261.466 C 163.698 262.927,161.846 262.951,161.007 261.529 C 160.519 260.702,160.152 260.404,159.759 260.519 C 159.453 260.608,158.486 260.780,157.610 260.901 C 153.828 261.423,151.966 262.935,154.258 263.622 C 156.375 264.256,156.815 265.602,156.804 271.415 C 156.787 280.921,156.398 282.689,154.111 283.660 C 151.882 284.607,153.463 285.003,159.278 284.956 C 164.616 284.914,166.175 284.583,164.755 283.796 C 164.331 283.561,163.753 283.364,163.470 283.358 C 163.187 283.352,162.577 282.968,162.115 282.506 L 161.275 281.666 161.275 274.041 L 161.275 266.416 162.433 265.030 C 164.430 262.642,170.122 262.552,172.441 264.871 C 174.003 266.434,174.093 267.067,173.966 275.644 C 173.854 283.128,173.792 283.347,171.771 283.347 C 170.782 283.347,169.929 284.160,170.412 284.643 C 170.941 285.172,182.151 284.880,182.151 284.338 C 182.151 283.827,181.565 283.462,180.328 283.202 C 178.809 282.884,178.664 282.177,178.466 274.104 C 178.296 267.147,178.229 266.489,177.526 264.861 C 175.859 261.001,172.821 259.382,168.847 260.235 M101.673 260.541 C 99.809 260.968,95.936 262.812,95.936 263.273 C 95.936 263.783,96.406 263.832,98.486 263.536 C 105.555 262.531,107.404 265.337,107.009 276.465 C 106.813 281.994,106.581 282.826,105.027 283.567 C 102.668 284.692,103.811 284.994,109.960 284.872 C 114.795 284.777,116.226 284.238,113.413 283.572 C 111.125 283.031,111.095 282.921,110.910 274.310 C 110.689 264.003,109.617 261.195,105.657 260.557 C 104.956 260.444,104.167 260.304,103.904 260.246 C 103.641 260.187,102.637 260.320,101.673 260.541 M131.155 260.289 C 129.607 260.473,127.809 261.039,127.809 261.343 C 127.809 261.497,127.288 261.796,126.652 262.006 C 115.902 265.554,120.714 286.811,131.882 285.111 C 132.710 284.985,134.466 284.787,135.785 284.672 C 137.645 284.509,138.357 284.301,138.953 283.745 C 139.376 283.351,139.866 283.028,140.043 283.028 C 144.512 283.028,147.537 270.014,144.168 265.280 C 143.848 264.830,143.349 264.106,143.059 263.670 C 141.402 261.180,136.166 259.693,131.155 260.289 M200.159 260.411 C 199.721 260.544,198.502 260.671,197.450 260.692 C 195.106 260.739,192.250 262.387,190.745 264.560 C 189.447 266.434,189.304 272.423,190.518 274.064 C 190.912 274.598,191.235 275.166,191.235 275.327 C 191.235 275.488,191.655 275.794,192.168 276.006 C 193.212 276.439,194.914 278.665,194.596 279.181 C 194.482 279.364,193.774 279.875,193.023 280.315 C 190.834 281.598,190.651 282.436,192.194 284.109 C 193.958 286.023,193.723 287.647,191.503 288.877 C 187.758 290.951,187.504 295.751,191.001 298.376 C 191.549 298.787,192.466 299.528,193.039 300.023 L 194.081 300.923 198.902 300.820 C 203.338 300.725,203.766 300.664,204.261 300.052 C 204.556 299.687,205.162 299.296,205.606 299.185 C 208.652 298.420,212.912 292.913,212.907 289.744 C 212.899 285.018,211.024 283.655,203.870 283.174 C 198.046 282.783,195.853 281.831,196.193 279.841 C 196.464 278.260,196.680 278.131,199.746 277.721 C 201.572 277.477,202.580 277.192,202.760 276.869 C 202.910 276.603,203.425 276.295,203.906 276.186 C 206.397 275.619,208.758 272.141,208.785 269.000 C 208.816 265.279,209.083 264.744,211.316 263.929 C 213.375 263.179,213.647 262.945,213.354 262.181 C 213.189 261.752,212.761 261.705,210.549 261.875 C 208.549 262.029,207.719 261.964,206.998 261.599 C 205.284 260.730,201.353 260.048,200.159 260.411 M228.850 260.444 C 227.889 260.603,226.590 261.088,225.964 261.522 C 225.338 261.956,224.643 262.311,224.419 262.311 C 223.865 262.311,221.195 264.528,221.195 264.987 C 221.195 265.190,220.931 265.582,220.609 265.858 C 219.391 266.901,218.919 272.360,219.662 276.813 C 220.436 281.447,224.536 285.001,229.163 285.048 C 231.721 285.075,236.066 284.727,236.495 284.462 C 237.464 283.863,236.669 283.590,234.502 283.778 C 229.278 284.230,226.275 282.087,224.245 276.455 C 222.642 272.011,223.422 265.631,225.800 263.733 C 226.247 263.376,226.614 262.912,226.614 262.703 C 226.614 262.494,226.972 262.248,227.410 262.157 C 227.849 262.066,228.586 261.913,229.049 261.815 C 231.870 261.223,235.229 262.741,237.625 265.689 C 240.519 269.250,240.690 279.181,237.900 281.631 C 236.876 282.530,236.893 283.347,237.935 283.347 C 238.918 283.347,241.631 280.710,243.028 278.396 C 244.460 276.025,244.585 266.135,243.183 266.135 C 243.019 266.135,242.646 265.669,242.354 265.100 C 240.361 261.209,235.127 259.404,228.850 260.444 M75.004 261.032 C 74.097 261.354,72.555 261.784,71.578 261.987 C 69.358 262.448,69.257 263.076,71.310 263.656 C 74.014 264.420,74.251 265.225,74.258 273.657 L 74.263 280.701 73.351 281.960 C 72.714 282.840,72.041 283.338,71.120 283.614 C 68.254 284.473,69.762 284.930,75.479 284.936 C 80.553 284.941,81.778 284.569,79.719 283.647 C 77.855 282.812,77.769 282.377,77.769 273.787 L 77.769 266.182 78.566 265.555 C 79.524 264.802,79.573 264.226,78.742 263.515 C 78.401 263.223,77.965 262.402,77.774 261.691 C 77.382 260.237,77.296 260.216,75.004 261.032 M84.319 260.757 C 83.626 260.920,82.832 261.258,82.554 261.510 C 82.276 261.762,81.516 262.190,80.865 262.462 C 78.766 263.339,79.397 263.683,82.658 263.438 C 86.947 263.117,87.989 263.465,89.488 265.723 L 90.677 267.514 90.677 274.568 C 90.677 282.490,90.561 282.967,88.458 283.662 C 85.870 284.516,87.258 284.940,92.637 284.940 C 97.782 284.940,99.135 284.535,96.876 283.671 C 94.524 282.771,94.379 282.207,94.323 273.678 L 94.275 266.400 95.140 265.497 C 96.124 264.471,96.024 264.065,94.727 263.806 C 94.230 263.706,93.208 263.028,92.456 262.299 C 90.522 260.422,87.884 259.922,84.319 260.757 M200.303 261.708 C 207.159 263.611,206.703 275.901,199.769 276.104 C 198.197 276.150,195.416 274.624,194.832 273.395 C 191.403 266.180,194.279 260.035,200.303 261.708 M135.299 262.364 C 137.524 263.338,139.691 265.700,140.224 267.733 C 140.431 268.520,140.825 269.858,141.100 270.708 C 142.088 273.759,140.876 280.901,139.220 281.787 C 138.887 281.965,138.490 282.440,138.337 282.842 C 137.911 283.962,134.885 284.331,132.028 283.611 C 126.774 282.288,122.861 270.310,126.052 265.317 C 127.224 263.481,129.005 262.035,130.233 261.921 C 131.826 261.773,134.479 262.005,135.299 262.364 M204.379 286.654 C 205.960 286.960,206.733 287.293,207.312 287.917 C 207.744 288.384,208.224 288.765,208.380 288.765 C 209.897 288.765,209.629 294.973,208.076 295.804 C 207.734 295.988,207.344 296.434,207.210 296.797 C 206.275 299.324,196.853 299.233,194.191 296.670 C 191.938 294.501,191.491 289.115,193.512 288.495 C 193.750 288.423,194.231 288.030,194.582 287.624 C 195.771 286.244,200.064 285.819,204.379 286.654 " stroke="none" fill="#49392f" fill-rule="evenodd"></path><path id="path2" d="M2.231 159.363 L 2.231 318.725 201.116 318.725 L 400.000 318.725 400.000 159.363 L 400.000 0.000 201.116 0.000 L 2.231 0.000 2.231 159.363 M202.368 18.139 C 202.910 18.824,203.565 19.981,203.822 20.709 C 204.079 21.438,204.563 22.419,204.897 22.890 C 205.231 23.360,205.739 24.247,206.026 24.861 C 206.663 26.225,207.659 27.823,208.915 29.495 C 209.816 30.695,210.816 31.794,214.821 35.987 C 215.785 36.997,217.291 38.644,218.167 39.649 C 219.044 40.653,220.120 41.879,220.558 42.373 C 222.007 44.007,223.254 45.528,224.223 46.842 C 224.749 47.555,225.727 48.817,226.397 49.647 C 227.066 50.477,227.960 51.827,228.383 52.647 C 228.805 53.467,229.290 54.224,229.459 54.328 C 229.728 54.495,231.733 57.940,233.840 61.855 C 234.220 62.563,234.693 63.336,234.890 63.573 C 235.402 64.190,239.363 72.301,239.363 72.732 C 239.363 72.930,239.713 73.689,240.141 74.420 C 240.569 75.151,241.095 76.454,241.309 77.317 C 241.523 78.179,241.874 79.171,242.088 79.522 C 242.303 79.873,242.655 80.948,242.872 81.912 C 243.088 82.876,243.516 84.096,243.823 84.622 C 244.130 85.147,244.477 86.216,244.595 86.997 C 244.713 87.778,245.098 88.883,245.450 89.454 C 245.802 90.024,246.283 91.680,246.517 93.134 C 246.752 94.587,247.166 96.422,247.437 97.211 C 249.525 103.285,250.763 128.534,249.273 134.661 C 248.816 136.542,248.366 139.015,247.994 141.695 C 247.846 142.759,247.513 144.050,247.252 144.564 C 246.992 145.078,246.613 146.638,246.410 148.031 C 246.207 149.424,245.841 150.787,245.597 151.059 C 245.353 151.331,244.913 152.486,244.620 153.625 C 244.327 154.765,243.934 155.881,243.748 156.106 C 243.563 156.331,243.064 157.478,242.641 158.656 C 242.218 159.833,241.595 161.570,241.256 162.516 C 240.917 163.461,240.513 164.393,240.357 164.587 C 240.201 164.781,239.054 166.938,237.808 169.379 C 236.562 171.821,235.272 174.115,234.940 174.479 C 234.609 174.842,234.105 175.570,233.820 176.096 C 233.535 176.622,233.038 177.410,232.714 177.849 C 232.390 178.287,231.567 179.499,230.883 180.542 C 230.200 181.585,229.426 182.672,229.163 182.957 C 228.479 183.701,227.547 184.850,226.506 186.237 C 225.257 187.900,214.218 198.884,213.796 198.884 C 213.608 198.884,213.152 199.176,212.783 199.533 C 212.414 199.889,211.476 200.786,210.700 201.525 C 207.400 204.666,206.509 209.734,207.011 222.503 C 207.269 229.064,206.661 229.970,203.347 227.967 C 201.189 226.663,201.116 226.487,201.116 222.595 C 201.116 220.621,200.977 218.641,200.807 218.195 C 200.638 217.749,200.277 215.582,200.005 213.381 C 199.589 210.001,199.192 208.259,197.716 203.328 C 197.634 203.055,197.111 202.583,196.552 202.281 C 195.994 201.978,194.749 201.016,193.785 200.143 C 192.821 199.271,191.530 198.115,190.916 197.574 C 188.709 195.631,185.611 192.549,183.108 189.808 C 181.705 188.272,180.199 186.638,179.761 186.177 C 179.322 185.716,178.319 184.478,177.531 183.426 C 176.742 182.375,175.936 181.410,175.740 181.282 C 175.543 181.155,175.203 180.617,174.983 180.087 C 174.764 179.557,174.484 179.124,174.361 179.124 C 174.239 179.124,173.503 178.099,172.727 176.847 C 171.950 175.596,171.013 174.269,170.644 173.899 C 170.275 173.530,169.780 172.689,169.544 172.032 C 169.308 171.375,169.003 170.837,168.867 170.837 C 168.730 170.837,168.309 170.227,167.932 169.482 C 167.554 168.737,167.130 168.053,166.989 167.962 C 166.849 167.871,166.439 167.153,166.080 166.368 C 165.720 165.583,165.288 164.725,165.119 164.462 C 164.949 164.199,164.386 163.052,163.866 161.912 C 163.346 160.773,162.407 158.714,161.779 157.337 C 161.151 155.961,160.637 154.593,160.637 154.297 C 160.637 154.002,160.360 153.216,160.021 152.550 C 159.681 151.885,159.251 150.628,159.064 149.758 C 158.878 148.888,158.514 147.768,158.257 147.270 C 158.000 146.773,157.562 145.238,157.284 143.860 C 157.006 142.482,156.566 140.781,156.307 140.080 C 156.048 139.378,155.616 137.012,155.347 134.821 C 155.078 132.629,154.657 129.259,154.411 127.331 C 153.745 122.117,153.847 112.797,154.611 108.944 C 154.948 107.245,155.301 104.520,155.396 102.888 C 155.561 100.051,156.956 92.315,157.972 88.606 C 158.236 87.641,158.652 85.893,158.897 84.720 C 159.141 83.547,159.633 82.043,159.989 81.378 C 160.346 80.713,160.637 79.860,160.637 79.482 C 160.637 78.706,163.080 71.577,163.681 70.598 C 163.896 70.247,164.252 69.386,164.472 68.685 C 164.692 67.984,165.070 67.124,165.312 66.773 C 165.555 66.422,165.907 65.562,166.095 64.861 C 166.283 64.159,166.602 63.391,166.804 63.152 C 167.175 62.715,168.294 60.645,169.585 58.008 C 169.971 57.219,170.467 56.468,170.686 56.339 C 170.905 56.209,171.178 55.732,171.292 55.277 C 171.406 54.822,171.960 53.769,172.523 52.936 C 173.085 52.104,173.904 50.813,174.343 50.067 C 174.781 49.322,175.534 48.261,176.016 47.711 C 176.498 47.161,176.892 46.595,176.892 46.454 C 176.892 46.190,180.127 41.903,181.419 40.455 C 181.822 40.003,182.869 38.797,183.745 37.774 C 185.675 35.520,191.411 29.738,193.801 27.637 C 195.790 25.889,195.661 26.014,196.987 24.542 C 198.316 23.068,199.406 21.139,199.688 19.761 C 200.295 16.804,200.981 16.388,202.368 18.139 M276.235 246.022 C 281.228 247.234,286.699 250.914,287.347 253.498 C 287.457 253.937,287.742 254.371,287.980 254.462 C 291.512 255.818,291.478 272.253,287.935 276.033 C 287.515 276.481,287.170 276.983,287.167 277.149 C 287.155 278.131,281.255 283.052,279.363 283.659 C 278.661 283.883,277.914 284.205,277.702 284.373 C 275.772 285.902,252.647 286.768,251.101 285.369 C 249.923 284.303,250.373 283.525,253.017 282.052 C 254.989 280.955,254.913 281.599,254.944 265.657 C 254.975 249.493,255.097 250.249,252.356 249.700 C 249.152 249.058,248.133 246.180,250.919 245.643 C 253.508 245.144,273.871 245.449,276.235 246.022 M317.450 245.871 C 323.718 247.819,327.062 252.690,325.130 257.056 C 324.763 257.887,324.462 258.767,324.462 259.012 C 324.462 259.256,323.658 260.260,322.676 261.242 C 320.956 262.963,320.808 263.563,322.099 263.581 C 322.510 263.587,325.465 265.800,325.835 266.379 C 325.977 266.601,326.373 267.043,326.715 267.362 C 328.697 269.209,329.444 274.049,328.127 276.525 C 327.689 277.349,327.331 278.195,327.331 278.405 C 327.331 278.724,324.826 281.192,322.823 282.846 C 321.767 283.718,318.945 284.949,316.929 285.417 C 313.895 286.120,296.487 286.115,295.124 285.410 C 293.374 284.505,294.316 282.883,297.235 281.775 C 299.369 280.965,299.318 281.367,299.384 265.075 C 299.449 249.071,299.614 250.188,297.115 249.729 C 295.802 249.487,294.183 248.145,294.183 247.298 C 294.183 245.463,312.520 244.338,317.450 245.871 M263.665 249.903 L 262.629 250.581 262.629 264.636 L 262.629 278.691 263.449 279.874 C 265.408 282.700,272.311 282.742,276.563 279.954 C 285.425 274.145,284.875 256.026,275.709 251.821 C 275.089 251.537,274.223 251.073,273.785 250.791 C 271.850 249.546,265.115 248.955,263.665 249.903 M307.649 250.037 L 306.614 250.487 306.614 255.910 C 306.614 262.419,306.353 262.080,311.313 262.015 C 316.006 261.953,317.559 260.726,318.010 256.721 C 318.170 255.302,316.888 251.793,316.209 251.793 C 316.033 251.793,315.512 251.443,315.051 251.016 C 314.451 250.460,313.698 250.184,312.405 250.046 C 311.411 249.940,310.167 249.794,309.641 249.721 C 309.116 249.648,308.219 249.790,307.649 250.037 M139.536 259.499 C 142.163 260.752,144.781 263.391,146.263 266.279 L 147.313 268.327 147.202 272.776 C 147.113 276.349,146.988 277.341,146.566 277.816 C 146.276 278.141,145.822 278.908,145.556 279.522 C 144.592 281.747,139.856 285.896,138.280 285.896 C 137.943 285.896,137.284 286.147,136.816 286.454 C 135.647 287.221,130.077 287.250,128.446 286.497 C 127.833 286.215,126.721 285.727,125.977 285.414 C 124.652 284.856,121.434 281.816,121.434 281.122 C 121.434 280.929,121.152 280.382,120.808 279.907 C 118.995 277.409,118.984 268.200,120.791 265.757 C 121.145 265.278,121.434 264.750,121.434 264.582 C 121.434 264.161,124.378 261.363,124.826 261.358 C 125.027 261.356,125.260 261.175,125.344 260.955 C 125.428 260.735,126.053 260.359,126.733 260.119 C 127.412 259.879,128.215 259.467,128.517 259.203 C 130.075 257.840,136.413 258.010,139.536 259.499 M175.066 259.539 C 176.212 260.300,177.312 261.401,178.077 262.553 L 179.283 264.368 179.447 272.561 C 179.538 277.067,179.681 280.818,179.766 280.896 C 179.851 280.975,180.637 281.399,181.514 281.840 C 184.437 283.308,184.866 284.531,182.938 285.904 C 181.856 286.674,170.905 286.933,170.032 286.209 C 168.631 285.046,169.309 282.918,171.473 281.682 L 172.744 280.956 172.747 274.551 C 172.749 267.862,172.674 267.422,171.211 265.547 C 169.954 263.935,165.540 264.014,163.801 265.680 L 162.869 266.573 162.869 273.629 C 162.869 281.507,162.771 281.146,165.259 282.506 C 167.204 283.569,167.169 285.489,165.191 286.241 C 163.632 286.834,153.313 286.638,152.611 286.003 C 150.943 284.493,151.346 283.117,153.759 282.083 C 155.508 281.333,155.541 281.167,155.527 273.028 C 155.514 265.620,155.476 265.493,152.957 264.265 C 150.337 262.989,150.713 260.722,153.625 260.230 C 155.993 259.830,157.895 259.339,158.692 258.923 C 160.100 258.188,161.165 258.389,162.563 259.651 C 163.539 260.533,163.942 260.727,164.221 260.448 C 164.424 260.245,164.828 260.080,165.120 260.080 C 165.412 260.080,166.033 259.779,166.499 259.412 C 168.672 257.703,172.383 257.758,175.066 259.539 M236.934 259.096 C 237.656 259.420,238.591 259.790,239.011 259.919 C 244.918 261.726,247.615 274.128,243.455 280.362 C 242.315 282.071,240.629 283.984,240.263 283.984 C 240.134 283.984,239.539 284.316,238.941 284.722 C 235.672 286.940,229.909 287.767,226.932 286.445 C 226.319 286.172,225.347 285.775,224.772 285.562 C 222.465 284.706,219.660 281.642,219.096 279.363 C 218.966 278.837,218.575 278.020,218.227 277.547 C 217.255 276.226,217.231 269.465,218.195 268.155 C 218.560 267.658,218.958 266.853,219.079 266.367 C 219.532 264.543,223.828 260.132,225.192 260.090 C 225.374 260.084,226.091 259.784,226.785 259.423 C 229.410 258.057,234.266 257.901,236.934 259.096 M78.017 258.982 C 78.476 259.304,78.725 259.808,78.725 260.416 C 78.725 261.560,80.170 261.762,81.090 260.746 C 81.393 260.411,82.024 260.041,82.494 259.924 C 82.963 259.807,83.597 259.486,83.903 259.210 C 84.612 258.571,88.759 258.278,89.880 258.788 C 91.353 259.458,92.197 260.019,92.943 260.824 C 94.029 261.995,94.833 262.144,96.025 261.396 C 102.738 257.185,107.422 257.511,110.679 262.415 C 112.232 264.755,112.510 266.579,112.510 274.438 L 112.510 281.029 113.722 281.869 C 114.389 282.331,115.070 282.714,115.236 282.719 C 115.909 282.742,116.689 284.278,116.349 284.913 C 115.445 286.602,114.969 286.705,108.836 286.534 L 103.130 286.375 102.672 285.556 C 101.946 284.261,102.409 283.183,104.039 282.369 C 104.835 281.971,105.525 281.373,105.627 280.992 C 105.936 279.843,105.831 269.226,105.499 268.048 C 104.523 264.581,100.313 263.290,97.274 265.526 L 95.936 266.509 95.936 273.812 C 95.936 281.544,96.105 282.390,97.646 282.390 C 99.340 282.390,100.189 284.416,99.044 285.724 C 98.269 286.608,89.368 287.136,86.758 286.452 C 84.724 285.920,84.680 283.223,86.697 282.820 C 88.916 282.376,89.754 279.461,89.432 273.307 C 89.093 266.837,88.047 264.655,85.203 264.486 C 82.625 264.333,81.770 264.537,80.506 265.606 L 79.260 266.661 79.219 273.649 C 79.173 281.455,79.413 282.385,81.585 282.819 C 82.813 283.065,83.394 284.117,82.857 285.121 C 82.100 286.536,81.181 286.706,75.227 286.534 L 69.708 286.375 69.076 285.526 C 68.119 284.242,68.529 283.241,70.451 282.169 C 72.463 281.047,72.405 281.337,72.289 272.928 C 72.184 265.394,71.993 264.542,70.407 264.542 C 69.330 264.542,68.133 263.195,68.370 262.250 C 68.731 260.812,69.564 260.354,72.397 260.037 C 74.037 259.854,75.394 259.508,76.000 259.120 C 77.178 258.365,77.139 258.367,78.017 258.982 M204.580 259.139 C 206.179 259.973,209.317 260.329,211.886 259.968 C 215.561 259.452,216.620 263.308,213.217 264.814 C 211.170 265.720,210.677 266.375,210.677 268.191 C 210.677 271.195,207.028 276.972,205.131 276.972 C 204.840 276.972,204.524 277.174,204.429 277.421 C 204.194 278.034,202.906 278.477,200.697 278.704 C 199.209 278.857,198.697 279.066,198.092 279.766 L 197.338 280.637 198.032 280.845 C 198.413 280.959,199.657 281.067,200.797 281.086 C 209.200 281.225,212.901 282.826,214.392 286.967 C 215.043 288.773,214.438 293.865,213.574 293.865 C 213.448 293.865,213.117 294.342,212.839 294.926 C 212.341 295.970,208.511 299.602,207.908 299.602 C 207.738 299.602,206.896 300.068,206.036 300.637 L 204.473 301.673 198.890 301.673 L 193.307 301.673 191.276 300.389 C 186.640 297.457,185.470 292.271,188.780 289.326 C 189.517 288.671,190.559 287.693,191.096 287.153 L 192.072 286.171 190.878 284.976 C 188.775 282.874,189.195 280.363,191.793 279.498 C 192.363 279.309,192.829 279.050,192.829 278.923 C 192.829 278.627,190.252 276.016,189.961 276.016 C 189.738 276.016,189.164 274.939,188.196 272.708 C 187.441 270.966,187.528 267.465,188.365 265.902 C 188.717 265.247,189.004 264.559,189.004 264.374 C 189.004 263.930,191.636 261.355,192.090 261.355 C 192.283 261.355,192.519 261.154,192.613 260.909 C 192.707 260.663,193.332 260.287,194.002 260.071 C 194.671 259.856,195.434 259.502,195.697 259.284 C 196.970 258.229,202.656 258.137,204.580 259.139 M130.996 262.943 C 129.980 263.153,128.147 264.510,127.760 265.339 C 127.597 265.689,127.256 266.335,127.003 266.773 C 126.229 268.115,126.353 274.867,127.174 276.020 C 127.526 276.514,127.905 277.373,128.016 277.929 C 128.127 278.485,128.418 279.016,128.663 279.110 C 128.907 279.204,129.304 279.662,129.545 280.127 C 131.046 283.030,136.105 283.114,138.445 280.276 L 139.442 279.066 139.442 274.062 C 139.442 269.471,139.387 268.982,138.770 268.148 C 138.400 267.648,137.997 266.922,137.874 266.535 C 137.634 265.778,135.549 263.904,134.946 263.904 C 134.745 263.904,134.414 263.704,134.211 263.460 C 133.793 262.957,132.186 262.698,130.996 262.943 M196.079 263.722 C 194.459 265.566,194.649 271.150,196.397 273.101 C 197.810 274.677,201.512 274.749,202.777 273.225 C 203.267 272.634,203.599 268.475,203.289 266.803 C 202.619 263.187,198.205 261.301,196.079 263.722 M229.989 262.886 C 223.144 263.728,223.498 278.666,230.437 281.804 C 234.810 283.782,238.061 280.968,238.351 274.954 C 238.485 272.177,237.798 268.301,237.095 267.866 C 236.940 267.770,236.813 267.470,236.813 267.199 C 236.813 265.400,232.371 262.593,229.989 262.886 M307.529 266.326 C 306.480 266.649,306.140 277.630,307.115 279.685 C 308.548 282.705,315.860 282.655,318.785 279.605 C 321.711 276.555,320.174 267.729,316.717 267.729 C 316.502 267.729,315.782 267.438,315.118 267.082 C 313.926 266.443,308.804 265.933,307.529 266.326 M195.854 288.413 C 195.330 288.947,194.718 289.389,194.494 289.394 C 193.008 289.426,193.108 293.610,194.629 295.003 C 199.109 299.107,208.446 297.029,208.446 291.928 C 208.446 290.580,207.068 288.765,206.045 288.765 C 205.813 288.765,205.373 288.514,205.066 288.207 C 204.611 287.751,203.808 287.630,200.659 287.545 L 196.808 287.441 195.854 288.413 " stroke="none" fill="#f3f3f3" fill-rule="evenodd"></path><path id="path3" d="M2.070 159.363 C 2.070 247.100,2.107 282.992,2.151 239.124 C 2.196 195.255,2.196 123.470,2.151 79.602 C 2.107 35.733,2.070 71.625,2.070 159.363 M200.365 17.769 C 200.119 18.251,199.814 19.147,199.688 19.761 C 199.406 21.139,198.316 23.068,196.987 24.542 C 195.661 26.014,195.790 25.889,193.801 27.637 C 191.411 29.738,185.675 35.520,183.745 37.774 C 182.869 38.797,181.822 40.003,181.419 40.455 C 180.127 41.903,176.892 46.190,176.892 46.454 C 176.892 46.595,176.498 47.161,176.016 47.711 C 175.534 48.261,174.781 49.322,174.343 50.067 C 173.904 50.813,173.085 52.104,172.523 52.936 C 171.960 53.769,171.406 54.822,171.292 55.277 C 171.178 55.732,170.905 56.209,170.686 56.339 C 170.467 56.468,169.971 57.219,169.585 58.008 C 168.294 60.645,167.175 62.715,166.804 63.152 C 166.602 63.391,166.283 64.159,166.095 64.861 C 165.907 65.562,165.555 66.422,165.312 66.773 C 165.070 67.124,164.692 67.984,164.472 68.685 C 164.252 69.386,163.896 70.247,163.681 70.598 C 163.080 71.577,160.637 78.706,160.637 79.482 C 160.637 79.860,160.346 80.713,159.989 81.378 C 159.633 82.043,159.141 83.547,158.897 84.720 C 158.652 85.893,158.236 87.641,157.972 88.606 C 156.956 92.315,155.561 100.051,155.396 102.888 C 155.301 104.520,154.948 107.245,154.611 108.944 C 153.847 112.797,153.745 122.117,154.411 127.331 C 154.657 129.259,155.078 132.629,155.347 134.821 C 155.616 137.012,156.048 139.378,156.307 140.080 C 156.566 140.781,157.006 142.482,157.284 143.860 C 157.562 145.238,158.000 146.773,158.257 147.270 C 158.514 147.768,158.878 148.888,159.064 149.758 C 159.251 150.628,159.681 151.885,160.021 152.550 C 160.360 153.216,160.637 154.002,160.637 154.297 C 160.637 154.593,161.151 155.961,161.779 157.337 C 162.407 158.714,163.346 160.773,163.866 161.912 C 164.386 163.052,164.949 164.199,165.119 164.462 C 165.288 164.725,165.720 165.583,166.080 166.368 C 166.439 167.153,166.849 167.871,166.989 167.962 C 167.130 168.053,167.554 168.737,167.932 169.482 C 168.309 170.227,168.730 170.837,168.867 170.837 C 169.003 170.837,169.308 171.375,169.544 172.032 C 169.780 172.689,170.275 173.530,170.644 173.899 C 171.013 174.269,171.950 175.596,172.727 176.847 C 173.503 178.099,174.239 179.124,174.361 179.124 C 174.484 179.124,174.764 179.557,174.983 180.087 C 175.203 180.617,175.543 181.155,175.740 181.282 C 175.936 181.410,176.742 182.375,177.531 183.426 C 178.319 184.478,179.322 185.716,179.761 186.177 C 180.199 186.638,181.705 188.272,183.108 189.808 C 185.611 192.549,188.709 195.631,190.916 197.574 C 191.530 198.115,192.821 199.271,193.785 200.143 C 194.749 201.016,195.994 201.978,196.552 202.281 C 197.111 202.583,197.634 203.055,197.716 203.328 C 199.192 208.259,199.589 210.001,200.005 213.381 C 200.277 215.582,200.638 217.749,200.807 218.195 C 200.977 218.641,201.116 220.621,201.116 222.595 C 201.116 226.487,201.189 226.663,203.347 227.967 C 206.661 229.970,207.269 229.064,207.011 222.503 C 206.509 209.734,207.400 204.666,210.700 201.525 C 211.476 200.786,212.414 199.889,212.783 199.533 C 213.152 199.176,213.608 198.884,213.796 198.884 C 214.218 198.884,225.257 187.900,226.506 186.237 C 227.547 184.850,228.479 183.701,229.163 182.957 C 229.426 182.672,230.200 181.585,230.883 180.542 C 231.567 179.499,232.390 178.287,232.714 177.849 C 233.038 177.410,233.535 176.622,233.820 176.096 C 234.105 175.570,234.609 174.842,234.940 174.479 C 235.272 174.115,236.562 171.821,237.808 169.379 C 239.054 166.938,240.201 164.781,240.357 164.587 C 240.513 164.393,240.917 163.461,241.256 162.516 C 241.595 161.570,242.218 159.833,242.641 158.656 C 243.064 157.478,243.563 156.331,243.748 156.106 C 243.934 155.881,244.327 154.765,244.620 153.625 C 244.913 152.486,245.353 151.331,245.597 151.059 C 245.841 150.787,246.207 149.424,246.410 148.031 C 246.613 146.638,246.992 145.078,247.252 144.564 C 247.513 144.050,247.846 142.759,247.994 141.695 C 248.366 139.015,248.816 136.542,249.273 134.661 C 250.763 128.534,249.525 103.285,247.437 97.211 C 247.166 96.422,246.752 94.587,246.517 93.134 C 246.283 91.680,245.802 90.024,245.450 89.454 C 245.098 88.883,244.713 87.778,244.595 86.997 C 244.477 86.216,244.130 85.147,243.823 84.622 C 243.516 84.096,243.088 82.876,242.872 81.912 C 242.655 80.948,242.303 79.873,242.088 79.522 C 241.874 79.171,241.523 78.179,241.309 77.317 C 241.095 76.454,240.569 75.151,240.141 74.420 C 239.713 73.689,239.363 72.930,239.363 72.732 C 239.363 72.301,235.402 64.190,234.890 63.573 C 234.693 63.336,234.220 62.563,233.840 61.855 C 231.733 57.940,229.728 54.495,229.459 54.328 C 229.290 54.224,228.805 53.467,228.383 52.647 C 227.960 51.827,227.066 50.477,226.397 49.647 C 225.727 48.817,224.749 47.555,224.223 46.842 C 223.254 45.528,222.007 44.007,220.558 42.373 C 220.120 41.879,219.044 40.653,218.167 39.649 C 217.291 38.644,215.785 36.997,214.821 35.987 C 210.816 31.794,209.816 30.695,208.915 29.495 C 207.659 27.823,206.663 26.225,206.026 24.861 C 205.739 24.247,205.231 23.360,204.897 22.890 C 204.563 22.419,204.079 21.438,203.822 20.709 C 203.337 19.335,201.593 16.892,201.097 16.892 C 200.941 16.892,200.612 17.287,200.365 17.769 M204.004 23.108 C 204.568 24.159,205.228 25.399,205.470 25.863 C 205.712 26.327,206.122 26.882,206.381 27.097 C 206.640 27.312,206.853 27.654,206.853 27.856 C 206.853 28.443,209.251 31.494,211.901 34.278 C 216.728 39.350,220.407 43.405,220.871 44.166 C 221.130 44.592,221.449 44.940,221.578 44.940 C 221.707 44.940,222.355 45.753,223.018 46.747 C 223.681 47.741,224.546 48.996,224.941 49.536 C 226.365 51.482,227.422 53.001,228.048 54.000 C 228.398 54.559,228.875 55.224,229.108 55.477 C 229.674 56.093,230.916 58.185,231.678 59.806 C 232.019 60.531,232.449 61.219,232.634 61.333 C 232.819 61.447,233.565 62.790,234.291 64.316 C 235.018 65.843,236.298 68.526,237.136 70.279 C 237.974 72.032,238.761 73.825,238.885 74.263 C 239.009 74.701,239.289 75.347,239.508 75.697 C 239.727 76.048,240.513 78.127,241.255 80.319 C 241.997 82.510,242.861 84.805,243.175 85.418 C 243.489 86.032,243.927 87.323,244.147 88.287 C 244.367 89.251,244.732 90.404,244.957 90.850 C 245.182 91.295,245.539 92.586,245.751 93.718 C 245.963 94.851,246.403 96.709,246.729 97.849 C 248.361 103.553,249.507 123.113,248.622 130.168 C 248.444 131.588,248.033 134.902,247.707 137.533 C 247.382 140.164,246.953 142.622,246.754 142.994 C 246.555 143.366,246.229 144.727,246.031 146.019 C 245.833 147.310,245.327 149.187,244.907 150.190 C 244.487 151.192,244.143 152.241,244.143 152.520 C 244.143 152.800,243.733 153.916,243.232 155.000 C 242.731 156.085,241.928 158.048,241.446 159.363 C 240.965 160.677,240.375 162.112,240.135 162.550 C 239.894 162.988,238.680 165.426,237.437 167.968 C 234.699 173.564,235.473 172.281,230.438 179.571 C 230.175 179.952,229.167 181.262,228.198 182.482 C 227.229 183.703,226.206 185.060,225.925 185.498 C 225.176 186.663,215.727 196.082,213.093 198.288 C 211.852 199.328,210.587 200.413,210.281 200.701 C 209.484 201.450,206.746 200.930,206.593 200.000 C 206.536 199.649,206.125 199.058,205.680 198.686 C 205.099 198.199,204.824 197.593,204.705 196.534 C 204.596 195.565,204.386 195.060,204.094 195.060 C 203.477 195.060,203.028 193.716,203.028 191.871 C 203.028 191.016,202.905 190.241,202.755 190.148 C 202.482 189.979,202.072 193.622,202.072 196.211 C 202.072 197.174,201.881 197.762,201.435 198.178 C 200.993 198.590,200.736 199.374,200.592 200.754 C 200.343 203.132,199.606 203.849,198.750 202.544 C 198.465 202.109,198.034 201.753,197.792 201.753 C 197.082 201.753,192.744 198.079,188.580 193.952 C 187.113 192.498,185.604 191.144,185.227 190.942 C 184.850 190.740,184.542 190.415,184.542 190.219 C 184.542 190.023,183.717 189.039,182.709 188.032 C 181.701 187.025,180.088 185.101,179.124 183.756 C 178.159 182.411,176.582 180.333,175.618 179.139 C 174.653 177.945,173.578 176.492,173.227 175.910 C 172.876 175.328,172.429 174.586,172.233 174.261 C 172.037 173.937,171.582 173.397,171.222 173.061 C 170.862 172.726,170.469 172.124,170.348 171.724 C 170.227 171.324,169.802 170.637,169.405 170.199 C 169.008 169.761,168.514 168.876,168.309 168.233 C 168.104 167.589,167.728 166.890,167.474 166.680 C 167.220 166.469,167.012 166.156,167.012 165.985 C 167.012 165.813,166.243 164.146,165.304 162.279 C 164.365 160.412,163.432 158.382,163.232 157.769 C 163.031 157.155,162.509 155.948,162.071 155.085 C 161.633 154.223,161.275 153.322,161.275 153.083 C 161.275 152.844,160.870 151.542,160.374 150.189 C 158.689 145.586,157.820 142.633,157.645 140.916 C 157.549 139.973,157.235 138.843,156.947 138.403 C 156.608 137.885,156.324 136.412,156.141 134.220 C 155.986 132.359,155.700 129.259,155.505 127.331 C 154.930 121.626,155.011 116.798,155.836 107.729 C 156.020 105.713,156.171 103.126,156.173 101.980 C 156.174 100.544,156.369 99.515,156.800 98.670 C 157.159 97.967,157.564 96.199,157.751 94.517 C 157.931 92.906,158.367 90.683,158.720 89.577 C 159.073 88.471,159.363 87.306,159.363 86.987 C 159.363 86.668,159.773 85.217,160.276 83.762 C 160.778 82.306,161.414 80.398,161.689 79.522 C 162.587 76.663,164.324 71.929,165.489 69.163 C 166.117 67.673,166.725 66.035,166.841 65.523 C 166.957 65.011,167.326 64.244,167.661 63.818 C 167.996 63.391,168.361 62.561,168.471 61.971 C 168.582 61.382,168.884 60.724,169.142 60.509 C 169.400 60.295,169.963 59.465,170.393 58.665 C 171.982 55.705,172.773 54.365,173.028 54.197 C 173.173 54.102,173.474 53.665,173.698 53.227 C 174.072 52.493,177.130 47.898,179.000 45.259 C 180.401 43.282,182.765 40.392,183.665 39.556 C 184.147 39.109,184.542 38.612,184.542 38.452 C 184.542 38.292,184.865 37.847,185.259 37.464 C 185.653 37.081,186.994 35.702,188.238 34.399 C 189.482 33.097,191.418 31.199,192.541 30.180 C 198.633 24.653,200.748 22.037,200.786 19.977 C 200.805 18.967,202.851 20.958,204.004 23.108 M250.919 245.643 C 248.133 246.180,249.152 249.058,252.356 249.700 C 255.097 250.249,254.975 249.493,254.944 265.657 C 254.913 281.599,254.989 280.955,253.017 282.052 C 250.373 283.525,249.923 284.303,251.101 285.369 C 252.647 286.768,275.772 285.902,277.702 284.373 C 277.914 284.205,278.661 283.883,279.363 283.659 C 281.255 283.052,287.155 278.131,287.167 277.149 C 287.170 276.983,287.515 276.481,287.935 276.033 C 291.478 272.253,291.512 255.818,287.980 254.462 C 287.742 254.371,287.457 253.937,287.347 253.498 C 286.699 250.914,281.228 247.234,276.235 246.022 C 273.871 245.449,253.508 245.144,250.919 245.643 M295.060 246.092 C 293.503 247.254,294.644 249.274,297.115 249.729 C 299.614 250.188,299.449 249.071,299.384 265.075 C 299.318 281.367,299.369 280.965,297.235 281.775 C 294.316 282.883,293.374 284.505,295.124 285.410 C 296.487 286.115,313.895 286.120,316.929 285.417 C 318.945 284.949,321.767 283.718,322.823 282.846 C 324.826 281.192,327.331 278.724,327.331 278.405 C 327.331 278.195,327.689 277.349,328.127 276.525 C 329.444 274.049,328.697 269.209,326.715 267.362 C 326.373 267.043,325.977 266.601,325.835 266.379 C 325.465 265.800,322.510 263.587,322.099 263.581 C 320.808 263.563,320.956 262.963,322.676 261.242 C 323.658 260.260,324.462 259.256,324.462 259.012 C 324.462 258.767,324.763 257.887,325.130 257.056 C 327.062 252.690,323.718 247.819,317.450 245.871 C 314.853 245.064,296.192 245.248,295.060 246.092 M277.701 247.752 C 281.409 248.943,286.215 252.274,286.215 253.652 C 286.215 253.808,286.538 254.421,286.932 255.015 C 289.271 258.538,290.066 265.589,288.707 270.757 C 287.601 274.966,286.349 276.942,282.705 280.232 C 281.489 281.329,277.451 283.210,275.661 283.512 C 274.912 283.639,274.113 283.930,273.883 284.159 C 273.208 284.835,270.648 284.977,261.036 284.876 C 251.344 284.774,250.189 284.550,253.386 283.389 C 254.623 282.940,254.940 282.627,255.687 281.116 L 256.553 279.363 256.563 265.724 C 256.575 250.423,256.538 250.156,254.257 249.079 C 249.283 246.729,249.349 246.713,263.267 246.789 L 274.900 246.853 277.701 247.752 M318.088 247.375 C 318.526 247.662,319.410 248.063,320.051 248.267 C 322.890 249.166,324.479 252.262,324.033 256.026 C 323.823 257.801,323.179 259.761,322.806 259.761 C 322.447 259.761,319.681 262.531,319.681 262.891 C 319.681 263.250,320.329 263.809,321.551 264.504 C 325.444 266.719,327.047 269.061,327.266 272.853 C 327.546 277.679,322.105 283.665,317.439 283.665 C 317.095 283.665,316.813 283.797,316.813 283.958 C 316.813 284.865,297.390 285.477,296.096 284.611 C 295.488 284.204,296.469 283.347,297.542 283.347 C 297.920 283.347,298.730 282.860,299.342 282.266 L 300.455 281.185 300.666 275.362 C 300.782 272.160,300.876 265.272,300.876 260.057 L 300.876 250.575 299.841 249.748 C 299.271 249.293,298.578 248.707,298.300 248.445 C 298.022 248.183,297.502 247.968,297.144 247.968 C 296.418 247.968,295.656 247.239,296.011 246.884 C 296.534 246.361,317.243 246.821,318.088 247.375 M262.546 249.094 L 261.355 250.623 261.355 264.769 C 261.355 280.031,261.356 280.050,263.067 281.487 C 265.173 283.257,273.939 284.468,274.158 283.019 C 274.233 282.520,274.692 282.160,275.774 281.751 C 279.798 280.229,283.187 275.086,283.734 269.670 C 284.144 265.605,283.641 259.369,282.808 258.207 C 282.479 257.747,281.946 256.769,281.623 256.035 C 281.300 255.300,280.838 254.623,280.598 254.531 C 280.357 254.438,280.159 254.160,280.159 253.912 C 280.159 253.010,274.885 249.797,272.746 249.396 C 272.087 249.272,271.187 248.887,270.745 248.539 C 270.114 248.043,269.273 247.870,266.839 247.736 L 263.737 247.565 262.546 249.094 M306.980 248.714 C 305.889 249.876,305.657 251.251,305.657 256.580 C 305.657 263.502,305.970 263.858,311.523 263.260 C 316.172 262.760,316.909 262.510,317.861 261.115 C 321.137 256.314,318.733 250.283,313.109 249.194 C 312.078 248.995,311.009 248.637,310.732 248.400 C 309.893 247.680,307.786 247.856,306.980 248.714 M271.076 249.940 C 272.127 250.126,273.347 250.509,273.785 250.791 C 274.223 251.073,275.089 251.537,275.709 251.821 C 284.875 256.026,285.425 274.145,276.563 279.954 C 272.311 282.742,265.408 282.700,263.449 279.874 L 262.629 278.691 262.629 264.636 L 262.629 250.581 263.665 249.903 C 264.784 249.171,266.782 249.181,271.076 249.940 M312.405 250.046 C 313.698 250.184,314.451 250.460,315.051 251.016 C 315.512 251.443,316.033 251.793,316.209 251.793 C 316.888 251.793,318.170 255.302,318.010 256.721 C 317.559 260.726,316.006 261.953,311.313 262.015 C 306.353 262.080,306.614 262.419,306.614 255.910 L 306.614 250.487 307.649 250.037 C 308.219 249.790,309.116 249.648,309.641 249.721 C 310.167 249.794,311.411 249.940,312.405 250.046 M130.907 258.467 C 129.894 258.607,128.819 258.939,128.517 259.203 C 128.215 259.467,127.412 259.879,126.733 260.119 C 126.053 260.359,125.428 260.735,125.344 260.955 C 125.260 261.175,125.027 261.356,124.826 261.358 C 124.378 261.363,121.434 264.161,121.434 264.582 C 121.434 264.750,121.145 265.278,120.791 265.757 C 118.984 268.200,118.995 277.409,120.808 279.907 C 121.152 280.382,121.434 280.929,121.434 281.122 C 121.434 281.816,124.652 284.856,125.977 285.414 C 126.721 285.727,127.833 286.215,128.446 286.497 C 130.077 287.250,135.647 287.221,136.816 286.454 C 137.284 286.147,137.943 285.896,138.280 285.896 C 139.856 285.896,144.592 281.747,145.556 279.522 C 145.822 278.908,146.276 278.141,146.566 277.816 C 146.988 277.341,147.113 276.349,147.202 272.776 L 147.313 268.327 146.263 266.279 C 143.188 260.284,137.749 257.517,130.907 258.467 M168.216 258.467 C 167.738 258.620,166.966 259.045,166.499 259.412 C 166.033 259.779,165.412 260.080,165.120 260.080 C 164.828 260.080,164.424 260.245,164.221 260.448 C 163.942 260.727,163.539 260.533,162.563 259.651 C 161.165 258.389,160.100 258.188,158.692 258.923 C 157.895 259.339,155.993 259.830,153.625 260.230 C 150.713 260.722,150.337 262.989,152.957 264.265 C 155.476 265.493,155.514 265.620,155.527 273.028 C 155.541 281.167,155.508 281.333,153.759 282.083 C 151.346 283.117,150.943 284.493,152.611 286.003 C 153.313 286.638,163.632 286.834,165.191 286.241 C 167.169 285.489,167.204 283.569,165.259 282.506 C 162.771 281.146,162.869 281.507,162.869 273.629 L 162.869 266.573 163.801 265.680 C 165.540 264.014,169.954 263.935,171.211 265.547 C 172.674 267.422,172.749 267.862,172.747 274.551 L 172.744 280.956 171.473 281.682 C 169.309 282.918,168.631 285.046,170.032 286.209 C 170.905 286.933,181.856 286.674,182.938 285.904 C 184.866 284.531,184.437 283.308,181.514 281.840 C 180.637 281.399,179.851 280.975,179.766 280.896 C 179.681 280.818,179.538 277.067,179.447 272.561 L 179.283 264.368 178.077 262.553 C 175.772 259.082,171.642 257.371,168.216 258.467 M229.323 258.482 C 228.622 258.638,227.480 259.061,226.785 259.423 C 226.091 259.784,225.374 260.084,225.192 260.090 C 223.828 260.132,219.532 264.543,219.079 266.367 C 218.958 266.853,218.560 267.658,218.195 268.155 C 217.231 269.465,217.255 276.226,218.227 277.547 C 218.575 278.020,218.966 278.837,219.096 279.363 C 219.660 281.642,222.465 284.706,224.772 285.562 C 225.347 285.775,226.319 286.172,226.932 286.445 C 229.909 287.767,235.672 286.940,238.941 284.722 C 239.539 284.316,240.134 283.984,240.263 283.984 C 240.629 283.984,242.315 282.071,243.455 280.362 C 247.615 274.128,244.918 261.726,239.011 259.919 C 238.591 259.790,237.656 259.420,236.934 259.096 C 235.399 258.409,231.181 258.068,229.323 258.482 M76.000 259.120 C 75.394 259.508,74.037 259.854,72.397 260.037 C 69.564 260.354,68.731 260.812,68.370 262.250 C 68.133 263.195,69.330 264.542,70.407 264.542 C 71.993 264.542,72.184 265.394,72.289 272.928 C 72.405 281.337,72.463 281.047,70.451 282.169 C 68.529 283.241,68.119 284.242,69.076 285.526 L 69.708 286.375 75.227 286.534 C 81.181 286.706,82.100 286.536,82.857 285.121 C 83.394 284.117,82.813 283.065,81.585 282.819 C 79.413 282.385,79.173 281.455,79.219 273.649 L 79.260 266.661 80.506 265.606 C 83.314 263.231,87.377 264.107,88.553 267.342 C 90.628 273.051,89.524 282.254,86.697 282.820 C 84.680 283.223,84.724 285.920,86.758 286.452 C 89.368 287.136,98.269 286.608,99.044 285.724 C 100.189 284.416,99.340 282.390,97.646 282.390 C 96.105 282.390,95.936 281.544,95.936 273.812 L 95.936 266.509 97.274 265.526 C 100.313 263.290,104.523 264.581,105.499 268.048 C 105.831 269.226,105.936 279.843,105.627 280.992 C 105.525 281.373,104.835 281.971,104.039 282.369 C 102.409 283.183,101.946 284.261,102.672 285.556 L 103.130 286.375 108.836 286.534 C 114.969 286.705,115.445 286.602,116.349 284.913 C 116.689 284.278,115.909 282.742,115.236 282.719 C 115.070 282.714,114.389 282.331,113.722 281.869 L 112.510 281.029 112.510 274.438 C 112.510 266.579,112.232 264.755,110.679 262.415 C 107.422 257.511,102.738 257.185,96.025 261.396 C 94.833 262.144,94.029 261.995,92.943 260.824 C 92.197 260.019,91.353 259.458,89.880 258.788 C 88.759 258.278,84.612 258.571,83.903 259.210 C 83.597 259.486,82.963 259.807,82.494 259.924 C 82.024 260.041,81.393 260.411,81.090 260.746 C 80.170 261.762,78.725 261.560,78.725 260.416 C 78.725 258.777,77.468 258.179,76.000 259.120 M196.653 258.712 C 196.390 258.809,195.960 259.066,195.697 259.284 C 195.434 259.502,194.671 259.856,194.002 260.071 C 193.332 260.287,192.707 260.663,192.613 260.909 C 192.519 261.154,192.283 261.355,192.090 261.355 C 191.636 261.355,189.004 263.930,189.004 264.374 C 189.004 264.559,188.717 265.247,188.365 265.902 C 187.528 267.465,187.441 270.966,188.196 272.708 C 189.164 274.939,189.738 276.016,189.961 276.016 C 190.252 276.016,192.829 278.627,192.829 278.923 C 192.829 279.050,192.363 279.309,191.793 279.498 C 189.195 280.363,188.775 282.874,190.878 284.976 L 192.072 286.171 191.096 287.153 C 190.559 287.693,189.517 288.671,188.780 289.326 C 185.470 292.271,186.640 297.457,191.276 300.389 L 193.307 301.673 198.890 301.673 L 204.473 301.673 206.036 300.637 C 206.896 300.068,207.738 299.602,207.908 299.602 C 208.511 299.602,212.341 295.970,212.839 294.926 C 213.117 294.342,213.448 293.865,213.574 293.865 C 214.438 293.865,215.043 288.773,214.392 286.967 C 212.901 282.826,209.200 281.225,200.797 281.086 C 199.657 281.067,198.413 280.959,198.032 280.845 L 197.338 280.637 198.092 279.766 C 198.697 279.066,199.209 278.857,200.697 278.704 C 202.906 278.477,204.194 278.034,204.429 277.421 C 204.524 277.174,204.840 276.972,205.131 276.972 C 207.028 276.972,210.677 271.195,210.677 268.191 C 210.677 266.375,211.170 265.720,213.217 264.814 C 216.620 263.308,215.561 259.452,211.886 259.968 C 209.317 260.329,206.179 259.973,204.580 259.139 C 203.348 258.497,198.020 258.210,196.653 258.712 M175.700 261.055 C 176.350 261.592,177.312 262.926,177.881 264.081 L 178.898 266.147 179.056 273.820 C 179.223 281.941,179.387 282.709,180.948 282.709 C 182.540 282.709,183.482 284.548,182.231 285.214 C 180.992 285.874,170.522 285.569,170.076 284.861 C 169.593 284.095,170.143 283.279,171.432 282.850 C 173.391 282.198,173.535 281.833,173.655 277.201 C 173.944 266.052,172.893 263.697,167.671 263.789 C 164.928 263.837,164.079 264.157,162.802 265.623 L 161.938 266.614 161.925 273.829 C 161.911 281.987,161.863 281.812,164.462 283.109 C 167.748 284.749,165.934 285.567,158.999 285.573 C 152.286 285.579,150.011 284.378,154.149 283.013 C 155.790 282.471,155.938 281.773,156.101 273.760 C 156.275 265.290,156.197 264.980,153.621 263.872 C 151.815 263.095,151.759 262.968,152.749 261.869 C 153.309 261.247,154.161 260.929,156.639 260.417 C 160.711 259.575,160.848 259.583,161.423 260.696 C 162.097 261.999,163.251 262.055,165.417 260.890 C 169.683 258.594,172.774 258.643,175.700 261.055 M138.641 260.136 C 143.525 261.808,146.614 266.421,146.614 272.043 C 146.614 286.233,128.035 291.649,121.505 279.363 L 120.319 277.131 120.319 272.669 L 120.319 268.207 121.387 266.359 C 124.864 260.342,131.867 257.817,138.641 260.136 M234.879 259.597 C 242.574 261.216,245.932 266.892,244.471 275.811 C 242.783 286.121,226.679 289.815,220.874 281.223 C 213.704 270.614,222.522 256.998,234.879 259.597 M89.894 259.949 C 90.427 260.052,91.510 260.696,92.301 261.381 C 94.064 262.906,94.880 263.368,95.123 262.975 C 95.523 262.327,99.414 260.420,101.434 259.882 C 108.738 257.936,112.122 262.844,111.775 274.882 C 111.598 280.995,111.838 282.709,112.868 282.709 C 113.719 282.709,115.378 283.779,115.378 284.328 C 115.378 285.352,114.300 285.578,109.423 285.573 C 103.311 285.567,101.431 284.771,104.196 283.361 C 106.306 282.284,106.458 281.695,106.430 274.677 C 106.404 267.977,106.273 267.305,104.617 265.317 C 102.805 263.141,98.452 263.299,95.857 265.635 L 94.980 266.424 94.980 273.440 C 94.980 281.704,95.143 282.354,97.443 283.232 C 99.046 283.844,99.255 284.905,97.849 285.294 C 95.907 285.831,87.752 285.604,86.997 284.992 C 86.130 284.290,86.347 283.818,87.824 283.202 C 89.952 282.312,90.198 281.417,90.189 274.582 L 90.181 268.526 89.154 266.614 C 87.775 264.044,86.702 263.487,83.665 263.762 C 81.450 263.963,80.959 264.166,79.291 265.573 L 78.423 266.305 78.360 273.631 C 78.285 282.162,78.259 282.036,80.325 283.160 C 83.450 284.861,82.075 285.579,75.706 285.573 C 69.318 285.567,67.576 284.706,70.730 283.115 C 73.234 281.852,73.302 281.602,73.305 273.753 C 73.307 265.408,73.223 265.070,70.872 264.031 C 68.597 263.025,68.910 261.036,71.343 261.036 C 71.841 261.036,73.370 260.749,74.741 260.398 C 76.112 260.048,77.290 259.761,77.360 259.761 C 77.429 259.761,77.768 260.398,78.112 261.176 C 78.772 262.669,79.737 262.770,81.275 261.510 C 82.161 260.783,83.231 260.350,85.206 259.917 C 87.074 259.508,87.635 259.511,89.894 259.949 M206.233 260.466 C 209.116 261.162,209.859 261.234,211.417 260.966 C 215.116 260.328,215.552 262.471,212.114 264.393 C 209.637 265.778,209.594 265.838,209.682 267.777 C 209.913 272.848,205.443 277.609,199.857 278.241 C 197.325 278.528,196.653 278.977,196.653 280.388 C 196.653 281.396,197.511 281.674,201.839 282.069 C 210.184 282.832,211.436 283.336,213.099 286.603 C 215.165 290.661,212.713 295.435,206.470 299.511 L 204.143 301.029 199.260 301.141 C 194.296 301.255,192.752 301.010,192.384 300.050 C 192.289 299.804,192.027 299.601,191.803 299.601 C 191.098 299.601,189.118 297.591,188.373 296.120 C 186.964 293.336,187.449 291.727,190.601 288.724 L 193.256 286.194 192.124 285.009 C 189.861 282.642,189.974 281.304,192.561 279.850 C 193.234 279.472,193.784 279.064,193.783 278.944 C 193.778 278.403,192.499 276.863,191.604 276.319 C 188.363 274.348,187.796 267.134,190.608 263.653 C 191.571 262.461,194.506 260.466,195.697 260.195 C 196.135 260.095,196.924 259.893,197.450 259.745 C 199.023 259.304,202.655 259.602,206.233 260.466 M196.400 262.400 C 192.959 264.407,193.567 272.771,197.291 274.640 C 201.716 276.862,205.476 272.736,204.253 267.001 C 203.453 263.252,199.206 260.763,196.400 262.400 M128.019 264.055 C 125.906 266.134,125.722 266.776,125.791 271.801 C 125.920 281.174,133.660 286.769,138.731 281.155 C 141.511 278.079,140.991 268.350,137.873 265.096 C 134.596 261.676,130.840 261.279,128.019 264.055 M227.729 262.889 C 221.806 266.680,223.563 279.830,230.383 282.754 C 236.479 285.367,240.678 278.767,238.745 269.608 C 237.650 264.416,231.348 260.572,227.729 262.889 M134.211 263.460 C 134.414 263.704,134.745 263.904,134.946 263.904 C 135.549 263.904,137.634 265.778,137.874 266.535 C 137.997 266.922,138.400 267.648,138.770 268.148 C 139.387 268.982,139.442 269.471,139.442 274.062 L 139.442 279.066 138.445 280.276 C 136.105 283.114,131.046 283.030,129.545 280.127 C 129.304 279.662,128.907 279.204,128.663 279.110 C 128.418 279.016,128.127 278.485,128.016 277.929 C 127.905 277.373,127.526 276.514,127.174 276.020 C 126.353 274.867,126.229 268.115,127.003 266.773 C 127.256 266.335,127.597 265.689,127.760 265.339 C 128.730 263.262,133.012 262.015,134.211 263.460 M201.763 264.121 C 204.412 266.796,204.099 273.039,201.265 274.064 C 198.737 274.978,195.894 273.647,195.337 271.290 C 193.699 264.361,197.644 259.960,201.763 264.121 M233.819 263.947 C 235.286 264.793,236.813 266.451,236.813 267.199 C 236.813 267.470,236.940 267.770,237.095 267.866 C 237.798 268.301,238.485 272.177,238.351 274.954 C 237.919 283.911,230.106 285.319,226.266 277.131 C 224.411 273.177,224.809 266.531,227.026 264.421 C 229.032 262.512,231.080 262.369,233.819 263.947 M307.364 265.380 C 305.664 265.762,305.574 266.200,305.714 273.372 C 305.862 280.942,305.875 280.986,308.351 282.328 C 310.528 283.506,316.494 283.998,316.494 282.998 C 316.494 282.706,316.921 282.291,317.442 282.075 C 321.887 280.234,323.250 272.161,319.750 268.410 C 317.586 266.092,311.172 264.522,307.364 265.380 M315.118 267.082 C 315.782 267.438,316.502 267.729,316.717 267.729 C 320.174 267.729,321.711 276.555,318.785 279.605 C 315.860 282.655,308.548 282.705,307.115 279.685 C 306.140 277.630,306.480 266.649,307.529 266.326 C 308.804 265.933,313.926 266.443,315.118 267.082 M196.494 287.082 C 196.143 287.167,195.445 287.652,194.942 288.160 C 194.439 288.668,193.913 289.084,193.772 289.084 C 193.270 289.084,192.757 291.415,192.910 293.003 C 193.534 299.504,207.036 299.797,208.816 293.348 C 210.091 288.731,203.496 285.377,196.494 287.082 M205.066 288.207 C 205.373 288.514,205.813 288.765,206.045 288.765 C 207.068 288.765,208.446 290.580,208.446 291.928 C 208.446 297.029,199.109 299.107,194.629 295.003 C 193.108 293.610,193.008 289.426,194.494 289.394 C 194.718 289.389,195.330 288.947,195.854 288.413 L 196.808 287.441 200.659 287.545 C 203.808 287.630,204.611 287.751,205.066 288.207 " stroke="none" fill="#a69d90" fill-rule="evenodd"></path><path id="path4" d="M1.752 159.363 C 1.752 247.100,1.788 282.992,1.833 239.124 C 1.877 195.255,1.877 123.470,1.833 79.602 C 1.788 35.733,1.752 71.625,1.752 159.363 M200.786 19.977 C 200.748 22.037,198.633 24.653,192.541 30.180 C 191.418 31.199,189.482 33.097,188.238 34.399 C 186.994 35.702,185.653 37.081,185.259 37.464 C 184.865 37.847,184.542 38.292,184.542 38.452 C 184.542 38.612,184.147 39.109,183.665 39.556 C 182.765 40.392,180.401 43.282,179.000 45.259 C 177.130 47.898,174.072 52.493,173.698 53.227 C 173.474 53.665,173.173 54.102,173.028 54.197 C 172.773 54.365,171.982 55.705,170.393 58.665 C 169.963 59.465,169.400 60.295,169.142 60.509 C 168.884 60.724,168.582 61.382,168.471 61.971 C 168.361 62.561,167.996 63.391,167.661 63.818 C 167.326 64.244,166.957 65.011,166.841 65.523 C 166.725 66.035,166.117 67.673,165.489 69.163 C 164.324 71.929,162.587 76.663,161.689 79.522 C 161.414 80.398,160.778 82.306,160.276 83.762 C 159.773 85.217,159.363 86.668,159.363 86.987 C 159.363 87.306,159.076 88.464,158.725 89.562 C 157.927 92.060,157.910 93.012,158.694 91.285 C 159.020 90.567,159.467 88.918,159.688 87.619 C 159.908 86.321,160.286 84.939,160.526 84.547 C 160.767 84.156,161.161 82.894,161.402 81.743 C 161.643 80.593,162.054 79.407,162.314 79.108 C 162.574 78.810,162.969 77.777,163.191 76.813 C 163.413 75.849,163.851 74.558,164.164 73.944 C 164.477 73.331,164.913 72.183,165.133 71.394 C 165.352 70.606,165.717 69.739,165.943 69.468 C 166.169 69.198,166.591 68.051,166.881 66.920 C 167.171 65.789,167.661 64.541,167.971 64.148 C 168.280 63.754,168.634 62.898,168.756 62.245 C 168.879 61.592,169.254 60.865,169.589 60.630 C 169.925 60.395,170.199 60.007,170.199 59.767 C 170.199 59.528,170.535 58.926,170.945 58.431 C 171.355 57.935,171.843 57.083,172.029 56.536 C 172.215 55.990,172.681 55.201,173.065 54.783 C 173.979 53.787,176.329 50.276,177.361 48.367 C 177.810 47.534,178.303 46.853,178.455 46.853 C 178.607 46.853,178.970 46.351,179.262 45.737 C 179.553 45.124,179.905 44.622,180.043 44.622 C 180.182 44.622,180.444 44.299,180.626 43.904 C 180.962 43.171,181.984 41.912,183.825 39.961 C 184.394 39.357,184.861 38.663,184.861 38.417 C 184.861 38.172,185.147 37.880,185.498 37.769 C 185.849 37.658,186.135 37.435,186.135 37.274 C 186.135 36.966,189.121 33.984,193.527 29.891 C 198.988 24.818,200.274 23.348,200.614 21.788 C 200.906 20.450,202.868 20.855,203.189 22.320 C 203.294 22.798,203.718 23.646,204.130 24.205 C 204.543 24.765,205.055 25.643,205.268 26.157 C 205.481 26.671,205.774 27.092,205.920 27.092 C 206.066 27.092,206.479 27.701,206.839 28.446 C 207.651 30.130,208.890 31.836,209.724 32.421 C 210.073 32.665,210.359 33.050,210.359 33.276 C 210.359 33.502,210.631 33.817,210.965 33.975 C 211.298 34.133,212.489 35.339,213.612 36.653 C 214.734 37.968,216.530 39.935,217.602 41.024 C 218.674 42.113,219.956 43.548,220.451 44.211 C 220.946 44.875,221.532 45.534,221.753 45.674 C 221.975 45.815,222.445 46.497,222.798 47.188 C 223.150 47.880,223.557 48.446,223.700 48.446 C 223.844 48.446,224.134 48.826,224.346 49.290 C 224.734 50.142,225.410 51.093,227.012 53.042 C 227.494 53.628,227.888 54.205,227.888 54.324 C 227.888 54.442,228.304 55.069,228.812 55.716 C 229.320 56.363,229.832 57.215,229.949 57.610 C 230.067 58.005,230.438 58.475,230.775 58.655 C 231.305 58.939,231.283 58.828,230.608 57.834 C 230.179 57.202,229.741 56.409,229.634 56.072 C 229.527 55.734,229.308 55.458,229.148 55.458 C 228.988 55.458,228.563 54.920,228.202 54.263 C 227.842 53.606,227.117 52.494,226.591 51.793 C 225.122 49.832,224.329 48.713,223.018 46.747 C 222.355 45.753,221.707 44.940,221.578 44.940 C 221.449 44.940,221.130 44.592,220.871 44.166 C 220.407 43.405,216.728 39.350,211.901 34.278 C 209.251 31.494,206.853 28.443,206.853 27.856 C 206.853 27.654,206.640 27.312,206.381 27.097 C 206.122 26.882,205.712 26.327,205.470 25.863 C 203.551 22.186,202.839 21.080,201.888 20.296 C 200.945 19.518,200.795 19.475,200.786 19.977 M231.407 59.543 C 231.390 60.120,232.039 61.303,232.533 61.596 C 232.757 61.729,233.110 62.374,233.318 63.030 C 233.526 63.686,233.896 64.541,234.140 64.930 C 234.384 65.319,234.880 66.430,235.243 67.400 C 235.606 68.370,236.030 69.163,236.186 69.163 C 236.342 69.163,236.625 69.739,236.814 70.443 C 237.004 71.147,237.424 72.187,237.747 72.754 C 238.071 73.321,238.514 74.359,238.730 75.060 C 238.947 75.761,239.307 76.550,239.529 76.813 C 239.752 77.076,240.228 78.223,240.588 79.363 C 241.570 82.475,242.523 85.110,243.181 86.534 C 243.505 87.235,243.864 88.382,243.978 89.084 C 244.093 89.785,244.458 90.861,244.789 91.474 C 245.474 92.742,245.650 92.220,244.983 90.901 C 244.744 90.427,244.367 89.251,244.147 88.287 C 243.927 87.323,243.489 86.032,243.175 85.418 C 242.861 84.805,241.997 82.510,241.255 80.319 C 240.513 78.127,239.727 76.048,239.508 75.697 C 239.289 75.347,239.009 74.701,238.885 74.263 C 238.761 73.825,237.974 72.032,237.136 70.279 C 236.298 68.526,235.018 65.843,234.291 64.316 C 233.565 62.790,232.817 61.446,232.629 61.330 C 232.441 61.214,232.092 60.670,231.854 60.121 C 231.615 59.572,231.414 59.312,231.407 59.543 M157.665 95.060 C 157.551 96.398,157.196 97.902,156.822 98.633 C 156.341 99.572,156.190 100.431,156.232 101.980 L 156.288 104.064 156.471 101.992 C 156.571 100.853,156.895 99.562,157.191 99.124 C 157.688 98.388,158.420 92.749,158.019 92.749 C 157.933 92.749,157.774 93.789,157.665 95.060 M245.599 94.183 C 245.690 95.060,246.114 97.211,246.541 98.964 C 246.995 100.830,247.454 104.067,247.648 106.773 C 247.830 109.315,248.126 112.757,248.306 114.422 C 248.714 118.204,248.519 125.894,247.860 131.952 C 247.583 134.494,247.368 137.219,247.382 138.008 C 247.406 139.412,247.575 138.353,248.577 130.500 C 249.524 123.082,248.382 103.333,246.690 97.875 C 246.341 96.749,246.041 95.459,246.024 95.006 C 246.007 94.554,245.867 93.825,245.713 93.386 C 245.513 92.816,245.481 93.043,245.599 94.183 M155.708 108.760 C 155.573 110.560,155.421 112.821,155.369 113.785 C 155.317 114.749,155.172 117.164,155.046 119.151 C 154.889 121.625,154.934 123.132,155.189 123.932 C 155.394 124.574,155.679 127.036,155.822 129.402 C 156.038 132.957,156.091 133.262,156.129 131.155 C 156.154 129.753,156.022 127.028,155.835 125.100 C 155.588 122.551,155.599 119.435,155.874 113.691 C 156.258 105.695,156.158 102.749,155.708 108.760 M156.505 137.302 C 156.499 137.527,156.714 138.047,156.982 138.457 C 157.251 138.867,157.549 139.973,157.645 140.916 C 157.820 142.633,158.689 145.586,160.374 150.189 C 160.870 151.542,161.275 152.844,161.275 153.083 C 161.275 153.322,161.633 154.223,162.071 155.085 C 162.509 155.948,163.031 157.155,163.232 157.769 C 163.432 158.382,164.365 160.412,165.304 162.279 C 166.243 164.146,167.012 165.813,167.012 165.985 C 167.012 166.156,167.226 166.474,167.489 166.692 C 167.751 166.910,168.130 167.639,168.332 168.313 C 168.683 169.485,170.199 171.335,170.199 170.592 C 170.199 170.396,169.927 170.044,169.593 169.811 C 169.260 169.578,168.817 168.745,168.609 167.960 C 168.400 167.176,167.980 166.247,167.674 165.896 C 167.368 165.546,166.867 164.578,166.561 163.745 C 166.254 162.912,165.894 162.231,165.761 162.231 C 165.628 162.231,165.339 161.622,165.119 160.876 C 164.899 160.131,164.464 159.092,164.151 158.566 C 163.839 158.040,163.404 157.036,163.186 156.335 C 162.967 155.633,162.582 154.823,162.329 154.533 C 162.077 154.244,161.666 153.129,161.415 152.055 C 161.165 150.981,160.752 149.783,160.497 149.394 C 160.243 149.004,159.883 147.968,159.697 147.092 C 159.510 146.215,159.080 144.853,158.740 144.064 C 158.400 143.275,158.031 141.663,157.921 140.483 C 157.746 138.620,156.541 135.912,156.505 137.302 M247.063 140.120 C 247.035 140.493,246.815 141.282,246.575 141.873 C 246.334 142.465,245.959 144.167,245.742 145.657 C 245.524 147.147,245.146 148.685,244.902 149.075 C 244.658 149.465,244.255 150.656,244.006 151.723 C 243.758 152.789,243.364 153.889,243.132 154.168 C 242.899 154.446,242.401 155.550,242.025 156.620 C 240.285 161.574,239.983 162.311,239.396 163.058 C 239.051 163.496,238.679 164.263,238.570 164.763 C 238.460 165.262,238.092 165.923,237.751 166.231 C 237.410 166.540,237.131 166.918,237.131 167.071 C 237.131 167.225,236.629 168.386,236.016 169.650 C 235.402 170.915,234.900 172.108,234.900 172.300 C 234.900 172.493,234.614 172.910,234.263 173.227 C 233.912 173.544,233.624 173.961,233.622 174.153 C 233.621 174.345,233.119 175.132,232.507 175.901 C 231.895 176.671,231.394 177.444,231.394 177.618 C 231.394 177.792,231.072 178.259,230.677 178.656 C 230.283 179.053,229.386 180.127,228.685 181.042 C 227.984 181.958,227.088 183.084,226.694 183.545 C 226.299 184.006,225.977 184.509,225.976 184.665 C 225.976 184.820,225.653 185.268,225.259 185.661 C 224.865 186.053,223.323 187.695,221.833 189.308 C 220.343 190.922,218.940 192.410,218.716 192.615 C 218.491 192.820,217.163 194.064,215.763 195.378 C 209.806 200.975,208.318 201.482,207.013 198.360 C 206.736 197.697,206.323 196.934,206.094 196.665 C 205.866 196.396,205.449 195.386,205.169 194.422 C 204.888 193.458,204.442 192.096,204.176 191.394 C 203.911 190.693,203.686 189.402,203.677 188.526 C 203.669 187.649,203.447 186.521,203.185 186.019 C 202.923 185.517,202.698 184.657,202.684 184.107 L 202.659 183.108 202.339 183.984 C 202.142 184.524,201.784 184.861,201.408 184.861 C 200.873 184.861,200.794 185.109,200.777 186.853 C 200.766 187.948,200.631 189.992,200.478 191.394 C 200.324 192.797,200.106 194.805,199.993 195.857 C 199.595 199.551,197.907 202.251,196.890 200.818 C 196.672 200.511,196.135 200.070,195.697 199.838 C 195.259 199.606,193.323 197.877,191.394 195.996 C 189.466 194.115,187.401 192.167,186.805 191.667 C 186.210 191.166,185.524 190.542,185.282 190.279 C 185.039 190.016,183.926 188.831,182.807 187.646 C 181.688 186.461,180.337 184.812,179.804 183.981 C 178.762 182.356,178.438 181.910,176.824 179.876 C 176.248 179.150,175.451 178.146,175.054 177.644 C 174.656 177.143,174.048 176.267,173.704 175.697 C 173.359 175.127,172.932 174.661,172.754 174.661 C 172.576 174.661,172.430 174.451,172.430 174.194 C 172.430 173.937,172.000 173.287,171.474 172.749 C 170.948 172.211,170.518 171.608,170.518 171.410 C 170.518 171.212,170.435 171.132,170.333 171.234 C 170.099 171.468,170.798 172.803,171.380 173.233 C 171.622 173.411,171.993 173.848,172.205 174.204 C 173.590 176.533,174.045 177.192,175.618 179.139 C 176.582 180.333,178.159 182.411,179.124 183.756 C 180.088 185.101,181.701 187.025,182.709 188.032 C 183.717 189.039,184.542 190.023,184.542 190.219 C 184.542 190.415,184.850 190.740,185.227 190.942 C 185.604 191.144,187.113 192.498,188.580 193.952 C 192.744 198.079,197.082 201.753,197.792 201.753 C 198.034 201.753,198.465 202.109,198.750 202.544 C 199.606 203.849,200.343 203.132,200.592 200.754 C 200.736 199.374,200.993 198.590,201.435 198.178 C 201.881 197.762,202.072 197.174,202.072 196.211 C 202.072 193.622,202.482 189.979,202.755 190.148 C 202.905 190.241,203.028 191.016,203.028 191.871 C 203.028 193.716,203.477 195.060,204.094 195.060 C 204.386 195.060,204.596 195.565,204.705 196.534 C 204.824 197.593,205.099 198.199,205.680 198.686 C 206.125 199.058,206.536 199.649,206.593 200.000 C 206.746 200.930,209.484 201.450,210.281 200.701 C 210.587 200.413,211.852 199.328,213.093 198.288 C 215.727 196.082,225.176 186.663,225.925 185.498 C 226.206 185.060,227.229 183.703,228.198 182.482 C 229.167 181.262,230.175 179.952,230.438 179.571 C 235.473 172.281,234.699 173.564,237.437 167.968 C 238.680 165.426,239.894 162.988,240.135 162.550 C 240.375 162.112,240.965 160.677,241.446 159.363 C 241.928 158.048,242.731 156.085,243.232 155.000 C 243.733 153.916,244.143 152.800,244.143 152.520 C 244.143 152.241,244.487 151.192,244.907 150.190 C 245.327 149.187,245.826 147.350,246.017 146.107 C 246.208 144.864,246.590 143.307,246.865 142.648 C 247.141 141.989,247.309 140.998,247.240 140.446 C 247.170 139.891,247.091 139.746,247.063 140.120 M251.201 246.906 C 250.759 247.092,252.160 248.088,254.257 249.079 C 256.538 250.156,256.575 250.423,256.563 265.724 L 256.553 279.363 255.687 281.116 C 254.940 282.627,254.623 282.940,253.386 283.389 C 250.189 284.550,251.344 284.774,261.036 284.876 C 270.648 284.977,273.208 284.835,273.883 284.159 C 274.113 283.930,274.912 283.639,275.661 283.512 C 277.451 283.210,281.489 281.329,282.705 280.232 C 286.349 276.942,287.601 274.966,288.707 270.757 C 290.066 265.589,289.271 258.538,286.932 255.015 C 286.538 254.421,286.215 253.808,286.215 253.652 C 286.215 252.274,281.409 248.943,277.701 247.752 L 274.900 246.853 263.267 246.789 C 256.869 246.754,251.439 246.807,251.201 246.906 M296.011 246.884 C 295.656 247.239,296.418 247.968,297.144 247.968 C 297.502 247.968,298.022 248.183,298.300 248.445 C 298.578 248.707,299.271 249.293,299.841 249.748 L 300.876 250.575 300.876 260.057 C 300.876 265.272,300.782 272.160,300.666 275.362 L 300.455 281.185 299.342 282.266 C 298.730 282.860,297.920 283.347,297.542 283.347 C 296.469 283.347,295.488 284.204,296.096 284.611 C 297.390 285.477,316.813 284.865,316.813 283.958 C 316.813 283.797,317.095 283.665,317.439 283.665 C 322.105 283.665,327.546 277.679,327.266 272.853 C 327.047 269.061,325.444 266.719,321.551 264.504 C 320.329 263.809,319.681 263.250,319.681 262.891 C 319.681 262.531,322.447 259.761,322.806 259.761 C 323.179 259.761,323.823 257.801,324.033 256.026 C 324.479 252.262,322.890 249.166,320.051 248.267 C 319.410 248.063,318.526 247.662,318.088 247.375 C 317.243 246.821,296.534 246.361,296.011 246.884 M270.745 248.539 C 271.187 248.887,272.087 249.272,272.746 249.396 C 274.885 249.797,280.159 253.010,280.159 253.912 C 280.159 254.160,280.357 254.438,280.598 254.531 C 280.838 254.623,281.300 255.300,281.623 256.035 C 281.946 256.769,282.479 257.747,282.808 258.207 C 283.641 259.369,284.144 265.605,283.734 269.670 C 283.187 275.086,279.798 280.229,275.774 281.751 C 274.692 282.160,274.233 282.520,274.158 283.019 C 273.939 284.468,265.173 283.257,263.067 281.487 C 261.356 280.050,261.355 280.031,261.355 264.769 L 261.355 250.623 262.546 249.094 L 263.737 247.565 266.839 247.736 C 269.273 247.870,270.114 248.043,270.745 248.539 M310.732 248.400 C 311.009 248.637,312.078 248.995,313.109 249.194 C 318.733 250.283,321.137 256.314,317.861 261.115 C 316.909 262.510,316.172 262.760,311.523 263.260 C 305.970 263.858,305.657 263.502,305.657 256.580 C 305.657 251.251,305.889 249.876,306.980 248.714 C 307.786 247.856,309.893 247.680,310.732 248.400 M169.082 259.423 C 168.030 259.711,166.381 260.371,165.417 260.890 C 163.251 262.055,162.097 261.999,161.423 260.696 C 160.848 259.583,160.711 259.575,156.639 260.417 C 154.161 260.929,153.309 261.247,152.749 261.869 C 151.759 262.968,151.815 263.095,153.621 263.872 C 156.197 264.980,156.275 265.290,156.101 273.760 C 155.938 281.773,155.790 282.471,154.149 283.013 C 150.011 284.378,152.286 285.579,158.999 285.573 C 165.934 285.567,167.748 284.749,164.462 283.109 C 161.863 281.812,161.911 281.987,161.925 273.829 L 161.938 266.614 162.802 265.623 C 164.079 264.157,164.928 263.837,167.671 263.789 C 172.893 263.697,173.944 266.052,173.655 277.201 C 173.535 281.833,173.391 282.198,171.432 282.850 C 170.143 283.279,169.593 284.095,170.076 284.861 C 170.522 285.569,180.992 285.874,182.231 285.214 C 183.482 284.548,182.540 282.709,180.948 282.709 C 179.387 282.709,179.223 281.941,179.056 273.820 L 178.898 266.147 177.881 264.081 C 176.007 260.275,172.586 258.464,169.082 259.423 M131.483 259.460 C 126.883 260.238,123.646 262.451,121.387 266.359 L 120.319 268.207 120.319 272.669 L 120.319 277.131 121.505 279.363 C 128.035 291.649,146.614 286.233,146.614 272.043 C 146.614 263.795,139.725 258.066,131.483 259.460 M228.543 259.799 C 219.066 262.343,215.274 272.937,220.874 281.223 C 226.679 289.815,242.783 286.121,244.471 275.811 C 246.326 264.484,238.900 257.019,228.543 259.799 M85.206 259.917 C 83.231 260.350,82.161 260.783,81.275 261.510 C 79.737 262.770,78.772 262.669,78.112 261.176 C 77.768 260.398,77.429 259.761,77.360 259.761 C 77.290 259.761,76.112 260.048,74.741 260.398 C 73.370 260.749,71.841 261.036,71.343 261.036 C 68.910 261.036,68.597 263.025,70.872 264.031 C 73.223 265.070,73.307 265.408,73.305 273.753 C 73.302 281.602,73.234 281.852,70.730 283.115 C 67.576 284.706,69.318 285.567,75.706 285.573 C 82.075 285.579,83.450 284.861,80.325 283.160 C 78.259 282.036,78.285 282.162,78.360 273.631 L 78.423 266.305 79.291 265.573 C 80.959 264.166,81.450 263.963,83.665 263.762 C 86.702 263.487,87.775 264.044,89.154 266.614 L 90.181 268.526 90.189 274.582 C 90.198 281.417,89.952 282.312,87.824 283.202 C 86.347 283.818,86.130 284.290,86.997 284.992 C 87.752 285.604,95.907 285.831,97.849 285.294 C 99.255 284.905,99.046 283.844,97.443 283.232 C 95.143 282.354,94.980 281.704,94.980 273.440 L 94.980 266.424 95.857 265.635 C 98.452 263.299,102.805 263.141,104.617 265.317 C 106.273 267.305,106.404 267.977,106.430 274.677 C 106.458 281.695,106.306 282.284,104.196 283.361 C 101.431 284.771,103.311 285.567,109.423 285.573 C 114.300 285.578,115.378 285.352,115.378 284.328 C 115.378 283.779,113.719 282.709,112.868 282.709 C 111.838 282.709,111.598 280.995,111.775 274.882 C 112.122 262.844,108.738 257.936,101.434 259.882 C 99.414 260.420,95.523 262.327,95.123 262.975 C 94.880 263.368,94.064 262.906,92.301 261.381 C 90.353 259.694,88.225 259.255,85.206 259.917 M197.450 259.745 C 196.924 259.893,196.135 260.095,195.697 260.195 C 194.506 260.466,191.571 262.461,190.608 263.653 C 187.796 267.134,188.363 274.348,191.604 276.319 C 192.499 276.863,193.778 278.403,193.783 278.944 C 193.784 279.064,193.234 279.472,192.561 279.850 C 189.974 281.304,189.861 282.642,192.124 285.009 L 193.256 286.194 190.601 288.724 C 187.449 291.727,186.964 293.336,188.373 296.120 C 189.118 297.591,191.098 299.601,191.803 299.601 C 192.027 299.601,192.289 299.804,192.384 300.050 C 192.752 301.010,194.296 301.255,199.260 301.141 L 204.143 301.029 206.470 299.511 C 212.713 295.435,215.165 290.661,213.099 286.603 C 211.436 283.336,210.184 282.832,201.839 282.069 C 197.511 281.674,196.653 281.396,196.653 280.388 C 196.653 278.977,197.325 278.528,199.857 278.241 C 205.443 277.609,209.913 272.848,209.682 267.777 C 209.594 265.838,209.637 265.778,212.114 264.393 C 215.552 262.471,215.116 260.328,211.417 260.966 C 209.859 261.234,209.116 261.162,206.233 260.466 C 202.655 259.602,199.023 259.304,197.450 259.745 M173.386 260.475 C 177.118 261.605,178.234 264.598,178.466 274.104 C 178.664 282.177,178.809 282.884,180.328 283.202 C 181.565 283.462,182.151 283.827,182.151 284.338 C 182.151 284.880,170.941 285.172,170.412 284.643 C 169.929 284.160,170.782 283.347,171.771 283.347 C 173.792 283.347,173.854 283.128,173.966 275.644 C 174.093 267.067,174.003 266.434,172.441 264.871 C 170.122 262.552,164.430 262.642,162.433 265.030 L 161.275 266.416 161.275 274.041 L 161.275 281.666 162.115 282.506 C 162.577 282.968,163.187 283.352,163.470 283.358 C 163.753 283.364,164.331 283.561,164.755 283.796 C 166.175 284.583,164.616 284.914,159.278 284.956 C 153.463 285.003,151.882 284.607,154.111 283.660 C 156.398 282.689,156.787 280.921,156.804 271.415 C 156.815 265.602,156.375 264.256,154.258 263.622 C 151.966 262.935,153.828 261.423,157.610 260.901 C 158.486 260.780,159.453 260.608,159.759 260.519 C 160.152 260.404,160.519 260.702,161.007 261.529 C 161.846 262.951,163.698 262.927,165.806 261.466 C 167.120 260.555,170.198 259.753,171.474 259.990 C 171.912 260.071,172.773 260.289,173.386 260.475 M105.657 260.557 C 109.617 261.195,110.689 264.003,110.910 274.310 C 111.095 282.921,111.125 283.031,113.413 283.572 C 116.226 284.238,114.795 284.777,109.960 284.872 C 103.811 284.994,102.668 284.692,105.027 283.567 C 106.581 282.826,106.813 281.994,107.009 276.465 C 107.404 265.337,105.555 262.531,98.486 263.536 C 95.209 264.002,95.020 263.471,97.928 261.970 C 99.930 260.938,103.013 260.048,103.904 260.246 C 104.167 260.304,104.956 260.444,105.657 260.557 M137.537 260.513 C 139.595 261.062,142.384 262.656,143.059 263.670 C 143.349 264.106,143.848 264.830,144.168 265.280 C 147.537 270.014,144.512 283.028,140.043 283.028 C 139.866 283.028,139.376 283.351,138.953 283.745 C 138.357 284.301,137.645 284.509,135.785 284.672 C 134.466 284.787,132.710 284.985,131.882 285.111 C 120.714 286.811,115.902 265.554,126.652 262.006 C 127.288 261.796,127.809 261.497,127.809 261.343 C 127.809 260.344,134.696 259.757,137.537 260.513 M204.462 260.782 C 205.339 260.969,206.480 261.336,206.998 261.599 C 207.719 261.964,208.549 262.029,210.549 261.875 C 212.761 261.705,213.189 261.752,213.354 262.181 C 213.647 262.945,213.375 263.179,211.316 263.929 C 209.083 264.744,208.816 265.279,208.785 269.000 C 208.758 272.141,206.397 275.619,203.906 276.186 C 203.425 276.295,202.910 276.603,202.760 276.869 C 202.580 277.192,201.572 277.477,199.746 277.721 C 196.680 278.131,196.464 278.260,196.193 279.841 C 195.853 281.831,198.046 282.783,203.870 283.174 C 211.024 283.655,212.899 285.018,212.907 289.744 C 212.912 292.913,208.652 298.420,205.606 299.185 C 205.162 299.296,204.556 299.687,204.261 300.052 C 203.766 300.664,203.338 300.725,198.902 300.820 L 194.081 300.923 193.039 300.023 C 192.466 299.528,191.549 298.787,191.001 298.376 C 187.504 295.751,187.758 290.951,191.503 288.877 C 193.723 287.647,193.958 286.023,192.194 284.109 C 190.651 282.436,190.834 281.598,193.023 280.315 C 193.774 279.875,194.482 279.364,194.596 279.181 C 194.914 278.665,193.212 276.439,192.168 276.006 C 191.655 275.794,191.235 275.488,191.235 275.327 C 191.235 275.166,190.912 274.598,190.518 274.064 C 189.304 272.423,189.447 266.434,190.745 264.560 C 192.250 262.387,195.106 260.739,197.450 260.692 C 198.502 260.671,199.721 260.544,200.159 260.411 C 201.002 260.155,201.872 260.230,204.462 260.782 M235.935 260.546 C 238.727 261.138,241.237 262.919,242.354 265.100 C 242.646 265.669,243.019 266.135,243.183 266.135 C 244.585 266.135,244.460 276.025,243.028 278.396 C 241.631 280.710,238.918 283.347,237.935 283.347 C 236.893 283.347,236.876 282.530,237.900 281.631 C 240.690 279.181,240.519 269.250,237.625 265.689 C 235.229 262.741,231.870 261.223,229.049 261.815 C 228.586 261.913,227.849 262.066,227.410 262.157 C 226.972 262.248,226.614 262.494,226.614 262.703 C 226.614 262.912,226.247 263.376,225.800 263.733 C 223.422 265.631,222.642 272.011,224.245 276.455 C 226.275 282.087,229.278 284.230,234.502 283.778 C 236.669 283.590,237.464 283.863,236.495 284.462 C 236.066 284.727,231.721 285.075,229.163 285.048 C 224.536 285.001,220.436 281.447,219.662 276.813 C 218.919 272.360,219.391 266.901,220.609 265.858 C 220.931 265.582,221.195 265.190,221.195 264.987 C 221.195 264.528,223.865 262.311,224.419 262.311 C 224.643 262.311,225.338 261.956,225.964 261.522 C 227.901 260.180,232.214 259.758,235.935 260.546 M77.774 261.691 C 77.965 262.402,78.401 263.223,78.742 263.515 C 79.573 264.226,79.524 264.802,78.566 265.555 L 77.769 266.182 77.769 273.787 C 77.769 282.377,77.855 282.812,79.719 283.647 C 81.778 284.569,80.553 284.941,75.479 284.936 C 69.762 284.930,68.254 284.473,71.120 283.614 C 72.041 283.338,72.714 282.840,73.351 281.960 L 74.263 280.701 74.258 273.657 C 74.251 265.225,74.014 264.420,71.310 263.656 C 69.257 263.076,69.358 262.448,71.578 261.987 C 72.555 261.784,74.097 261.354,75.004 261.032 C 77.296 260.216,77.382 260.237,77.774 261.691 M90.089 260.685 C 90.639 260.843,91.704 261.569,92.456 262.299 C 93.208 263.028,94.230 263.706,94.727 263.806 C 96.024 264.065,96.124 264.471,95.140 265.497 L 94.275 266.400 94.323 273.678 C 94.379 282.207,94.524 282.771,96.876 283.671 C 99.135 284.535,97.782 284.940,92.637 284.940 C 87.258 284.940,85.870 284.516,88.458 283.662 C 90.561 282.967,90.677 282.490,90.677 274.568 L 90.677 267.514 89.488 265.723 C 87.989 263.465,86.947 263.117,82.658 263.438 C 79.397 263.683,78.766 263.339,80.865 262.462 C 81.516 262.190,82.276 261.762,82.554 261.510 C 83.594 260.569,88.000 260.086,90.089 260.685 M196.335 261.722 C 194.021 262.346,192.686 267.039,193.817 270.575 C 194.816 273.697,195.034 274.031,196.792 275.132 C 201.023 277.783,205.172 274.646,205.239 268.745 C 205.297 263.772,201.074 260.442,196.335 261.722 M130.233 261.921 C 129.005 262.035,127.224 263.481,126.052 265.317 C 122.861 270.310,126.774 282.288,132.028 283.611 C 134.885 284.331,137.911 283.962,138.337 282.842 C 138.490 282.440,138.887 281.965,139.220 281.787 C 140.876 280.901,142.088 273.759,141.100 270.708 C 140.825 269.858,140.431 268.520,140.224 267.733 C 139.195 263.808,135.164 261.463,130.233 261.921 M201.753 262.899 C 206.286 266.233,204.765 275.384,199.681 275.364 C 194.420 275.344,191.820 265.072,196.400 262.400 C 197.398 261.818,200.702 262.126,201.753 262.899 M135.100 263.006 C 138.865 264.829,140.364 267.931,140.386 273.944 C 140.402 278.461,140.142 279.593,138.731 281.155 C 132.535 288.014,123.653 278.145,125.994 267.003 C 126.774 263.291,131.449 261.239,135.100 263.006 M234.404 263.446 C 240.305 267.072,241.012 279.869,235.471 282.735 C 231.500 284.789,226.309 281.473,224.837 275.941 C 222.286 266.360,227.681 259.314,234.404 263.446 M316.972 266.507 C 323.176 269.674,323.475 279.576,317.442 282.075 C 316.921 282.291,316.494 282.706,316.494 282.998 C 316.494 284.792,307.359 282.740,306.226 280.692 C 305.539 279.449,305.457 266.885,306.132 266.139 C 307.371 264.770,314.012 264.996,316.972 266.507 M196.335 286.578 C 195.721 286.747,194.932 287.217,194.582 287.624 C 194.231 288.030,193.750 288.423,193.512 288.495 C 191.491 289.115,191.938 294.501,194.191 296.670 C 196.853 299.233,206.275 299.324,207.210 296.797 C 207.344 296.434,207.734 295.988,208.076 295.804 C 209.629 294.973,209.897 288.765,208.380 288.765 C 208.224 288.765,207.744 288.384,207.312 287.917 C 205.998 286.500,199.509 285.708,196.335 286.578 M204.570 287.187 C 207.713 287.912,209.572 290.610,208.816 293.348 C 207.036 299.797,193.534 299.504,192.910 293.003 C 192.757 291.415,193.270 289.084,193.772 289.084 C 193.913 289.084,194.439 288.668,194.942 288.160 C 196.230 286.859,201.041 286.373,204.570 287.187 " stroke="none" fill="#848a7c" fill-rule="evenodd"></path></g></svg>