<svg id="svg" version="1.1" xmlns="http://www.w3.org/2000/svg" xmlns:xlink="http://www.w3.org/1999/xlink" width="400" height="400" viewBox="0, 0, 400,400"><g id="svgg"><path id="path0" d="M172.800 159.600 C 171.590 160.011,170.044 160.359,169.363 160.374 C 168.035 160.402,166.969 161.141,164.055 164.055 C 161.221 166.889,160.401 168.031,160.387 169.163 C 160.380 169.734,160.026 171.190,159.600 172.400 C 158.400 175.811,158.361 315.101,159.559 318.713 C 159.976 319.971,160.442 321.765,160.594 322.700 C 160.746 323.635,161.038 324.400,161.244 324.400 C 161.449 324.400,161.838 324.890,162.109 325.489 C 162.628 326.640,164.684 328.800,165.259 328.800 C 165.447 328.800,165.600 329.051,165.600 329.357 C 165.600 329.965,166.439 330.400,167.613 330.400 C 168.024 330.400,168.532 330.706,168.741 331.081 C 169.415 332.285,173.408 332.351,245.800 332.347 C 318.678 332.343,322.588 332.279,323.256 331.086 C 323.467 330.709,323.887 330.400,324.189 330.400 C 324.491 330.400,325.247 329.981,325.869 329.468 C 326.491 328.956,327.315 328.421,327.700 328.281 C 328.085 328.140,328.400 327.771,328.400 327.462 C 328.400 327.152,328.698 326.651,329.062 326.349 C 329.426 326.047,329.978 325.260,330.290 324.600 C 330.601 323.940,331.158 322.860,331.528 322.200 C 332.149 321.091,332.210 315.659,332.329 250.600 C 332.466 175.374,332.388 169.925,331.157 168.870 C 330.741 168.514,330.400 167.845,330.400 167.383 C 330.400 166.922,329.995 166.169,329.500 165.711 C 329.005 165.252,328.108 164.320,327.506 163.639 C 326.905 162.957,326.230 162.400,326.006 162.400 C 325.783 162.400,325.222 162.022,324.760 161.560 C 324.269 161.069,323.064 160.582,321.860 160.387 C 320.727 160.203,318.720 159.774,317.400 159.433 C 313.340 158.383,175.914 158.542,172.800 159.600 M233.880 212.100 C 234.584 212.485,235.610 212.800,236.160 212.800 C 236.709 212.800,237.644 213.250,238.238 213.800 C 238.831 214.350,239.484 214.800,239.689 214.800 C 240.182 214.800,242.400 217.031,242.400 217.526 C 242.400 217.740,242.644 218.008,242.941 218.122 C 243.936 218.504,245.634 221.966,245.875 224.104 C 246.005 225.257,246.392 226.740,246.735 227.400 C 247.644 229.152,247.632 235.796,246.717 237.631 C 246.342 238.384,245.928 239.837,245.799 240.860 C 245.669 241.883,245.211 243.126,244.781 243.621 C 244.352 244.117,244.000 244.735,244.000 244.995 C 244.000 245.535,240.497 249.200,239.981 249.200 C 239.794 249.200,239.156 249.650,238.562 250.200 C 237.949 250.769,237.003 251.200,236.370 251.200 C 235.758 251.200,234.943 251.515,234.558 251.900 C 233.957 252.503,232.742 252.633,225.830 252.837 C 221.413 252.967,217.800 253.102,217.800 253.136 C 217.800 253.171,217.859 258.766,217.930 265.569 C 218.020 274.109,217.923 278.197,217.616 278.770 C 217.013 279.897,203.070 280.081,202.643 278.967 C 202.293 278.055,202.355 212.689,202.706 212.146 C 203.493 210.931,231.666 210.889,233.880 212.100 M270.081 211.920 C 270.492 212.332,270.642 218.136,270.800 239.862 L 271.000 267.285 280.222 267.223 C 292.176 267.144,291.600 266.817,291.600 273.685 C 291.600 277.813,291.499 278.589,290.900 279.043 C 290.008 279.721,256.424 279.855,255.174 279.186 C 254.418 278.782,254.400 277.989,254.400 245.815 L 254.400 212.858 255.487 212.003 C 256.802 210.969,269.062 210.899,270.081 211.920 M218.609 224.337 C 217.859 224.657,217.545 239.731,218.263 240.900 C 219.070 242.214,228.075 240.626,228.750 239.050 C 228.832 238.857,229.282 238.318,229.750 237.850 C 230.526 237.074,230.600 236.565,230.600 232.000 L 230.600 227.000 229.359 225.675 C 228.058 224.286,220.833 223.387,218.609 224.337 " stroke="none" fill="#fb0404" fill-rule="evenodd"></path><path id="path1" d="M125.388 67.659 C 116.266 67.839,109.706 68.161,106.588 68.581 C 103.955 68.935,99.675 69.396,97.077 69.605 C 94.480 69.813,91.576 70.248,90.625 70.571 C 89.674 70.894,87.479 71.282,85.748 71.433 C 84.017 71.584,82.129 71.946,81.553 72.237 C 80.978 72.527,79.402 72.943,78.053 73.161 C 76.703 73.378,75.199 73.836,74.710 74.178 C 74.222 74.520,73.436 74.800,72.965 74.800 C 72.494 74.800,71.655 75.156,71.101 75.592 C 70.547 76.028,69.623 76.563,69.047 76.782 C 68.471 77.001,67.989 77.500,67.974 77.890 C 67.948 78.620,67.661 116.901,67.612 126.200 C 67.597 129.060,67.687 139.135,67.813 148.588 C 67.976 160.863,67.913 166.014,67.595 166.610 C 67.298 167.164,67.227 169.039,67.384 172.221 C 67.513 174.850,67.712 185.874,67.827 196.719 C 68.018 214.827,68.091 216.459,68.718 216.689 C 69.093 216.827,69.533 217.158,69.695 217.425 C 69.857 217.692,70.487 218.035,71.095 218.187 C 71.703 218.338,72.490 218.724,72.845 219.043 C 73.199 219.363,74.549 219.796,75.845 220.007 C 77.140 220.217,78.380 220.634,78.600 220.934 C 78.842 221.264,80.106 221.558,81.803 221.679 C 83.386 221.792,85.215 222.200,86.003 222.615 C 87.040 223.161,88.739 223.422,92.600 223.629 C 95.749 223.797,98.431 224.155,99.400 224.536 C 100.543 224.985,102.542 225.180,106.400 225.218 C 112.016 225.274,119.836 225.773,122.600 226.253 C 127.056 227.026,140.063 226.866,139.623 226.042 C 139.344 225.521,139.200 219.129,139.200 207.237 L 139.200 189.221 140.300 188.652 C 141.082 188.248,143.803 187.998,149.700 187.789 L 158.000 187.494 158.000 181.703 L 158.000 175.911 156.700 176.144 C 153.805 176.663,140.969 176.512,140.067 175.949 L 139.191 175.402 139.296 159.201 L 139.400 143.000 150.600 142.704 C 156.760 142.541,164.140 142.119,167.000 141.767 C 169.860 141.415,174.810 140.977,178.000 140.793 C 181.190 140.609,184.970 140.183,186.400 139.847 C 187.830 139.511,190.260 139.116,191.800 138.969 C 193.340 138.822,195.140 138.465,195.800 138.175 C 197.593 137.388,201.888 136.848,202.386 137.346 C 202.649 137.609,202.800 141.446,202.800 147.880 L 202.800 158.000 206.976 158.000 L 211.152 158.000 211.387 144.300 C 211.517 136.765,211.608 128.440,211.589 125.800 C 211.359 92.720,211.252 78.479,211.229 77.890 C 211.213 77.500,210.795 77.015,210.300 76.814 C 209.805 76.612,208.860 76.078,208.200 75.626 C 207.540 75.175,206.608 74.804,206.129 74.803 C 205.649 74.801,205.003 74.546,204.692 74.235 C 204.381 73.924,202.794 73.405,201.164 73.080 C 199.534 72.755,197.660 72.301,197.000 72.071 C 196.340 71.841,194.196 71.451,192.235 71.205 C 190.274 70.959,188.357 70.591,187.975 70.387 C 187.594 70.182,185.058 69.838,182.341 69.621 C 179.623 69.405,175.420 68.951,173.000 68.614 C 170.154 68.217,163.939 67.924,155.400 67.786 C 148.140 67.668,141.570 67.529,140.800 67.477 C 140.030 67.424,133.095 67.506,125.388 67.659 M202.704 106.143 L 202.600 125.381 201.600 125.657 C 201.050 125.809,199.610 126.125,198.400 126.360 C 197.190 126.594,195.480 126.961,194.600 127.175 C 190.495 128.173,179.990 129.550,176.200 129.585 C 174.660 129.600,172.230 129.897,170.800 130.245 C 167.795 130.977,142.202 131.668,140.300 131.068 L 139.200 130.722 139.200 112.010 C 139.200 95.662,139.278 93.233,139.815 92.788 C 140.272 92.409,142.256 92.298,147.515 92.360 C 152.562 92.419,155.636 92.259,158.200 91.803 C 160.180 91.452,164.500 91.081,167.800 90.981 C 176.580 90.713,180.001 90.431,181.798 89.827 C 182.679 89.532,185.110 89.161,187.200 89.004 C 189.290 88.847,191.540 88.486,192.200 88.201 C 192.860 87.916,195.012 87.472,196.983 87.215 C 198.954 86.957,200.842 86.592,201.179 86.404 C 202.767 85.515,202.812 86.099,202.704 106.143 M172.500 157.876 C 172.885 157.976,173.515 157.976,173.900 157.876 C 174.285 157.775,173.970 157.693,173.200 157.693 C 172.430 157.693,172.115 157.775,172.500 157.876 " stroke="none" fill="#98b3c5" fill-rule="evenodd"></path><path id="path2" d="M0.000 200.000 L 0.000 400.000 200.000 400.000 L 400.000 400.000 400.000 200.000 L 400.000 0.000 200.000 0.000 L 0.000 0.000 0.000 200.000 M153.600 66.401 C 156.790 66.620,163.717 66.994,168.992 67.234 C 174.268 67.474,178.905 67.842,179.296 68.051 C 179.687 68.261,182.011 68.608,184.461 68.823 C 189.239 69.242,190.064 69.384,192.714 70.244 C 193.657 70.550,195.284 70.800,196.329 70.800 C 197.391 70.800,198.873 71.127,199.685 71.541 C 200.485 71.949,201.978 72.398,203.003 72.538 C 204.027 72.679,205.325 73.155,205.887 73.597 C 206.448 74.039,207.306 74.400,207.793 74.400 C 208.279 74.400,209.093 74.760,209.600 75.200 C 210.107 75.640,210.673 76.000,210.856 76.000 C 211.040 76.000,211.647 76.724,212.206 77.610 L 213.223 79.220 213.248 118.410 L 213.274 157.600 267.583 157.600 C 319.947 157.600,321.926 157.627,322.846 158.345 C 323.371 158.755,324.250 159.227,324.800 159.395 C 325.350 159.562,326.122 160.037,326.516 160.450 C 326.909 160.862,327.404 161.200,327.616 161.200 C 328.211 161.200,331.132 164.355,331.440 165.330 C 331.591 165.809,332.049 166.435,332.457 166.723 C 332.974 167.086,333.200 167.742,333.200 168.879 C 333.200 169.972,333.431 170.681,333.900 171.024 C 334.562 171.508,334.600 175.530,334.600 245.726 C 334.600 315.822,334.561 319.959,333.900 320.690 C 333.515 321.115,333.200 322.079,333.200 322.831 C 333.199 323.714,332.844 324.613,332.200 325.362 C 331.650 326.001,331.200 326.766,331.200 327.062 C 331.200 327.358,330.913 327.600,330.563 327.600 C 330.212 327.600,329.827 327.974,329.708 328.431 C 329.588 328.888,329.065 329.423,328.545 329.621 C 328.025 329.818,327.600 330.255,327.600 330.590 C 327.600 330.926,327.356 331.200,327.058 331.200 C 326.761 331.200,326.031 331.650,325.438 332.200 C 324.771 332.818,323.887 333.200,323.123 333.200 C 322.409 333.200,321.673 333.495,321.376 333.900 C 320.514 335.079,171.981 335.181,170.803 334.003 C 170.356 333.556,169.468 333.200,168.800 333.200 C 168.133 333.200,167.244 332.844,166.800 332.400 C 166.360 331.960,165.775 331.600,165.500 331.600 C 164.345 331.600,160.021 326.777,159.403 324.800 C 159.231 324.250,158.755 323.371,158.345 322.846 C 157.628 321.928,157.600 320.122,157.600 274.687 L 157.600 227.483 142.500 227.754 C 127.419 228.025,112.240 227.617,108.000 226.828 C 106.790 226.603,103.132 226.234,99.871 226.008 C 96.610 225.782,93.562 225.394,93.098 225.145 C 92.633 224.897,90.396 224.559,88.125 224.395 C 85.855 224.230,83.762 223.901,83.475 223.662 C 83.188 223.424,81.498 222.976,79.720 222.668 C 77.942 222.359,76.068 221.813,75.555 221.453 C 75.042 221.094,74.136 220.800,73.542 220.800 C 72.948 220.800,71.927 220.350,71.273 219.800 C 70.619 219.250,69.803 218.800,69.458 218.800 C 68.656 218.800,67.421 217.473,66.587 215.717 C 65.605 213.646,65.589 79.518,66.571 78.432 C 66.917 78.050,67.200 77.533,67.200 77.283 C 67.200 77.033,67.605 76.617,68.100 76.360 C 68.595 76.102,69.322 75.556,69.716 75.146 C 70.109 74.736,70.850 74.400,71.362 74.400 C 71.873 74.400,72.752 74.039,73.313 73.597 C 73.875 73.155,75.204 72.684,76.267 72.549 C 77.330 72.414,78.612 72.047,79.115 71.733 C 79.619 71.419,81.460 70.998,83.208 70.799 C 84.956 70.600,87.178 70.168,88.146 69.839 C 89.115 69.510,91.995 69.060,94.547 68.838 C 97.099 68.616,99.505 68.268,99.894 68.063 C 100.282 67.858,103.030 67.574,106.000 67.432 C 108.970 67.289,116.530 66.907,122.800 66.582 C 140.640 65.658,142.574 65.647,153.600 66.401 M205.080 214.253 C 204.926 214.407,204.800 228.903,204.800 246.467 L 204.800 278.400 210.600 278.400 L 216.400 278.400 216.400 265.262 C 216.400 249.430,215.829 250.800,222.431 250.801 C 229.248 250.801,235.634 250.048,236.516 249.138 C 236.909 248.732,237.645 248.400,238.151 248.400 C 238.745 248.400,239.233 248.045,239.527 247.400 C 239.778 246.850,240.257 246.400,240.591 246.400 C 240.926 246.400,241.200 246.083,241.200 245.696 C 241.200 245.309,241.544 244.778,241.964 244.515 C 242.384 244.253,242.854 243.445,243.007 242.719 C 243.161 241.994,243.642 240.815,244.076 240.099 C 245.145 238.340,245.046 225.386,243.955 224.297 C 243.601 223.943,243.199 222.952,243.061 222.094 C 242.924 221.237,242.449 220.207,242.006 219.805 C 241.563 219.404,241.200 218.744,241.200 218.338 C 241.200 217.875,240.912 217.600,240.427 217.600 C 240.002 217.600,239.546 217.261,239.415 216.848 C 239.276 216.410,238.649 215.990,237.914 215.843 C 237.220 215.704,236.307 215.278,235.885 214.895 C 235.083 214.170,205.775 213.559,205.080 214.253 M256.800 246.200 L 256.800 278.400 273.000 278.400 L 289.200 278.400 289.200 273.820 L 289.200 269.239 279.167 269.120 C 269.773 269.008,269.098 268.951,268.567 268.224 C 268.091 267.572,268.000 263.159,268.000 240.724 L 268.000 214.000 262.400 214.000 L 256.800 214.000 256.800 246.200 M228.000 222.400 C 228.440 222.840,228.952 223.200,229.138 223.200 C 229.880 223.200,231.563 225.071,231.836 226.200 C 231.996 226.860,232.357 227.760,232.639 228.200 C 233.794 230.001,233.630 236.400,232.429 236.400 C 232.242 236.400,231.977 236.998,231.840 237.729 C 231.677 238.597,230.965 239.637,229.785 240.729 L 227.979 242.400 222.189 242.400 L 216.400 242.400 216.400 232.233 C 216.400 224.474,216.518 222.019,216.900 221.865 C 218.539 221.204,227.222 221.622,228.000 222.400 " stroke="none" fill="#fbfbfb" fill-rule="evenodd"></path><path id="path3" d="M183.728 158.300 C 189.408 158.362,198.588 158.362,204.128 158.300 C 209.668 158.237,205.020 158.186,193.800 158.186 C 182.580 158.186,178.048 158.237,183.728 158.300 M170.000 159.000 C 169.365 159.363,169.227 159.577,169.620 159.586 C 169.961 159.594,170.411 159.437,170.620 159.239 C 170.829 159.040,171.360 158.791,171.800 158.685 L 172.600 158.493 171.800 158.461 C 171.360 158.443,170.550 158.686,170.000 159.000 M319.000 158.811 C 321.904 159.606,322.275 159.645,321.000 159.022 C 320.340 158.700,319.350 158.446,318.800 158.459 C 317.880 158.480,317.896 158.508,319.000 158.811 M323.400 160.050 C 324.060 160.300,324.960 160.789,325.400 161.137 L 326.200 161.770 325.400 160.910 C 324.960 160.437,324.060 159.948,323.400 159.823 L 322.200 159.595 323.400 160.050 M165.600 161.060 C 163.464 162.573,162.426 163.631,161.140 165.600 C 160.494 166.590,160.378 166.860,160.882 166.200 C 161.949 164.805,164.609 162.188,166.255 160.914 C 167.795 159.723,167.346 159.823,165.600 161.060 M327.400 162.729 C 328.060 163.337,329.185 164.508,329.900 165.331 C 330.615 166.154,331.197 166.687,331.194 166.514 C 331.184 166.023,327.031 161.599,326.592 161.612 C 326.376 161.618,326.740 162.121,327.400 162.729 M158.865 170.217 C 158.195 171.688,158.323 172.002,159.047 170.665 C 159.386 170.040,159.588 169.454,159.496 169.363 C 159.405 169.271,159.121 169.656,158.865 170.217 M332.676 170.800 C 332.816 171.570,333.040 204.690,333.174 244.400 L 333.419 316.600 333.388 244.400 C 333.365 190.452,333.239 171.846,332.890 170.800 L 332.422 169.400 332.676 170.800 M158.109 174.800 C 158.109 175.790,158.187 176.195,158.282 175.700 C 158.378 175.205,158.378 174.395,158.282 173.900 C 158.187 173.405,158.109 173.810,158.109 174.800 M158.195 251.800 C 158.195 287.440,158.242 301.961,158.300 284.068 C 158.358 266.176,158.358 237.016,158.300 219.268 C 158.242 201.521,158.195 216.160,158.195 251.800 M204.400 212.265 C 202.782 212.878,202.800 212.507,202.800 246.053 C 202.800 263.818,202.935 278.436,203.100 278.538 C 203.265 278.640,203.350 264.386,203.289 246.862 C 203.168 212.275,203.118 213.548,204.609 212.869 C 206.251 212.120,227.269 212.240,231.745 213.023 C 235.830 213.737,236.876 213.547,233.120 212.773 C 230.544 212.242,205.625 211.801,204.400 212.265 M256.257 212.601 C 255.895 212.962,255.607 213.559,255.616 213.929 C 255.627 214.378,255.829 214.236,256.229 213.500 L 256.826 212.400 262.324 212.400 C 266.653 212.400,268.011 212.532,268.711 213.023 L 269.600 213.645 269.600 240.574 C 269.600 264.271,269.674 267.563,270.213 268.011 C 270.751 268.457,270.775 268.387,270.413 267.434 C 270.144 266.727,270.000 257.155,270.000 240.050 C 270.000 217.989,269.909 213.628,269.433 212.976 C 268.626 211.871,257.309 211.548,256.257 212.601 M237.309 214.400 C 237.869 214.840,238.457 215.200,238.617 215.200 C 238.777 215.200,238.450 214.840,237.891 214.400 C 237.331 213.960,236.743 213.600,236.583 213.600 C 236.423 213.600,236.750 213.960,237.309 214.400 M242.254 218.403 C 242.724 218.951,243.241 219.838,243.404 220.372 C 243.746 221.497,245.196 223.976,245.199 223.440 C 245.202 222.653,243.088 218.826,242.270 218.138 L 241.400 217.406 242.254 218.403 M217.700 222.647 C 217.425 222.768,217.200 223.135,217.200 223.462 C 217.200 223.965,217.302 223.955,217.855 223.402 C 218.568 222.689,224.969 222.666,226.600 223.372 C 227.273 223.663,227.318 223.629,226.881 223.159 C 226.354 222.592,218.788 222.170,217.700 222.647 M228.266 224.000 C 228.742 224.192,229.322 224.675,229.554 225.074 C 229.786 225.474,229.981 225.603,229.988 225.362 C 230.005 224.754,228.657 223.595,227.969 223.625 C 227.656 223.639,227.790 223.808,228.266 224.000 M216.969 232.600 C 216.970 237.220,217.028 239.055,217.099 236.678 C 217.170 234.301,217.169 230.521,217.098 228.278 C 217.027 226.035,216.969 227.980,216.969 232.600 M245.293 226.000 C 245.293 226.770,245.375 227.085,245.476 226.700 C 245.576 226.315,245.576 225.685,245.476 225.300 C 245.375 224.915,245.293 225.230,245.293 226.000 M245.800 232.598 C 245.800 235.111,245.922 236.860,246.072 236.484 C 246.221 236.108,246.344 234.360,246.344 232.600 C 246.344 230.840,246.221 229.092,246.072 228.715 C 245.922 228.338,245.800 230.086,245.800 232.598 M231.709 232.400 C 231.709 233.390,231.787 233.795,231.882 233.300 C 231.978 232.805,231.978 231.995,231.882 231.500 C 231.787 231.005,231.709 231.410,231.709 232.400 M229.690 238.900 C 229.009 239.615,228.035 240.519,227.526 240.908 C 226.641 241.585,226.655 241.585,227.842 240.908 C 228.525 240.518,229.576 239.614,230.178 238.900 C 231.589 237.222,231.288 237.223,229.690 238.900 M244.288 242.063 C 243.896 242.748,243.646 243.380,243.733 243.467 C 243.978 243.711,245.267 241.599,245.125 241.185 C 245.056 240.983,244.679 241.378,244.288 242.063 M217.553 241.714 C 217.726 241.887,219.833 241.976,222.234 241.912 L 226.600 241.796 221.918 241.598 C 219.344 241.489,217.379 241.541,217.553 241.714 M243.200 244.307 C 243.200 244.476,242.370 245.601,241.355 246.807 L 239.510 249.000 241.555 246.883 C 243.368 245.006,244.012 244.000,243.400 244.000 C 243.290 244.000,243.200 244.138,243.200 244.307 M232.600 251.312 C 232.098 251.618,229.267 251.883,225.000 252.022 L 218.200 252.245 224.800 252.312 C 230.535 252.370,231.610 252.280,233.000 251.622 C 233.880 251.205,234.330 250.856,234.000 250.845 C 233.670 250.833,233.040 251.044,232.600 251.312 M216.797 265.800 L 216.600 278.600 210.400 278.816 L 204.200 279.032 210.200 279.110 C 213.500 279.153,216.428 279.043,216.706 278.867 C 217.100 278.617,217.187 275.728,217.103 265.773 L 216.994 253.000 216.797 265.800 M280.569 268.300 C 290.769 268.442,290.056 268.011,289.912 273.959 L 289.800 278.600 272.738 278.600 C 263.354 278.600,255.884 278.732,256.138 278.894 C 256.691 279.246,288.858 279.306,289.767 278.957 C 290.822 278.552,290.694 268.986,289.626 268.414 C 289.147 268.158,285.682 268.035,280.526 268.091 L 272.200 268.183 280.569 268.300 M332.629 319.629 C 332.476 320.979,332.433 322.166,332.533 322.267 C 332.634 322.367,332.844 321.347,333.000 320.000 C 333.156 318.653,333.199 317.466,333.095 317.362 C 332.991 317.258,332.781 318.278,332.629 319.629 M158.432 319.400 C 158.430 319.840,158.686 320.650,159.000 321.200 C 159.730 322.478,159.734 322.204,159.012 320.200 C 158.695 319.320,158.434 318.960,158.432 319.400 M159.823 323.400 C 159.948 324.060,160.437 324.960,160.910 325.400 L 161.770 326.200 161.137 325.400 C 160.789 324.960,160.300 324.060,160.050 323.400 L 159.595 322.200 159.823 323.400 M331.441 323.663 C 331.088 324.166,330.800 324.783,330.800 325.034 C 330.800 325.285,330.260 326.169,329.600 327.000 C 328.940 327.831,328.400 328.613,328.400 328.740 C 328.400 329.196,330.778 326.180,331.033 325.400 C 331.177 324.960,331.572 324.284,331.912 323.898 C 332.251 323.511,332.428 323.095,332.305 322.972 C 332.182 322.849,331.793 323.160,331.441 323.663 M162.800 327.940 C 162.800 328.201,164.848 330.135,165.648 330.630 C 166.459 331.131,165.894 330.436,164.400 329.095 C 163.520 328.305,162.800 327.785,162.800 327.940 M326.678 329.813 C 326.060 330.356,325.714 330.800,325.908 330.800 C 326.102 330.800,326.683 330.350,327.200 329.800 C 328.395 328.528,328.131 328.534,326.678 329.813 M166.800 331.220 C 168.272 332.219,169.013 332.457,168.056 331.623 C 167.536 331.170,166.906 330.803,166.656 330.806 C 166.405 330.809,166.470 330.996,166.800 331.220 M173.000 333.223 C 175.091 333.655,316.509 333.655,318.600 333.223 C 319.480 333.041,286.720 332.892,245.800 332.892 C 204.880 332.892,172.120 333.041,173.000 333.223 " stroke="none" fill="#fc9494" fill-rule="evenodd"></path><path id="path4" d="M131.200 66.425 C 127.130 66.604,119.030 66.956,113.200 67.207 C 107.103 67.470,101.665 67.899,100.400 68.217 C 99.190 68.521,96.171 68.952,93.692 69.175 C 91.213 69.398,88.847 69.761,88.436 69.981 C 88.024 70.201,86.146 70.557,84.263 70.771 C 82.379 70.985,80.293 71.442,79.626 71.787 C 78.959 72.131,77.556 72.528,76.507 72.668 C 75.458 72.807,74.171 73.254,73.646 73.661 C 73.121 74.067,72.335 74.400,71.898 74.400 C 71.461 74.400,70.334 74.895,69.393 75.500 C 66.061 77.642,66.337 71.195,66.332 146.967 C 66.327 223.950,66.002 217.172,69.780 218.791 C 70.781 219.221,71.600 219.742,71.600 219.951 C 71.600 220.159,72.365 220.457,73.300 220.613 C 74.235 220.768,75.643 221.222,76.429 221.620 C 77.216 222.018,79.016 222.474,80.429 222.632 C 81.843 222.791,83.368 223.160,83.818 223.453 C 84.268 223.745,86.518 224.158,88.818 224.369 C 91.118 224.580,93.630 224.947,94.400 225.183 C 95.170 225.419,98.320 225.790,101.400 226.007 C 104.480 226.225,108.350 226.604,110.000 226.851 C 113.276 227.341,153.045 227.816,155.900 227.399 L 157.600 227.151 157.600 207.324 L 157.600 187.498 149.500 187.792 C 143.791 188.000,141.075 188.254,140.300 188.654 L 139.200 189.221 139.200 207.237 C 139.200 219.129,139.344 225.521,139.623 226.042 C 140.063 226.866,127.056 227.026,122.600 226.253 C 119.836 225.773,112.016 225.274,106.400 225.218 C 102.542 225.180,100.543 224.985,99.400 224.536 C 98.431 224.155,95.749 223.797,92.600 223.629 C 88.739 223.422,87.040 223.161,86.003 222.615 C 85.215 222.200,83.386 221.792,81.803 221.679 C 80.106 221.558,78.842 221.264,78.600 220.934 C 78.380 220.634,77.140 220.217,75.845 220.007 C 74.549 219.796,73.199 219.363,72.845 219.043 C 72.490 218.724,71.703 218.338,71.095 218.187 C 70.487 218.035,69.857 217.692,69.695 217.425 C 69.533 217.158,69.093 216.827,68.718 216.689 C 68.091 216.459,68.018 214.827,67.827 196.719 C 67.712 185.874,67.513 174.850,67.384 172.221 C 67.227 169.039,67.298 167.164,67.595 166.610 C 67.913 166.014,67.976 160.863,67.813 148.588 C 67.687 139.135,67.597 129.060,67.612 126.200 C 67.661 116.901,67.948 78.620,67.974 77.890 C 67.989 77.500,68.471 77.001,69.047 76.782 C 69.623 76.563,70.547 76.028,71.101 75.592 C 71.655 75.156,72.494 74.800,72.965 74.800 C 73.436 74.800,74.222 74.520,74.710 74.178 C 75.199 73.836,76.703 73.378,78.053 73.161 C 79.402 72.943,80.978 72.527,81.553 72.237 C 82.129 71.946,84.017 71.584,85.748 71.433 C 87.479 71.282,89.674 70.894,90.625 70.571 C 91.576 70.248,94.480 69.813,97.077 69.605 C 99.675 69.396,103.942 68.937,106.560 68.584 C 116.779 67.208,162.423 67.208,172.640 68.584 C 175.258 68.937,179.623 69.403,182.341 69.621 C 185.058 69.838,187.594 70.182,187.975 70.387 C 188.357 70.591,190.274 70.959,192.235 71.205 C 194.196 71.451,196.340 71.841,197.000 72.071 C 197.660 72.301,199.534 72.755,201.164 73.080 C 202.794 73.405,204.381 73.924,204.692 74.235 C 205.003 74.546,205.649 74.801,206.129 74.803 C 206.608 74.804,207.540 75.175,208.200 75.626 C 208.860 76.078,209.805 76.612,210.300 76.814 C 210.795 77.015,211.213 77.500,211.229 77.890 C 211.253 78.490,211.323 87.834,211.590 125.800 C 211.608 128.440,211.517 136.675,211.387 144.100 C 211.152 157.543,211.155 157.600,211.976 157.600 C 212.791 157.600,212.801 157.448,212.865 143.900 C 213.049 105.279,212.768 79.429,212.149 78.000 C 211.502 76.504,208.669 74.400,207.302 74.400 C 206.865 74.400,206.079 74.067,205.554 73.661 C 205.029 73.254,203.742 72.807,202.693 72.668 C 201.644 72.528,200.241 72.132,199.575 71.787 C 198.909 71.443,196.936 70.998,195.190 70.799 C 193.445 70.600,191.679 70.256,191.266 70.035 C 190.853 69.815,188.465 69.441,185.958 69.206 C 183.451 68.971,180.230 68.525,178.800 68.214 C 176.224 67.655,165.081 67.010,150.800 66.592 C 146.730 66.473,142.320 66.314,141.000 66.238 C 139.680 66.162,135.270 66.246,131.200 66.425 M201.179 86.404 C 200.842 86.592,198.954 86.957,196.983 87.215 C 195.012 87.472,192.860 87.916,192.200 88.201 C 191.540 88.486,189.290 88.847,187.200 89.004 C 185.110 89.161,182.679 89.532,181.798 89.827 C 180.001 90.431,176.580 90.713,167.800 90.981 C 164.500 91.081,160.180 91.452,158.200 91.803 C 155.636 92.259,152.562 92.419,147.515 92.360 C 142.256 92.298,140.272 92.409,139.815 92.788 C 139.278 93.233,139.200 95.662,139.200 112.010 L 139.200 130.722 140.300 131.068 C 142.202 131.668,167.795 130.977,170.800 130.245 C 172.230 129.897,174.660 129.600,176.200 129.585 C 179.990 129.550,190.495 128.173,194.600 127.175 C 195.480 126.961,197.190 126.594,198.400 126.360 C 199.610 126.125,201.050 125.809,201.600 125.657 L 202.600 125.381 202.704 106.143 C 202.812 86.099,202.767 85.515,201.179 86.404 M199.400 137.292 C 198.080 137.482,196.460 137.877,195.800 138.170 C 195.140 138.463,193.340 138.822,191.800 138.969 C 190.260 139.116,187.830 139.511,186.400 139.847 C 184.970 140.183,181.190 140.609,178.000 140.793 C 174.810 140.977,169.860 141.415,167.000 141.767 C 164.140 142.119,156.760 142.541,150.600 142.704 L 139.400 143.000 139.296 159.201 L 139.191 175.402 140.065 175.948 C 140.734 176.365,142.692 176.478,148.370 176.427 C 158.013 176.341,157.474 176.513,157.669 173.457 C 157.760 172.017,158.172 170.312,158.649 169.389 C 159.102 168.515,159.583 167.349,159.719 166.799 C 160.095 165.272,165.951 159.600,167.151 159.600 C 167.384 159.600,168.346 159.195,169.288 158.700 C 170.968 157.817,171.298 157.798,186.900 157.683 L 202.800 157.566 202.800 147.632 C 202.800 136.275,202.966 136.780,199.400 137.292 " stroke="none" fill="#bcccdc" fill-rule="evenodd"></path><path id="path5" d="M171.800 158.687 C 171.360 158.797,170.820 159.021,170.600 159.187 C 170.380 159.352,169.597 159.602,168.860 159.742 C 168.123 159.882,167.009 160.402,166.385 160.898 C 165.761 161.394,164.788 162.124,164.222 162.521 C 162.828 163.498,160.099 167.254,159.762 168.659 C 159.611 169.286,159.219 170.333,158.890 170.984 C 158.366 172.023,158.302 181.125,158.370 245.349 L 158.448 318.531 159.489 321.565 C 160.821 325.446,164.941 330.757,166.646 330.791 C 166.891 330.796,167.607 331.205,168.236 331.700 L 169.380 332.600 246.058 332.600 L 322.736 332.600 323.668 331.746 C 324.181 331.276,324.979 330.777,325.443 330.637 C 326.699 330.258,330.040 326.803,330.702 325.200 C 331.020 324.430,331.506 323.530,331.782 323.200 C 333.962 320.595,333.975 171.012,331.795 168.400 C 331.520 168.070,331.183 167.440,331.047 167.000 C 330.357 164.776,325.392 160.777,321.800 159.554 L 319.000 158.600 245.800 158.544 C 205.540 158.514,172.240 158.578,171.800 158.687 M317.400 159.433 C 318.720 159.774,320.727 160.203,321.860 160.387 C 323.064 160.582,324.269 161.069,324.760 161.560 C 325.222 162.022,325.783 162.400,326.006 162.400 C 326.230 162.400,326.905 162.957,327.506 163.639 C 328.108 164.320,329.005 165.252,329.500 165.711 C 329.995 166.169,330.400 166.922,330.400 167.383 C 330.400 167.845,330.741 168.514,331.157 168.870 C 332.388 169.925,332.466 175.374,332.329 250.600 C 332.210 315.659,332.149 321.091,331.528 322.200 C 331.158 322.860,330.601 323.940,330.290 324.600 C 329.978 325.260,329.426 326.047,329.062 326.349 C 328.698 326.651,328.400 327.152,328.400 327.462 C 328.400 327.771,328.085 328.140,327.700 328.281 C 327.315 328.421,326.491 328.956,325.869 329.468 C 325.247 329.981,324.491 330.400,324.189 330.400 C 323.887 330.400,323.467 330.709,323.256 331.086 C 322.588 332.279,318.678 332.343,245.800 332.347 C 173.408 332.351,169.415 332.285,168.741 331.081 C 168.532 330.706,168.024 330.400,167.613 330.400 C 166.439 330.400,165.600 329.965,165.600 329.357 C 165.600 329.051,165.447 328.800,165.259 328.800 C 164.684 328.800,162.628 326.640,162.109 325.489 C 161.838 324.890,161.449 324.400,161.244 324.400 C 161.038 324.400,160.746 323.635,160.594 322.700 C 160.442 321.765,159.976 319.971,159.559 318.713 C 158.361 315.101,158.400 175.811,159.600 172.400 C 160.026 171.190,160.380 169.734,160.387 169.163 C 160.401 168.031,161.221 166.889,164.055 164.055 C 166.969 161.141,168.035 160.402,169.363 160.374 C 170.044 160.359,171.590 160.011,172.800 159.600 C 175.914 158.542,313.340 158.383,317.400 159.433 M203.800 211.479 C 203.360 211.596,202.868 211.897,202.706 212.146 C 202.355 212.689,202.293 278.055,202.643 278.967 C 203.070 280.081,217.013 279.897,217.616 278.770 C 217.923 278.197,218.020 274.109,217.930 265.569 C 217.859 258.766,217.800 253.171,217.800 253.136 C 217.800 253.102,221.413 252.967,225.830 252.837 C 232.742 252.633,233.957 252.503,234.558 251.900 C 234.943 251.515,235.758 251.200,236.370 251.200 C 237.003 251.200,237.949 250.769,238.562 250.200 C 239.156 249.650,239.794 249.200,239.981 249.200 C 240.497 249.200,244.000 245.535,244.000 244.995 C 244.000 244.735,244.352 244.117,244.781 243.621 C 245.211 243.126,245.669 241.883,245.799 240.860 C 245.928 239.837,246.342 238.384,246.717 237.631 C 247.632 235.796,247.644 229.152,246.735 227.400 C 246.392 226.740,246.005 225.257,245.875 224.104 C 245.634 221.966,243.936 218.504,242.941 218.122 C 242.644 218.008,242.400 217.740,242.400 217.526 C 242.400 217.031,240.182 214.800,239.689 214.800 C 239.484 214.800,238.831 214.350,238.238 213.800 C 237.644 213.250,236.709 212.800,236.160 212.800 C 235.610 212.800,234.584 212.485,233.880 212.100 C 232.610 211.405,206.125 210.859,203.800 211.479 M255.487 212.003 L 254.400 212.858 254.400 245.815 C 254.400 277.989,254.418 278.782,255.174 279.186 C 256.424 279.855,290.008 279.721,290.900 279.043 C 291.499 278.589,291.600 277.813,291.600 273.685 C 291.600 266.817,292.176 267.144,280.222 267.223 L 271.000 267.285 270.800 239.862 C 270.642 218.136,270.492 212.332,270.081 211.920 C 269.062 210.899,256.802 210.969,255.487 212.003 M233.907 212.956 C 240.280 214.447,244.508 219.145,245.648 226.000 C 246.657 232.072,246.005 240.459,244.337 242.862 C 243.932 243.446,243.600 244.097,243.600 244.310 C 243.600 245.732,238.101 250.250,235.850 250.677 C 235.163 250.808,234.060 251.204,233.400 251.557 C 232.469 252.056,230.542 252.245,224.800 252.400 L 217.400 252.600 217.294 265.580 C 217.215 275.353,217.067 278.637,216.694 278.874 C 215.981 279.327,205.043 279.273,203.826 278.810 L 202.800 278.420 202.800 246.086 C 202.800 212.505,202.782 212.881,204.400 212.263 C 205.914 211.684,230.989 212.273,233.907 212.956 M269.433 212.976 C 269.908 213.627,270.005 218.039,270.028 240.176 C 270.044 254.709,270.192 266.946,270.358 267.369 C 270.644 268.101,271.101 268.134,279.699 268.039 C 285.746 267.972,289.014 268.087,289.570 268.384 C 290.688 268.982,290.867 278.535,289.767 278.957 C 288.941 279.274,257.059 279.274,256.233 278.957 C 255.245 278.578,255.268 213.589,256.257 212.601 C 257.309 211.548,268.626 211.871,269.433 212.976 M217.821 223.436 C 217.271 223.986,217.199 225.253,217.292 232.736 L 217.400 241.400 221.898 241.513 C 229.721 241.710,232.293 238.492,231.402 229.621 C 231.072 226.330,229.825 224.633,226.931 223.534 C 224.379 222.565,218.753 222.504,217.821 223.436 M229.359 225.675 L 230.600 227.000 230.600 232.000 C 230.600 236.565,230.526 237.074,229.750 237.850 C 229.282 238.318,228.832 238.857,228.750 239.050 C 228.075 240.626,219.070 242.214,218.263 240.900 C 217.545 239.731,217.859 224.657,218.609 224.337 C 220.833 223.387,228.058 224.286,229.359 225.675 " stroke="none" fill="#fc5c5c" fill-rule="evenodd"></path><path id="path6" d="M181.526 157.900 C 185.555 157.965,192.035 157.965,195.926 157.899 C 199.817 157.834,196.520 157.780,188.600 157.781 C 180.680 157.781,177.497 157.834,181.526 157.900 M211.700 157.876 C 212.085 157.976,212.715 157.976,213.100 157.876 C 213.485 157.775,213.170 157.693,212.400 157.693 C 211.630 157.693,211.315 157.775,211.700 157.876 M169.689 158.665 C 168.968 159.020,168.457 159.390,168.554 159.488 C 168.652 159.585,169.152 159.435,169.666 159.154 C 170.180 158.874,171.320 158.521,172.200 158.372 L 173.800 158.100 172.400 158.059 C 171.630 158.037,170.410 158.309,169.689 158.665 M240.300 158.300 C 254.875 158.358,278.725 158.358,293.300 158.300 C 307.875 158.242,295.950 158.194,266.800 158.194 C 237.650 158.194,225.725 158.242,240.300 158.300 M321.146 159.016 C 321.886 159.337,322.606 159.594,322.746 159.586 C 323.266 159.557,320.976 158.428,320.400 158.430 C 320.070 158.431,320.406 158.694,321.146 159.016 M165.722 160.587 C 164.263 161.871,164.667 161.879,166.400 160.600 C 167.145 160.050,167.550 159.600,167.300 159.600 C 167.050 159.600,166.340 160.044,165.722 160.587 M324.214 159.981 C 324.662 160.162,325.269 160.601,325.563 160.955 C 325.857 161.310,326.270 161.600,326.480 161.600 C 326.690 161.600,326.327 161.150,325.673 160.600 C 325.019 160.050,324.240 159.611,323.942 159.625 C 323.644 159.639,323.766 159.799,324.214 159.981 M162.679 162.893 C 161.093 164.589,161.571 164.681,163.206 162.994 C 163.949 162.227,164.387 161.621,164.178 161.647 C 163.970 161.674,163.296 162.234,162.679 162.893 M329.128 163.836 C 329.922 165.011,331.200 166.298,331.200 165.922 C 331.200 165.825,330.546 165.038,329.747 164.173 C 328.576 162.906,328.456 162.840,329.128 163.836 M160.427 165.771 C 159.925 166.306,159.579 166.928,159.657 167.155 C 159.736 167.382,160.207 166.945,160.704 166.184 C 161.767 164.555,161.685 164.432,160.427 165.771 M331.684 167.403 C 331.840 167.645,332.144 168.283,332.359 168.822 C 332.606 169.440,332.759 169.559,332.775 169.144 C 332.789 168.784,332.485 168.145,332.100 167.725 C 331.715 167.306,331.528 167.160,331.684 167.403 M158.719 169.512 C 158.367 170.111,157.978 171.860,157.854 173.400 L 157.629 176.200 158.134 173.400 C 158.411 171.860,158.869 170.180,159.151 169.666 C 159.880 168.339,159.490 168.200,158.719 169.512 M333.400 245.800 C 333.400 285.934,333.522 318.462,333.672 318.085 C 333.821 317.708,333.944 285.180,333.944 245.800 C 333.944 206.420,333.821 173.892,333.672 173.515 C 333.522 173.138,333.400 205.666,333.400 245.800 M157.786 207.800 C 157.786 219.020,157.837 223.668,157.900 218.128 C 157.962 212.588,157.962 203.408,157.900 197.728 C 157.837 192.048,157.786 196.580,157.786 207.800 M204.491 212.892 C 203.139 213.544,203.172 212.632,203.290 246.795 C 203.399 278.254,203.408 278.590,204.200 278.672 C 204.822 278.736,204.844 278.708,204.300 278.548 C 203.641 278.353,203.600 276.466,203.600 246.217 L 203.600 214.092 204.649 213.405 C 205.670 212.736,226.283 212.708,232.400 213.368 C 233.390 213.475,232.940 213.312,231.400 213.006 C 227.869 212.304,205.904 212.211,204.491 212.892 M256.210 213.580 C 255.381 215.184,255.274 278.189,256.100 278.506 C 256.498 278.659,256.577 272.161,256.489 246.649 C 256.427 229.022,256.476 214.195,256.596 213.700 C 256.810 212.822,256.949 212.800,262.163 212.800 C 270.111 212.800,269.188 209.209,269.307 240.600 L 269.406 267.000 269.503 240.323 L 269.600 213.645 268.711 213.023 C 268.011 212.532,266.652 212.400,262.321 212.400 L 256.821 212.400 256.210 213.580 M236.252 214.176 C 236.941 214.476,237.626 214.919,237.776 215.160 C 237.925 215.402,238.352 215.586,238.724 215.568 C 239.276 215.543,239.290 215.495,238.800 215.309 C 238.470 215.183,237.771 214.747,237.246 214.340 C 236.721 213.933,236.001 213.607,235.646 213.616 C 235.291 213.624,235.563 213.876,236.252 214.176 M243.613 221.900 C 243.620 222.065,243.890 222.549,244.213 222.976 C 244.536 223.404,244.825 224.214,244.854 224.776 C 244.903 225.679,244.929 225.697,245.079 224.927 C 245.172 224.447,244.963 223.502,244.614 222.827 C 244.006 221.652,243.586 221.262,243.613 221.900 M220.711 222.293 C 221.651 222.378,223.091 222.377,223.911 222.291 C 224.730 222.205,223.960 222.136,222.200 222.137 C 220.440 222.139,219.770 222.209,220.711 222.293 M226.546 223.002 C 228.005 223.763,228.375 223.768,227.376 223.013 C 226.949 222.690,226.330 222.421,226.000 222.415 C 225.670 222.410,225.916 222.674,226.546 223.002 M245.293 228.400 C 245.293 229.170,245.375 229.485,245.476 229.100 C 245.576 228.715,245.576 228.085,245.476 227.700 C 245.375 227.315,245.293 227.630,245.293 228.400 M231.779 232.085 C 231.790 234.002,231.922 235.262,232.072 234.885 C 232.422 234.004,232.402 230.891,232.039 229.600 C 231.878 229.030,231.767 230.097,231.779 232.085 M245.673 232.200 C 245.628 233.520,245.506 235.320,245.402 236.200 L 245.212 237.800 245.622 236.200 C 245.847 235.320,245.969 233.520,245.893 232.200 L 245.754 229.800 245.673 232.200 M219.900 242.295 C 221.055 242.376,222.945 242.376,224.100 242.295 C 225.255 242.214,224.310 242.148,222.000 242.148 C 219.690 242.148,218.745 242.214,219.900 242.295 M240.784 246.816 C 239.785 247.907,239.074 248.800,239.205 248.800 C 239.453 248.800,241.455 246.712,242.370 245.500 C 243.341 244.213,242.619 244.813,240.784 246.816 M237.600 249.213 C 237.600 249.440,237.195 249.789,236.700 249.988 C 236.114 250.223,236.023 250.358,236.438 250.375 C 236.789 250.389,237.402 250.040,237.800 249.600 C 238.211 249.146,238.324 248.800,238.062 248.800 C 237.808 248.800,237.600 248.986,237.600 249.213 M231.859 251.074 C 231.708 251.225,230.823 251.472,229.893 251.624 C 228.251 251.892,228.242 251.901,229.600 251.932 C 230.962 251.963,234.031 250.897,232.767 250.832 C 232.418 250.815,232.010 250.923,231.859 251.074 M216.814 252.774 C 216.586 253.199,216.414 253.784,216.432 254.074 C 216.449 254.363,216.640 254.116,216.857 253.524 C 217.073 252.933,217.554 252.369,217.925 252.271 C 218.549 252.106,218.548 252.089,217.914 252.046 C 217.537 252.021,217.042 252.348,216.814 252.774 M269.600 267.920 C 269.600 268.603,268.926 268.545,279.600 268.782 L 289.400 269.000 289.400 273.862 C 289.400 276.537,289.535 278.641,289.700 278.539 C 290.218 278.218,290.054 269.414,289.520 268.880 C 289.174 268.534,286.453 268.400,279.800 268.400 C 273.147 268.400,270.426 268.266,270.080 267.920 C 269.707 267.547,269.600 267.547,269.600 267.920 M158.059 318.140 C 158.006 319.882,159.026 323.107,159.485 322.649 C 159.584 322.550,159.431 322.048,159.145 321.534 C 158.859 321.020,158.511 319.610,158.371 318.400 L 158.118 316.200 158.059 318.140 M159.625 323.942 C 159.611 324.240,160.050 325.019,160.600 325.673 C 161.150 326.327,161.600 326.690,161.600 326.480 C 161.600 326.270,161.310 325.857,160.955 325.563 C 160.601 325.269,160.162 324.662,159.981 324.214 C 159.799 323.766,159.639 323.644,159.625 323.942 M162.430 328.237 C 162.964 328.807,163.760 329.463,164.200 329.695 C 164.640 329.927,164.290 329.461,163.422 328.659 C 161.595 326.970,161.015 326.723,162.430 328.237 M324.000 331.800 C 323.255 332.350,322.847 332.800,323.094 332.800 C 323.341 332.800,323.781 332.563,324.071 332.274 C 324.362 331.985,324.960 331.540,325.400 331.286 C 325.840 331.032,326.010 330.819,325.778 330.812 C 325.545 330.805,324.745 331.250,324.000 331.800 M167.725 332.100 C 168.145 332.485,168.784 332.789,169.144 332.775 C 169.559 332.759,169.440 332.606,168.822 332.359 C 168.283 332.144,167.645 331.840,167.403 331.684 C 167.160 331.528,167.306 331.715,167.725 332.100 M172.715 333.672 C 173.092 333.821,205.980 333.944,245.800 333.944 C 285.620 333.944,318.508 333.821,318.885 333.672 C 319.262 333.522,286.374 333.400,245.800 333.400 C 205.226 333.400,172.338 333.522,172.715 333.672 " stroke="none" fill="#f4a2a4" fill-rule="evenodd"></path><path id="path7" d="M267.000 157.993 C 317.063 158.186,320.684 158.246,321.880 158.900 C 322.584 159.285,323.392 159.600,323.674 159.600 C 323.957 159.600,323.471 159.195,322.594 158.700 L 321.000 157.800 267.200 157.793 L 213.400 157.786 267.000 157.993 M327.484 161.912 C 328.875 163.295,329.784 163.752,328.625 162.485 C 327.979 161.778,327.297 161.200,327.110 161.200 C 326.922 161.200,327.091 161.520,327.484 161.912 M331.200 166.176 C 331.200 166.340,331.560 166.931,332.000 167.491 C 332.440 168.050,332.800 168.874,332.800 169.321 C 332.800 169.768,332.912 170.022,333.048 169.885 C 333.448 169.485,332.887 167.823,332.011 166.813 C 331.565 166.298,331.200 166.012,331.200 166.176 M333.473 172.600 C 333.898 174.161,333.901 317.362,333.476 319.200 C 333.155 320.583,333.159 320.588,333.762 319.600 C 334.706 318.053,334.717 173.345,333.773 172.176 C 333.179 171.442,333.163 171.464,333.473 172.600 M204.500 213.470 L 203.600 214.098 203.600 246.249 C 203.600 267.289,203.737 278.400,203.998 278.400 C 204.257 278.400,204.431 267.170,204.498 246.100 L 204.600 213.800 218.000 213.600 C 227.136 213.464,230.509 213.305,228.600 213.103 C 222.987 212.507,205.498 212.773,204.500 213.470 M256.693 213.300 C 256.545 213.686,257.835 213.800,262.351 213.800 L 268.200 213.800 268.400 240.639 C 268.606 268.328,268.637 268.814,270.149 268.794 C 270.397 268.791,270.330 268.617,270.000 268.409 C 269.478 268.079,269.387 264.528,269.298 241.115 C 269.196 214.300,269.192 214.197,268.354 213.500 C 267.285 212.612,257.025 212.436,256.693 213.300 M232.700 213.882 C 233.195 213.978,234.005 213.978,234.500 213.882 C 234.995 213.787,234.590 213.709,233.600 213.709 C 232.610 213.709,232.205 213.787,232.700 213.882 M236.509 214.800 C 237.069 215.240,237.678 215.594,237.863 215.587 C 238.339 215.568,236.400 214.000,235.902 214.000 C 235.676 214.000,235.950 214.360,236.509 214.800 M239.600 216.519 C 239.600 216.594,240.050 217.047,240.600 217.525 C 241.150 218.003,241.600 218.237,241.600 218.043 C 241.600 217.850,241.150 217.397,240.600 217.037 C 240.050 216.676,239.600 216.443,239.600 216.519 M242.035 219.313 C 242.384 219.581,242.775 220.070,242.904 220.400 C 243.106 220.921,243.141 220.919,243.168 220.380 C 243.204 219.675,242.447 218.794,241.820 218.813 C 241.589 218.820,241.686 219.045,242.035 219.313 M243.203 221.606 C 243.204 221.933,243.563 222.740,244.000 223.400 C 245.028 224.952,245.028 224.422,244.000 222.504 C 243.560 221.684,243.201 221.279,243.203 221.606 M218.200 221.865 C 216.420 222.357,216.400 222.469,216.400 232.169 C 216.400 241.373,216.542 242.424,217.780 242.388 C 218.011 242.381,217.885 242.192,217.500 241.968 C 216.706 241.506,216.425 224.013,217.191 222.800 C 217.783 221.863,225.838 221.944,227.189 222.900 C 228.605 223.902,229.120 223.767,227.811 222.737 C 226.700 221.864,220.303 221.283,218.200 221.865 M229.615 224.183 C 230.539 225.419,231.600 226.431,231.600 226.075 C 231.600 225.896,231.022 225.221,230.315 224.575 C 229.609 223.929,229.294 223.752,229.615 224.183 M244.909 227.200 C 244.909 228.190,244.987 228.595,245.082 228.100 C 245.178 227.605,245.178 226.795,245.082 226.300 C 244.987 225.805,244.909 226.210,244.909 227.200 M231.874 228.600 C 232.274 230.656,232.271 234.262,231.869 235.800 C 231.610 236.789,231.698 236.718,232.364 235.400 C 233.397 233.357,233.401 231.906,232.382 229.185 C 231.669 227.282,231.604 227.206,231.874 228.600 M157.700 274.000 L 157.607 320.200 158.591 322.200 C 159.132 323.300,159.581 323.925,159.587 323.589 C 159.594 323.253,159.285 322.533,158.900 321.989 C 158.246 321.065,158.187 317.945,157.996 274.400 L 157.792 227.800 157.700 274.000 M245.337 232.600 C 245.339 234.360,245.409 235.030,245.493 234.089 C 245.578 233.149,245.577 231.709,245.491 230.889 C 245.405 230.070,245.336 230.840,245.337 232.600 M244.901 237.800 C 244.905 238.680,244.987 238.993,245.083 238.495 C 245.179 237.998,245.175 237.278,245.075 236.895 C 244.975 236.513,244.896 236.920,244.901 237.800 M230.600 238.679 C 230.160 239.221,229.562 239.920,229.271 240.232 C 228.981 240.544,228.891 240.800,229.071 240.800 C 229.445 240.800,231.752 238.012,231.539 237.819 C 231.463 237.750,231.040 238.136,230.600 238.679 M243.803 241.342 C 243.381 242.126,243.162 242.896,243.318 243.051 C 243.473 243.206,243.600 243.093,243.600 242.798 C 243.600 242.504,243.888 241.944,244.241 241.555 C 244.594 241.165,244.812 240.637,244.727 240.381 C 244.642 240.125,244.226 240.557,243.803 241.342 M227.799 241.201 C 227.645 241.451,227.132 241.812,226.659 242.003 L 225.800 242.349 226.651 242.375 C 227.504 242.400,228.704 241.371,228.297 240.964 C 228.178 240.844,227.954 240.951,227.799 241.201 M230.200 251.011 C 228.934 251.429,228.809 251.544,229.600 251.563 C 230.150 251.577,231.320 251.329,232.200 251.012 C 234.309 250.252,232.506 250.251,230.200 251.011 M216.880 252.080 C 216.616 252.344,216.400 252.738,216.400 252.956 C 216.400 253.175,216.625 253.052,216.900 252.683 C 217.318 252.124,218.322 251.994,223.000 251.895 L 228.600 251.775 222.980 251.688 C 219.038 251.626,217.217 251.743,216.880 252.080 M216.494 266.289 L 216.400 278.379 210.500 278.501 L 204.600 278.623 210.513 278.712 C 214.969 278.778,216.473 278.676,216.619 278.295 C 216.725 278.018,216.762 272.483,216.700 265.995 L 216.587 254.200 216.494 266.289 M264.927 278.700 C 269.507 278.764,276.887 278.764,281.327 278.699 C 285.767 278.635,282.020 278.583,273.000 278.583 C 263.980 278.583,260.347 278.635,264.927 278.700 M332.800 322.279 C 332.800 322.726,332.426 323.568,331.968 324.150 C 331.510 324.732,331.226 325.431,331.336 325.704 C 331.461 326.013,331.549 325.952,331.568 325.543 C 331.586 325.181,331.853 324.788,332.162 324.670 C 332.756 324.442,333.444 322.111,333.038 321.705 C 332.907 321.574,332.800 321.832,332.800 322.279 M159.614 324.966 C 159.606 325.168,159.857 325.618,160.170 325.966 C 163.787 329.986,164.971 331.200,165.276 331.200 C 165.474 331.200,164.683 330.234,163.518 329.054 C 162.353 327.873,161.001 326.388,160.514 325.754 C 160.027 325.119,159.622 324.765,159.614 324.966 M327.200 329.990 C 327.200 330.204,326.624 330.677,325.920 331.042 C 324.699 331.673,323.309 332.800,323.751 332.800 C 324.220 332.800,327.600 330.316,327.600 329.972 C 327.600 329.767,327.510 329.600,327.400 329.600 C 327.290 329.600,327.200 329.775,327.200 329.990 M166.800 332.000 C 167.307 332.440,167.899 332.800,168.115 332.800 C 168.331 332.800,168.050 332.440,167.491 332.000 C 166.931 331.560,166.340 331.200,166.176 331.200 C 166.012 331.200,166.293 331.560,166.800 332.000 M171.376 333.773 C 172.564 334.732,319.036 334.732,320.224 333.773 C 320.958 333.179,320.936 333.163,319.800 333.473 C 318.232 333.900,173.368 333.900,171.800 333.473 C 170.664 333.163,170.642 333.179,171.376 333.773 " stroke="none" fill="#fcd4d4" fill-rule="evenodd"></path><path id="path8" d="M132.115 66.296 C 133.388 66.376,135.368 66.375,136.515 66.294 C 137.662 66.214,136.620 66.149,134.200 66.150 C 131.780 66.151,130.842 66.216,132.115 66.296 M143.300 66.297 C 144.785 66.374,147.215 66.374,148.700 66.297 C 150.185 66.220,148.970 66.157,146.000 66.157 C 143.030 66.157,141.815 66.220,143.300 66.297 M124.112 66.695 C 125.164 66.777,126.784 66.776,127.712 66.692 C 128.640 66.608,127.780 66.541,125.800 66.542 C 123.820 66.543,123.060 66.612,124.112 66.695 M152.691 66.689 C 153.401 66.777,154.661 66.779,155.491 66.692 C 156.321 66.605,155.740 66.533,154.200 66.531 C 152.660 66.529,151.981 66.600,152.691 66.689 M106.700 67.482 C 107.195 67.578,108.005 67.578,108.500 67.482 C 108.995 67.387,108.590 67.309,107.600 67.309 C 106.610 67.309,106.205 67.387,106.700 67.482 M170.700 67.482 C 171.195 67.578,172.005 67.578,172.500 67.482 C 172.995 67.387,172.590 67.309,171.600 67.309 C 170.610 67.309,170.205 67.387,170.700 67.482 M100.000 68.018 C 99.562 68.315,99.724 68.352,100.600 68.156 C 102.071 67.827,102.390 67.598,101.367 67.606 C 100.945 67.609,100.330 67.795,100.000 68.018 M177.233 67.744 C 177.325 67.823,177.940 68.008,178.600 68.156 C 179.476 68.352,179.638 68.315,179.200 68.018 C 178.660 67.653,176.832 67.398,177.233 67.744 M93.105 69.083 C 93.602 69.179,94.322 69.175,94.705 69.075 C 95.087 68.975,94.680 68.896,93.800 68.901 C 92.920 68.905,92.607 68.987,93.105 69.083 M184.705 69.083 C 185.202 69.179,185.922 69.175,186.305 69.075 C 186.687 68.975,186.280 68.896,185.400 68.901 C 184.520 68.905,184.207 68.987,184.705 69.083 M66.445 78.545 C 66.118 78.939,66.023 84.847,66.100 99.845 L 66.207 120.600 66.304 99.780 C 66.376 84.230,66.521 78.839,66.880 78.480 C 67.144 78.216,67.256 78.000,67.129 78.000 C 67.002 78.000,66.694 78.245,66.445 78.545 M212.800 99.520 L 213.000 120.600 213.104 99.824 C 213.161 88.397,213.071 78.911,212.904 78.743 C 212.737 78.576,212.690 87.926,212.800 99.520 M65.757 126.000 C 65.757 128.970,65.820 130.185,65.897 128.700 C 65.974 127.215,65.974 124.785,65.897 123.300 C 65.820 121.815,65.757 123.030,65.757 126.000 M213.353 125.400 C 213.353 128.040,213.418 129.068,213.497 127.684 C 213.575 126.301,213.574 124.141,213.495 122.884 C 213.416 121.628,213.352 122.760,213.353 125.400 M212.980 144.000 C 212.980 151.590,213.034 154.695,213.099 150.900 C 213.165 147.105,213.165 140.895,213.099 137.100 C 213.034 133.305,212.980 136.410,212.980 144.000 M66.183 148.400 C 66.183 157.750,66.236 161.575,66.300 156.900 C 66.364 152.225,66.364 144.575,66.300 139.900 C 66.236 135.225,66.183 139.050,66.183 148.400 M321.080 158.042 C 321.784 158.246,322.470 158.590,322.604 158.806 C 322.738 159.023,323.062 159.194,323.324 159.187 C 323.586 159.179,323.375 158.819,322.856 158.387 C 322.336 157.954,321.436 157.616,320.856 157.636 C 319.855 157.670,319.866 157.691,321.080 158.042 M325.600 159.881 C 325.600 160.343,326.735 161.409,326.958 161.157 C 327.034 161.071,326.760 160.654,326.348 160.230 C 325.937 159.807,325.600 159.649,325.600 159.881 M328.820 162.700 C 330.036 164.100,331.200 165.062,331.200 164.668 C 331.200 164.397,328.028 161.200,327.759 161.200 C 327.626 161.200,328.103 161.875,328.820 162.700 M65.755 171.000 C 65.756 173.860,65.820 174.978,65.897 173.483 C 65.974 171.989,65.974 169.649,65.896 168.283 C 65.818 166.918,65.755 168.140,65.755 171.000 M331.834 166.706 C 332.073 166.868,332.473 167.360,332.722 167.800 C 333.058 168.393,333.179 168.440,333.188 167.980 C 333.202 167.271,332.442 166.397,331.820 166.406 C 331.539 166.410,331.544 166.510,331.834 166.706 M333.213 171.100 C 333.220 171.265,333.490 171.749,333.813 172.176 C 334.738 173.399,334.696 317.867,333.771 319.657 C 333.055 321.041,333.211 321.551,334.043 320.548 C 334.733 319.717,335.097 173.633,334.413 171.834 C 334.058 170.900,333.182 170.364,333.213 171.100 M66.185 195.880 C 66.197 212.198,66.295 215.649,66.759 216.080 C 67.223 216.512,67.257 216.499,66.959 216.000 C 66.761 215.670,66.503 206.580,66.385 195.800 L 66.170 176.200 66.185 195.880 M204.667 213.867 C 204.520 214.013,204.443 228.638,204.496 246.367 L 204.593 278.600 204.796 246.400 L 205.000 214.200 218.600 213.992 L 232.200 213.784 218.567 213.692 C 211.068 213.641,204.813 213.720,204.667 213.867 M256.588 214.089 C 256.481 214.370,256.441 229.000,256.499 246.600 L 256.605 278.600 256.702 246.300 L 256.800 214.000 262.400 214.000 L 268.000 214.000 268.000 240.626 C 268.000 266.766,268.091 268.800,269.263 268.800 C 269.530 268.800,269.486 268.545,269.149 268.139 C 268.700 267.598,268.563 262.578,268.400 240.639 L 268.200 213.800 262.492 213.689 C 258.146 213.604,256.737 213.700,256.588 214.089 M235.059 214.397 C 235.532 214.588,236.037 214.937,236.183 215.172 C 236.328 215.407,236.662 215.594,236.924 215.587 C 237.186 215.579,236.975 215.219,236.456 214.787 C 235.936 214.354,235.216 214.011,234.856 214.025 C 234.385 214.044,234.443 214.149,235.059 214.397 M241.200 218.738 C 241.200 218.924,241.560 219.402,242.000 219.800 C 242.440 220.198,242.800 220.406,242.800 220.262 C 242.800 220.118,242.440 219.640,242.000 219.200 C 241.560 218.760,241.200 218.552,241.200 218.738 M216.900 221.865 C 216.625 221.976,216.400 222.254,216.400 222.482 C 216.400 222.765,216.560 222.768,216.900 222.492 C 217.175 222.269,217.760 221.998,218.200 221.889 L 219.000 221.693 218.200 221.678 C 217.760 221.670,217.175 221.754,216.900 221.865 M226.000 221.891 C 226.550 221.991,227.315 222.354,227.700 222.698 C 228.111 223.066,228.400 223.139,228.400 222.876 C 228.400 222.258,227.044 221.589,225.926 221.654 C 225.035 221.707,225.037 221.716,226.000 221.891 M243.203 222.871 C 243.201 223.241,243.451 223.793,243.757 224.100 C 244.063 224.406,244.402 225.004,244.510 225.428 C 244.699 226.168,244.709 226.167,244.751 225.400 C 244.775 224.960,244.437 224.060,244.000 223.400 C 243.464 222.590,243.204 222.418,243.203 222.871 M82.200 223.085 C 82.640 223.191,83.171 223.440,83.380 223.639 C 83.589 223.837,83.938 224.000,84.156 224.000 C 84.375 224.000,84.204 223.736,83.776 223.413 C 83.349 223.090,82.640 222.841,82.200 222.859 L 81.400 222.893 82.200 223.085 M230.093 224.367 C 230.812 225.009,231.482 225.452,231.583 225.351 C 231.807 225.127,229.611 223.200,229.131 223.200 C 228.942 223.200,229.375 223.725,230.093 224.367 M93.200 225.182 C 93.530 225.405,94.145 225.591,94.567 225.594 C 95.590 225.602,95.271 225.373,93.800 225.044 C 92.924 224.848,92.762 224.885,93.200 225.182 M109.900 227.082 C 110.395 227.178,111.205 227.178,111.700 227.082 C 112.195 226.987,111.790 226.909,110.800 226.909 C 109.810 226.909,109.405 226.987,109.900 227.082 M127.700 227.898 C 130.065 227.969,133.935 227.969,136.300 227.898 C 138.665 227.828,136.730 227.770,132.000 227.770 C 127.270 227.770,125.335 227.828,127.700 227.898 M232.013 227.851 C 232.006 228.099,232.270 228.949,232.600 229.738 C 233.362 231.562,233.361 233.482,232.598 234.946 C 231.894 236.295,231.878 236.400,232.385 236.400 C 233.064 236.400,233.683 233.128,233.413 230.967 C 233.187 229.158,232.047 226.622,232.013 227.851 M244.946 232.600 C 244.947 234.800,245.014 235.649,245.095 234.487 C 245.176 233.324,245.176 231.524,245.093 230.487 C 245.011 229.449,244.945 230.400,244.946 232.600 M230.725 239.098 C 229.568 240.445,229.500 240.992,230.625 239.912 C 231.248 239.314,231.661 238.728,231.543 238.610 C 231.425 238.492,231.057 238.711,230.725 239.098 M243.879 240.374 C 242.904 242.025,243.053 242.451,244.057 240.883 C 244.520 240.159,244.823 239.490,244.729 239.396 C 244.635 239.302,244.252 239.742,243.879 240.374 M228.093 241.600 C 227.818 242.040,227.698 242.400,227.825 242.400 C 228.125 242.400,229.200 241.327,229.200 241.029 C 229.200 240.520,228.562 240.849,228.093 241.600 M236.629 249.029 C 235.677 249.980,235.876 250.228,236.900 249.366 C 237.395 248.950,237.875 248.562,237.967 248.504 C 238.058 248.447,237.936 248.400,237.695 248.400 C 237.454 248.400,236.974 248.683,236.629 249.029 M232.900 250.276 C 233.285 250.376,233.915 250.376,234.300 250.276 C 234.685 250.175,234.370 250.093,233.600 250.093 C 232.830 250.093,232.515 250.175,232.900 250.276 M223.352 250.699 C 218.082 250.813,217.655 250.881,216.963 251.711 C 216.555 252.200,216.477 252.375,216.791 252.100 C 217.184 251.754,219.093 251.591,222.980 251.569 C 226.474 251.550,229.205 251.339,230.200 251.011 L 231.800 250.484 230.400 250.530 C 229.630 250.555,226.459 250.631,223.352 250.699 M275.678 269.098 C 278.031 269.169,281.991 269.169,284.478 269.099 C 286.965 269.029,285.040 268.971,280.200 268.970 C 275.360 268.970,273.325 269.028,275.678 269.098 M289.353 273.800 C 289.353 276.440,289.418 277.468,289.497 276.084 C 289.575 274.701,289.574 272.541,289.495 271.284 C 289.416 270.028,289.352 271.160,289.353 273.800 M157.600 321.071 C 157.600 321.533,157.954 322.336,158.387 322.856 C 159.396 324.068,159.400 323.762,158.400 321.800 C 157.819 320.660,157.600 320.460,157.600 321.071 M332.800 323.746 C 332.800 324.119,332.530 324.529,332.200 324.655 C 331.566 324.899,331.367 325.600,331.932 325.600 C 332.410 325.600,333.386 323.652,333.067 323.334 C 332.920 323.187,332.800 323.372,332.800 323.746 M160.681 327.107 C 162.242 329.202,164.886 331.605,165.600 331.575 C 165.991 331.558,165.922 331.436,165.400 331.224 C 164.492 330.855,160.800 327.031,160.800 326.460 C 160.800 326.254,160.523 325.979,160.185 325.850 C 159.803 325.703,159.991 326.180,160.681 327.107 M166.400 331.957 C 166.400 332.552,167.921 333.282,168.721 333.072 C 169.223 332.939,169.173 332.881,168.529 332.846 C 168.049 332.821,167.374 332.517,167.029 332.171 C 166.683 331.826,166.400 331.729,166.400 331.957 M324.999 332.001 C 324.845 332.251,324.332 332.612,323.859 332.803 C 323.299 333.029,323.217 333.158,323.624 333.175 C 324.411 333.207,325.886 332.153,325.539 331.806 C 325.397 331.663,325.154 331.751,324.999 332.001 M170.400 333.563 C 170.400 333.788,170.751 334.160,171.180 334.389 C 172.396 335.040,320.599 334.761,321.253 334.107 C 322.040 333.320,321.342 333.055,320.337 333.759 C 318.956 334.726,172.669 334.744,171.289 333.777 C 170.800 333.435,170.400 333.339,170.400 333.563 " stroke="none" fill="#fcdcdc" fill-rule="evenodd"></path></g></svg>